<mxfile host="65bd71144e">
    <diagram id="v4p81y4F1rrnQQmwH0-d" name="第 1 页">
        <mxGraphModel dx="1339" dy="604" grid="1" gridSize="10" guides="1" tooltips="1" connect="1" arrows="1" fold="1" page="1" pageScale="1" pageWidth="827" pageHeight="1169" math="0" shadow="0">
            <root>
                <mxCell id="0"/>
                <mxCell id="1" parent="0"/>
                <mxCell id="13" style="edgeStyle=orthogonalEdgeStyle;html=1;exitX=0.5;exitY=1;exitDx=0;exitDy=0;" parent="1" source="2" target="8" edge="1">
                    <mxGeometry relative="1" as="geometry"/>
                </mxCell>
                <mxCell id="2" value="" style="rounded=0;whiteSpace=wrap;html=1;" parent="1" vertex="1">
                    <mxGeometry x="160" y="260" width="380" height="60" as="geometry"/>
                </mxCell>
                <mxCell id="5" value="" style="edgeStyle=orthogonalEdgeStyle;html=1;" parent="1" source="3" target="2" edge="1">
                    <mxGeometry relative="1" as="geometry"/>
                </mxCell>
                <mxCell id="3" value="Actor" style="shape=umlActor;verticalLabelPosition=bottom;verticalAlign=top;html=1;outlineConnect=0;" parent="1" vertex="1">
                    <mxGeometry x="200" y="90" width="30" height="60" as="geometry"/>
                </mxCell>
                <mxCell id="6" value="浏览器" style="text;html=1;strokeColor=none;fillColor=none;align=center;verticalAlign=middle;whiteSpace=wrap;rounded=0;" parent="1" vertex="1">
                    <mxGeometry x="160" y="230" width="60" height="30" as="geometry"/>
                </mxCell>
                <mxCell id="14" style="edgeStyle=orthogonalEdgeStyle;html=1;exitX=0.5;exitY=1;exitDx=0;exitDy=0;" parent="1" source="8" target="9" edge="1">
                    <mxGeometry relative="1" as="geometry"/>
                </mxCell>
                <mxCell id="8" value="" style="rounded=0;whiteSpace=wrap;html=1;" parent="1" vertex="1">
                    <mxGeometry x="160" y="390" width="380" height="60" as="geometry"/>
                </mxCell>
                <mxCell id="9" value="" style="rounded=0;whiteSpace=wrap;html=1;" parent="1" vertex="1">
                    <mxGeometry x="160" y="530" width="380" height="280" as="geometry"/>
                </mxCell>
                <mxCell id="10" value="WebSocket Server" style="text;html=1;strokeColor=none;fillColor=none;align=center;verticalAlign=middle;whiteSpace=wrap;rounded=0;" parent="1" vertex="1">
                    <mxGeometry x="160" y="360" width="130" height="30" as="geometry"/>
                </mxCell>
                <mxCell id="11" value="k8s" style="text;html=1;strokeColor=none;fillColor=none;align=center;verticalAlign=middle;whiteSpace=wrap;rounded=0;" parent="1" vertex="1">
                    <mxGeometry x="150" y="500" width="60" height="30" as="geometry"/>
                </mxCell>
                <mxCell id="16" value="Pod/Container" style="rounded=1;whiteSpace=wrap;html=1;" parent="1" vertex="1">
                    <mxGeometry x="390" y="730" width="120" height="60" as="geometry"/>
                </mxCell>
                <mxCell id="18" style="edgeStyle=orthogonalEdgeStyle;html=1;exitX=0.5;exitY=1;exitDx=0;exitDy=0;" parent="1" source="17" target="16" edge="1">
                    <mxGeometry relative="1" as="geometry"/>
                </mxCell>
                <mxCell id="17" value="api server" style="rounded=0;whiteSpace=wrap;html=1;" parent="1" vertex="1">
                    <mxGeometry x="200" y="560" width="310" height="60" as="geometry"/>
                </mxCell>
                <mxCell id="19" value="&lt;h1&gt;&lt;span style=&quot;font-size: 12px; font-weight: 400;&quot;&gt;1. XtermJS:&amp;nbsp; &amp;nbsp;Terminal UI界面&lt;/span&gt;&lt;/h1&gt;&lt;div&gt;&lt;span style=&quot;font-size: 12px; font-weight: 400;&quot;&gt;2.&amp;nbsp; 浏览器 WebSocket 对象:&amp;nbsp; Web Socket 客户端, 用来与后端通信&lt;/span&gt;&lt;/div&gt;" style="text;html=1;strokeColor=none;fillColor=none;spacing=5;spacingTop=-20;whiteSpace=wrap;overflow=hidden;rounded=0;" parent="1" vertex="1">
                    <mxGeometry x="580" y="250" width="190" height="100" as="geometry"/>
                </mxCell>
                <mxCell id="20" value="&lt;h1&gt;&lt;span style=&quot;font-size: 12px; font-weight: 400;&quot;&gt;1.&amp;nbsp; HTTP 标准库 HTTP Server&lt;/span&gt;&lt;/h1&gt;&lt;div&gt;&lt;span style=&quot;font-size: 12px; font-weight: 400;&quot;&gt;2.&amp;nbsp; WebSocket协议库, 用来实现WebSocket Server:&amp;nbsp;&lt;/span&gt;&lt;span style=&quot;color: rgb(230, 219, 116); background-color: rgb(39, 40, 34); font-family: Menlo, Monaco, &amp;quot;Courier New&amp;quot;, monospace;&quot;&gt;github.com/gorilla/websocket&lt;/span&gt;&lt;/div&gt;" style="text;html=1;strokeColor=none;fillColor=none;spacing=5;spacingTop=-20;whiteSpace=wrap;overflow=hidden;rounded=0;" parent="1" vertex="1">
                    <mxGeometry x="570" y="380" width="250" height="100" as="geometry"/>
                </mxCell>
                <mxCell id="21" value="&lt;h1&gt;&lt;span style=&quot;font-size: 12px; font-weight: 400;&quot;&gt;1.&amp;nbsp; k8s client-go SDK 的 认证与基础使用&lt;/span&gt;&lt;/h1&gt;&lt;div&gt;&lt;span style=&quot;font-size: 12px; font-weight: 400;&quot;&gt;2.&amp;nbsp; 使用 client-go 访问容器日志&lt;/span&gt;&lt;/div&gt;&lt;div&gt;&lt;span style=&quot;font-size: 12px; font-weight: 400;&quot;&gt;&lt;br&gt;&lt;/span&gt;&lt;/div&gt;&lt;div&gt;&lt;span style=&quot;font-size: 12px; font-weight: 400;&quot;&gt;3. 使用 client-go 登录容器&lt;/span&gt;&lt;/div&gt;" style="text;html=1;strokeColor=none;fillColor=none;spacing=5;spacingTop=-20;whiteSpace=wrap;overflow=hidden;rounded=0;" parent="1" vertex="1">
                    <mxGeometry x="580" y="530" width="230" height="100" as="geometry"/>
                </mxCell>
                <mxCell id="22" value="&lt;h1&gt;资源环境准备&lt;/h1&gt;&lt;p&gt;1.&amp;nbsp; 浏览器: Chrome&lt;/p&gt;&lt;p&gt;2.&amp;nbsp; K8s 集群,&amp;nbsp; 推荐按照方式:&lt;/p&gt;&lt;p&gt;&amp;nbsp; &amp;nbsp; &amp;nbsp; 1. Docker Desktop 一键安装&lt;/p&gt;&lt;p&gt;&amp;nbsp; &amp;nbsp; &amp;nbsp; 2. 云商按量付费 k8s 托管集群&lt;/p&gt;&lt;p&gt;3. K8s CLI客户端 kubectl&lt;/p&gt;" style="text;html=1;strokeColor=none;fillColor=none;spacing=5;spacingTop=-20;whiteSpace=wrap;overflow=hidden;rounded=0;" parent="1" vertex="1">
                    <mxGeometry x="70" y="920" width="230" height="190" as="geometry"/>
                </mxCell>
                <mxCell id="23" value="&lt;h1&gt;开发环境准备&lt;/h1&gt;&lt;p&gt;1. Go语言版本:&amp;nbsp; 1.22&lt;/p&gt;&lt;p&gt;2. IDE: VsCode 最新版&lt;/p&gt;" style="text;html=1;strokeColor=none;fillColor=none;spacing=5;spacingTop=-20;whiteSpace=wrap;overflow=hidden;rounded=0;" parent="1" vertex="1">
                    <mxGeometry x="414" y="920" width="190" height="180" as="geometry"/>
                </mxCell>
                <mxCell id="28" style="edgeStyle=orthogonalEdgeStyle;html=1;exitX=1;exitY=0.5;exitDx=0;exitDy=0;entryX=0;entryY=0.5;entryDx=0;entryDy=0;" parent="1" source="26" target="27" edge="1">
                    <mxGeometry relative="1" as="geometry"/>
                </mxCell>
                <mxCell id="26" value="k8s client-go" style="rounded=1;whiteSpace=wrap;html=1;" parent="1" vertex="1">
                    <mxGeometry x="230" y="1275" width="120" height="60" as="geometry"/>
                </mxCell>
                <mxCell id="30" style="edgeStyle=orthogonalEdgeStyle;html=1;exitX=1;exitY=0.5;exitDx=0;exitDy=0;entryX=0.5;entryY=0;entryDx=0;entryDy=0;" parent="1" source="27" target="29" edge="1">
                    <mxGeometry relative="1" as="geometry"/>
                </mxCell>
                <mxCell id="27" value="api server" style="rounded=0;whiteSpace=wrap;html=1;" parent="1" vertex="1">
                    <mxGeometry x="450" y="1210" width="130" height="190" as="geometry"/>
                </mxCell>
                <mxCell id="29" value="Container&lt;br&gt;1. 日志&lt;br&gt;2. 登录" style="rounded=1;whiteSpace=wrap;html=1;" parent="1" vertex="1">
                    <mxGeometry x="630" y="1335" width="120" height="60" as="geometry"/>
                </mxCell>
                <mxCell id="35" style="edgeStyle=orthogonalEdgeStyle;html=1;exitX=0;exitY=0.5;exitDx=0;exitDy=0;entryX=0.5;entryY=0;entryDx=0;entryDy=0;entryPerimeter=0;" parent="1" source="31" target="33" edge="1">
                    <mxGeometry relative="1" as="geometry"/>
                </mxCell>
                <mxCell id="36" value="加载 Kubeconfig" style="edgeLabel;html=1;align=center;verticalAlign=middle;resizable=0;points=[];" parent="35" vertex="1" connectable="0">
                    <mxGeometry x="-0.1927" y="-4" relative="1" as="geometry">
                        <mxPoint as="offset"/>
                    </mxGeometry>
                </mxCell>
                <mxCell id="31" value="k8s client&lt;br&gt;&lt;br&gt;" style="rounded=0;whiteSpace=wrap;html=1;" parent="1" vertex="1">
                    <mxGeometry x="230" y="1564" width="140" height="196" as="geometry"/>
                </mxCell>
                <mxCell id="32" value="k8s client-go" style="rounded=1;whiteSpace=wrap;html=1;" parent="1" vertex="1">
                    <mxGeometry x="240" y="1714" width="120" height="30" as="geometry"/>
                </mxCell>
                <mxCell id="33" value="" style="verticalLabelPosition=bottom;html=1;verticalAlign=top;align=center;strokeColor=none;fillColor=#00BEF2;shape=mxgraph.azure.cloud_services_configuration_file;pointerEvents=1;" parent="1" vertex="1">
                    <mxGeometry x="50" y="1704" width="47.5" height="50" as="geometry"/>
                </mxCell>
                <mxCell id="34" value="被封装的 K8s 客户端对象" style="text;html=1;strokeColor=none;fillColor=none;align=center;verticalAlign=middle;whiteSpace=wrap;rounded=0;" parent="1" vertex="1">
                    <mxGeometry x="220" y="1534" width="160" height="30" as="geometry"/>
                </mxCell>
                <mxCell id="37" value="&lt;div style=&quot;color: rgb(248, 248, 242); background-color: rgb(39, 40, 34); font-family: Menlo, Monaco, &amp;quot;Courier New&amp;quot;, monospace; line-height: 18px;&quot;&gt;&lt;div style=&quot;line-height: 18px;&quot;&gt;&lt;span style=&quot;color: #a6e22e;&quot;&gt;ServerVersion&lt;/span&gt;&lt;/div&gt;&lt;/div&gt;" style="rounded=0;whiteSpace=wrap;html=1;" parent="1" vertex="1">
                    <mxGeometry x="350" y="1580" width="220" height="30" as="geometry"/>
                </mxCell>
                <mxCell id="38" value="&lt;div style=&quot;color: rgb(248, 248, 242); background-color: rgb(39, 40, 34); font-family: Menlo, Monaco, &amp;quot;Courier New&amp;quot;, monospace; line-height: 18px;&quot;&gt;&lt;div style=&quot;line-height: 18px;&quot;&gt;&lt;div style=&quot;line-height: 18px;&quot;&gt;&lt;span style=&quot;color: #a6e22e;&quot;&gt;WatchConainterLog&lt;/span&gt;&lt;/div&gt;&lt;/div&gt;&lt;/div&gt;" style="rounded=0;whiteSpace=wrap;html=1;" parent="1" vertex="1">
                    <mxGeometry x="350" y="1630" width="220" height="30" as="geometry"/>
                </mxCell>
                <mxCell id="39" value="&lt;div style=&quot;color: rgb(248, 248, 242); background-color: rgb(39, 40, 34); font-family: Menlo, Monaco, &amp;quot;Courier New&amp;quot;, monospace; line-height: 18px;&quot;&gt;&lt;div style=&quot;line-height: 18px;&quot;&gt;&lt;div style=&quot;line-height: 18px;&quot;&gt;&lt;div style=&quot;line-height: 18px;&quot;&gt;&lt;span style=&quot;color: #a6e22e;&quot;&gt;LoginContainer&lt;/span&gt;&lt;/div&gt;&lt;/div&gt;&lt;/div&gt;&lt;/div&gt;" style="rounded=0;whiteSpace=wrap;html=1;" parent="1" vertex="1">
                    <mxGeometry x="350" y="1674" width="220" height="30" as="geometry"/>
                </mxCell>
                <mxCell id="42" value="k8s client&lt;br&gt;&lt;br&gt;" style="rounded=0;whiteSpace=wrap;html=1;" parent="1" vertex="1">
                    <mxGeometry x="343" y="2410" width="140" height="196" as="geometry"/>
                </mxCell>
                <mxCell id="43" value="k8s client-go" style="rounded=1;whiteSpace=wrap;html=1;" parent="1" vertex="1">
                    <mxGeometry x="353" y="2560" width="120" height="30" as="geometry"/>
                </mxCell>
                <mxCell id="45" value="被封装的 K8s 客户端对象" style="text;html=1;strokeColor=none;fillColor=none;align=center;verticalAlign=middle;whiteSpace=wrap;rounded=0;" parent="1" vertex="1">
                    <mxGeometry x="333" y="2380" width="160" height="30" as="geometry"/>
                </mxCell>
                <mxCell id="54" style="edgeStyle=orthogonalEdgeStyle;html=1;exitX=1;exitY=0.25;exitDx=0;exitDy=0;entryX=0.5;entryY=0;entryDx=0;entryDy=0;" parent="1" source="48" target="52" edge="1">
                    <mxGeometry relative="1" as="geometry"/>
                </mxCell>
                <mxCell id="48" value="&lt;div style=&quot;color: rgb(248, 248, 242); background-color: rgb(39, 40, 34); font-family: Menlo, Monaco, &amp;quot;Courier New&amp;quot;, monospace; line-height: 18px;&quot;&gt;&lt;div style=&quot;line-height: 18px;&quot;&gt;&lt;div style=&quot;line-height: 18px;&quot;&gt;&lt;div style=&quot;line-height: 18px;&quot;&gt;&lt;span style=&quot;color: #a6e22e;&quot;&gt;LoginContainer&lt;/span&gt;&lt;/div&gt;&lt;/div&gt;&lt;/div&gt;&lt;/div&gt;" style="rounded=0;whiteSpace=wrap;html=1;" parent="1" vertex="1">
                    <mxGeometry x="463" y="2480" width="220" height="30" as="geometry"/>
                </mxCell>
                <mxCell id="51" style="edgeStyle=orthogonalEdgeStyle;html=1;exitX=1;exitY=0.5;exitDx=0;exitDy=0;entryX=0;entryY=0.429;entryDx=0;entryDy=0;entryPerimeter=0;" parent="1" source="49" target="42" edge="1">
                    <mxGeometry relative="1" as="geometry"/>
                </mxCell>
                <mxCell id="65" style="edgeStyle=orthogonalEdgeStyle;html=1;exitX=0.5;exitY=1;exitDx=0;exitDy=0;entryX=0;entryY=0.5;entryDx=0;entryDy=0;" parent="1" source="49" target="52" edge="1">
                    <mxGeometry relative="1" as="geometry"/>
                </mxCell>
                <mxCell id="68" value="输入" style="edgeLabel;html=1;align=center;verticalAlign=middle;resizable=0;points=[];" parent="65" vertex="1" connectable="0">
                    <mxGeometry x="0.2879" y="-2" relative="1" as="geometry">
                        <mxPoint as="offset"/>
                    </mxGeometry>
                </mxCell>
                <mxCell id="49" value="&lt;blockquote style=&quot;margin: 0 0 0 40px; border: none; padding: 0px;&quot;&gt;$ ls&lt;br&gt;$ .....&lt;/blockquote&gt;&lt;blockquote style=&quot;margin: 0 0 0 40px; border: none; padding: 0px;&quot;&gt;$ .....&lt;/blockquote&gt;" style="rounded=1;whiteSpace=wrap;html=1;align=left;" parent="1" vertex="1">
                    <mxGeometry x="38" y="2440" width="230" height="110" as="geometry"/>
                </mxCell>
                <mxCell id="50" value="Terminal" style="text;html=1;strokeColor=none;fillColor=none;align=center;verticalAlign=middle;whiteSpace=wrap;rounded=0;" parent="1" vertex="1">
                    <mxGeometry x="38" y="2410" width="60" height="30" as="geometry"/>
                </mxCell>
                <mxCell id="66" style="edgeStyle=orthogonalEdgeStyle;html=1;exitX=0;exitY=0.75;exitDx=0;exitDy=0;entryX=0.43;entryY=1.018;entryDx=0;entryDy=0;entryPerimeter=0;" parent="1" source="52" target="49" edge="1">
                    <mxGeometry relative="1" as="geometry"/>
                </mxCell>
                <mxCell id="69" value="输出" style="edgeLabel;html=1;align=center;verticalAlign=middle;resizable=0;points=[];" parent="66" vertex="1" connectable="0">
                    <mxGeometry x="-0.4092" y="-1" relative="1" as="geometry">
                        <mxPoint as="offset"/>
                    </mxGeometry>
                </mxCell>
                <mxCell id="52" value="Container&lt;br&gt;&amp;nbsp;登录" style="rounded=1;whiteSpace=wrap;html=1;" parent="1" vertex="1">
                    <mxGeometry x="670" y="2590" width="120" height="60" as="geometry"/>
                </mxCell>
                <mxCell id="55" value="k8s client&lt;br&gt;&lt;br&gt;" style="rounded=0;whiteSpace=wrap;html=1;" parent="1" vertex="1">
                    <mxGeometry x="323" y="1840" width="140" height="196" as="geometry"/>
                </mxCell>
                <mxCell id="56" value="k8s client-go" style="rounded=1;whiteSpace=wrap;html=1;" parent="1" vertex="1">
                    <mxGeometry x="333" y="1990" width="120" height="30" as="geometry"/>
                </mxCell>
                <mxCell id="57" value="被封装的 K8s 客户端对象" style="text;html=1;strokeColor=none;fillColor=none;align=center;verticalAlign=middle;whiteSpace=wrap;rounded=0;" parent="1" vertex="1">
                    <mxGeometry x="313" y="1810" width="160" height="30" as="geometry"/>
                </mxCell>
                <mxCell id="58" style="edgeStyle=orthogonalEdgeStyle;html=1;exitX=1;exitY=0.25;exitDx=0;exitDy=0;entryX=0.5;entryY=0;entryDx=0;entryDy=0;" parent="1" source="59" target="63" edge="1">
                    <mxGeometry relative="1" as="geometry"/>
                </mxCell>
                <mxCell id="59" value="&lt;div style=&quot;color: rgb(248, 248, 242); background-color: rgb(39, 40, 34); font-family: Menlo, Monaco, &amp;quot;Courier New&amp;quot;, monospace; line-height: 18px;&quot;&gt;&lt;div style=&quot;line-height: 18px;&quot;&gt;&lt;div style=&quot;line-height: 18px;&quot;&gt;&lt;div style=&quot;line-height: 18px;&quot;&gt;&lt;span style=&quot;color: rgb(166, 226, 46);&quot;&gt;WatchConainterLog&lt;/span&gt;&lt;br&gt;&lt;/div&gt;&lt;/div&gt;&lt;/div&gt;&lt;/div&gt;" style="rounded=0;whiteSpace=wrap;html=1;" parent="1" vertex="1">
                    <mxGeometry x="443" y="1910" width="220" height="30" as="geometry"/>
                </mxCell>
                <mxCell id="60" style="edgeStyle=orthogonalEdgeStyle;html=1;exitX=1;exitY=0.5;exitDx=0;exitDy=0;entryX=0;entryY=0.429;entryDx=0;entryDy=0;entryPerimeter=0;" parent="1" source="61" target="55" edge="1">
                    <mxGeometry relative="1" as="geometry"/>
                </mxCell>
                <mxCell id="61" value="&lt;blockquote style=&quot;margin: 0 0 0 40px; border: none; padding: 0px;&quot;&gt;text log...&lt;/blockquote&gt;&lt;blockquote style=&quot;margin: 0 0 0 40px; border: none; padding: 0px;&quot;&gt;text log...&lt;/blockquote&gt;" style="rounded=1;whiteSpace=wrap;html=1;align=left;" parent="1" vertex="1">
                    <mxGeometry x="18" y="1870" width="230" height="110" as="geometry"/>
                </mxCell>
                <mxCell id="62" value="Terminal" style="text;html=1;strokeColor=none;fillColor=none;align=center;verticalAlign=middle;whiteSpace=wrap;rounded=0;" parent="1" vertex="1">
                    <mxGeometry x="18" y="1840" width="60" height="30" as="geometry"/>
                </mxCell>
                <mxCell id="64" style="edgeStyle=orthogonalEdgeStyle;html=1;exitX=0;exitY=0.5;exitDx=0;exitDy=0;entryX=0.5;entryY=1;entryDx=0;entryDy=0;" parent="1" source="63" target="61" edge="1">
                    <mxGeometry relative="1" as="geometry">
                        <Array as="points">
                            <mxPoint x="650" y="2060"/>
                            <mxPoint x="133" y="2060"/>
                        </Array>
                    </mxGeometry>
                </mxCell>
                <mxCell id="67" value="容器日志" style="edgeLabel;html=1;align=center;verticalAlign=middle;resizable=0;points=[];" parent="64" vertex="1" connectable="0">
                    <mxGeometry x="-0.2538" y="-4" relative="1" as="geometry">
                        <mxPoint as="offset"/>
                    </mxGeometry>
                </mxCell>
                <mxCell id="63" value="Container&lt;br&gt;&amp;nbsp;日志" style="rounded=1;whiteSpace=wrap;html=1;" parent="1" vertex="1">
                    <mxGeometry x="650" y="2020" width="120" height="60" as="geometry"/>
                </mxCell>
                <mxCell id="75" style="edgeStyle=orthogonalEdgeStyle;html=1;exitX=0;exitY=0.25;exitDx=0;exitDy=0;entryX=1;entryY=0.25;entryDx=0;entryDy=0;" parent="1" source="70" target="74" edge="1">
                    <mxGeometry relative="1" as="geometry"/>
                </mxCell>
                <mxCell id="81" value="日志" style="edgeLabel;html=1;align=center;verticalAlign=middle;resizable=0;points=[];" parent="75" vertex="1" connectable="0">
                    <mxGeometry x="-0.0143" y="-2" relative="1" as="geometry">
                        <mxPoint as="offset"/>
                    </mxGeometry>
                </mxCell>
                <mxCell id="80" style="edgeStyle=orthogonalEdgeStyle;html=1;exitX=0;exitY=0.75;exitDx=0;exitDy=0;entryX=1;entryY=0.75;entryDx=0;entryDy=0;" parent="1" source="70" target="74" edge="1">
                    <mxGeometry relative="1" as="geometry"/>
                </mxCell>
                <mxCell id="83" value="输出" style="edgeLabel;html=1;align=center;verticalAlign=middle;resizable=0;points=[];" parent="80" vertex="1" connectable="0">
                    <mxGeometry x="-0.1143" y="2" relative="1" as="geometry">
                        <mxPoint as="offset"/>
                    </mxGeometry>
                </mxCell>
                <mxCell id="70" value="Websocket Server Terminal" style="rounded=1;whiteSpace=wrap;html=1;" parent="1" vertex="1">
                    <mxGeometry x="390" y="2790" width="189" height="140" as="geometry"/>
                </mxCell>
                <mxCell id="71" value="&lt;div style=&quot;color: rgb(248, 248, 242); background-color: rgb(39, 40, 34); font-family: Menlo, Monaco, &amp;quot;Courier New&amp;quot;, monospace; line-height: 18px;&quot;&gt;&lt;div style=&quot;line-height: 18px;&quot;&gt;&lt;div style=&quot;line-height: 18px;&quot;&gt;&lt;div style=&quot;line-height: 18px;&quot;&gt;&lt;span style=&quot;color: rgb(166, 226, 46);&quot;&gt;WatchConainterLog&lt;/span&gt;&lt;br&gt;&lt;/div&gt;&lt;/div&gt;&lt;/div&gt;&lt;/div&gt;" style="rounded=0;whiteSpace=wrap;html=1;" parent="1" vertex="1">
                    <mxGeometry x="570" y="2810" width="220" height="30" as="geometry"/>
                </mxCell>
                <mxCell id="72" value="&lt;div style=&quot;color: rgb(248, 248, 242); background-color: rgb(39, 40, 34); font-family: Menlo, Monaco, &amp;quot;Courier New&amp;quot;, monospace; line-height: 18px;&quot;&gt;&lt;div style=&quot;line-height: 18px;&quot;&gt;&lt;div style=&quot;line-height: 18px;&quot;&gt;&lt;div style=&quot;line-height: 18px;&quot;&gt;&lt;span style=&quot;color: #a6e22e;&quot;&gt;LoginContainer&lt;/span&gt;&lt;/div&gt;&lt;/div&gt;&lt;/div&gt;&lt;/div&gt;" style="rounded=0;whiteSpace=wrap;html=1;" parent="1" vertex="1">
                    <mxGeometry x="570" y="2860" width="220" height="30" as="geometry"/>
                </mxCell>
                <mxCell id="79" style="edgeStyle=orthogonalEdgeStyle;html=1;exitX=1;exitY=0.5;exitDx=0;exitDy=0;entryX=0;entryY=0.5;entryDx=0;entryDy=0;" parent="1" source="74" target="70" edge="1">
                    <mxGeometry relative="1" as="geometry"/>
                </mxCell>
                <mxCell id="82" value="输入" style="edgeLabel;html=1;align=center;verticalAlign=middle;resizable=0;points=[];" parent="79" vertex="1" connectable="0">
                    <mxGeometry x="0.0714" y="-2" relative="1" as="geometry">
                        <mxPoint as="offset"/>
                    </mxGeometry>
                </mxCell>
                <mxCell id="74" value="浏览器Web Socket 客户端" style="rounded=1;whiteSpace=wrap;html=1;" parent="1" vertex="1">
                    <mxGeometry x="70" y="2790" width="180" height="140" as="geometry"/>
                </mxCell>
                <mxCell id="87" style="edgeStyle=none;html=1;exitX=1;exitY=0.5;exitDx=0;exitDy=0;entryX=0;entryY=0.5;entryDx=0;entryDy=0;" parent="1" source="84" target="85" edge="1">
                    <mxGeometry relative="1" as="geometry"/>
                </mxCell>
                <mxCell id="95" style="edgeStyle=orthogonalEdgeStyle;html=1;exitX=0.75;exitY=1;exitDx=0;exitDy=0;entryX=0.25;entryY=1;entryDx=0;entryDy=0;" parent="1" source="84" target="85" edge="1">
                    <mxGeometry relative="1" as="geometry">
                        <Array as="points">
                            <mxPoint x="213" y="3290"/>
                            <mxPoint x="395" y="3290"/>
                        </Array>
                    </mxGeometry>
                </mxCell>
                <mxCell id="97" value="指令(Resize/Ping)" style="edgeLabel;html=1;align=center;verticalAlign=middle;resizable=0;points=[];" parent="95" vertex="1" connectable="0">
                    <mxGeometry x="0.0709" y="-1" relative="1" as="geometry">
                        <mxPoint as="offset"/>
                    </mxGeometry>
                </mxCell>
                <mxCell id="84" value="浏览器 Terminal&lt;br&gt;Web Socket 客户端" style="rounded=1;whiteSpace=wrap;html=1;" parent="1" vertex="1">
                    <mxGeometry x="78" y="3100" width="180" height="140" as="geometry"/>
                </mxCell>
                <mxCell id="88" style="edgeStyle=none;html=1;exitX=1;exitY=0.5;exitDx=0;exitDy=0;entryX=0;entryY=0.5;entryDx=0;entryDy=0;" parent="1" source="85" target="86" edge="1">
                    <mxGeometry relative="1" as="geometry"/>
                </mxCell>
                <mxCell id="90" style="edgeStyle=none;html=1;exitX=0;exitY=0.75;exitDx=0;exitDy=0;entryX=1;entryY=0.75;entryDx=0;entryDy=0;" parent="1" source="85" target="84" edge="1">
                    <mxGeometry relative="1" as="geometry"/>
                </mxCell>
                <mxCell id="96" style="edgeStyle=orthogonalEdgeStyle;html=1;exitX=0.75;exitY=1;exitDx=0;exitDy=0;entryX=0.25;entryY=1;entryDx=0;entryDy=0;" parent="1" source="85" target="86" edge="1">
                    <mxGeometry relative="1" as="geometry">
                        <Array as="points">
                            <mxPoint x="485" y="3290"/>
                            <mxPoint x="655" y="3290"/>
                        </Array>
                    </mxGeometry>
                </mxCell>
                <mxCell id="98" value="&amp;nbsp;指令(Resize)" style="edgeLabel;html=1;align=center;verticalAlign=middle;resizable=0;points=[];" parent="96" vertex="1" connectable="0">
                    <mxGeometry x="0.1185" y="-1" relative="1" as="geometry">
                        <mxPoint as="offset"/>
                    </mxGeometry>
                </mxCell>
                <mxCell id="85" value="WebSocket Terminal&lt;br&gt;&lt;br&gt;Reader:&amp;nbsp; ws.Read --&amp;gt; k8s client&lt;br&gt;&lt;br&gt;&lt;br&gt;Writer ws.Write&amp;nbsp; &amp;lt;-- k8s client" style="rounded=1;whiteSpace=wrap;html=1;" parent="1" vertex="1">
                    <mxGeometry x="350" y="3100" width="180" height="140" as="geometry"/>
                </mxCell>
                <mxCell id="89" style="edgeStyle=none;html=1;exitX=0;exitY=0.75;exitDx=0;exitDy=0;entryX=1;entryY=0.75;entryDx=0;entryDy=0;" parent="1" source="86" target="85" edge="1">
                    <mxGeometry relative="1" as="geometry"/>
                </mxCell>
                <mxCell id="86" value="Container Terminal" style="rounded=1;whiteSpace=wrap;html=1;" parent="1" vertex="1">
                    <mxGeometry x="610" y="3100" width="180" height="140" as="geometry"/>
                </mxCell>
                <mxCell id="91" value="Proxy" style="text;html=1;strokeColor=none;fillColor=none;align=center;verticalAlign=middle;whiteSpace=wrap;rounded=0;" parent="1" vertex="1">
                    <mxGeometry x="403" y="3060" width="60" height="30" as="geometry"/>
                </mxCell>
                <mxCell id="92" value="映射出来的终端" style="text;html=1;strokeColor=none;fillColor=none;align=center;verticalAlign=middle;whiteSpace=wrap;rounded=0;" parent="1" vertex="1">
                    <mxGeometry x="660" y="3060" width="100" height="30" as="geometry"/>
                </mxCell>
                <mxCell id="93" value="用户看到的终端" style="text;html=1;strokeColor=none;fillColor=none;align=center;verticalAlign=middle;whiteSpace=wrap;rounded=0;" parent="1" vertex="1">
                    <mxGeometry x="118" y="3060" width="100" height="30" as="geometry"/>
                </mxCell>
                <mxCell id="100" value="nginx 各种代理" style="ellipse;shape=cloud;whiteSpace=wrap;html=1;" parent="1" vertex="1">
                    <mxGeometry x="250" y="3310" width="120" height="80" as="geometry"/>
                </mxCell>
                <mxCell id="106" style="edgeStyle=orthogonalEdgeStyle;html=1;exitX=0.5;exitY=1;exitDx=0;exitDy=0;entryX=0;entryY=0.5;entryDx=0;entryDy=0;" parent="1" source="101" target="105" edge="1">
                    <mxGeometry relative="1" as="geometry"/>
                </mxCell>
                <mxCell id="108" value="如果头是1" style="edgeLabel;html=1;align=center;verticalAlign=middle;resizable=0;points=[];" parent="106" vertex="1" connectable="0">
                    <mxGeometry x="0.0368" y="3" relative="1" as="geometry">
                        <mxPoint as="offset"/>
                    </mxGeometry>
                </mxCell>
                <mxCell id="101" value="数据头(1Byte, 1数据, 2表示指令)" style="rounded=0;whiteSpace=wrap;html=1;" parent="1" vertex="1">
                    <mxGeometry x="90" y="3710" width="120" height="60" as="geometry"/>
                </mxCell>
                <mxCell id="107" style="edgeStyle=orthogonalEdgeStyle;html=1;exitX=0.5;exitY=1;exitDx=0;exitDy=0;entryX=1;entryY=0.5;entryDx=0;entryDy=0;" parent="1" source="102" target="105" edge="1">
                    <mxGeometry relative="1" as="geometry"/>
                </mxCell>
                <mxCell id="109" value="如果是2进制" style="edgeLabel;html=1;align=center;verticalAlign=middle;resizable=0;points=[];" parent="107" vertex="1" connectable="0">
                    <mxGeometry x="0.1515" relative="1" as="geometry">
                        <mxPoint as="offset"/>
                    </mxGeometry>
                </mxCell>
                <mxCell id="102" value="WebSocket 数据类型区分&lt;br&gt;1. 二进制 表示数据&lt;br&gt;2. 文本 表示指令" style="rounded=0;whiteSpace=wrap;html=1;" parent="1" vertex="1">
                    <mxGeometry x="560" y="3710" width="200" height="60" as="geometry"/>
                </mxCell>
                <mxCell id="103" value="如何区分数据与指令(需要考虑性能)" style="text;html=1;strokeColor=none;fillColor=none;align=center;verticalAlign=middle;whiteSpace=wrap;rounded=0;" parent="1" vertex="1">
                    <mxGeometry x="333" y="3620" width="217" height="30" as="geometry"/>
                </mxCell>
                <mxCell id="104" value="原始数据" style="rounded=0;whiteSpace=wrap;html=1;" parent="1" vertex="1">
                    <mxGeometry x="210" y="3710" width="120" height="60" as="geometry"/>
                </mxCell>
                <mxCell id="105" value="WebSocket Terminal" style="rounded=1;whiteSpace=wrap;html=1;" parent="1" vertex="1">
                    <mxGeometry x="343" y="3860" width="180" height="140" as="geometry"/>
                </mxCell>
                <mxCell id="111" value="websocket" style="text;html=1;strokeColor=none;fillColor=none;align=center;verticalAlign=middle;whiteSpace=wrap;rounded=0;" parent="1" vertex="1">
                    <mxGeometry x="273" y="3110" width="60" height="30" as="geometry"/>
                </mxCell>
                <mxCell id="112" value="k8s client" style="text;html=1;strokeColor=none;fillColor=none;align=center;verticalAlign=middle;whiteSpace=wrap;rounded=0;" parent="1" vertex="1">
                    <mxGeometry x="540" y="3120" width="60" height="30" as="geometry"/>
                </mxCell>
                <mxCell id="113" value="指令 PIng/Resize" style="text;html=1;strokeColor=none;fillColor=none;align=center;verticalAlign=middle;whiteSpace=wrap;rounded=0;" parent="1" vertex="1">
                    <mxGeometry x="410" y="3250" width="60" height="30" as="geometry"/>
                </mxCell>
                <mxCell id="114" value="Terminal" style="rounded=1;whiteSpace=wrap;html=1;" vertex="1" parent="1">
                    <mxGeometry x="70.5" y="4134.5" width="180" height="140" as="geometry"/>
                </mxCell>
                <mxCell id="120" style="edgeStyle=orthogonalEdgeStyle;html=1;exitX=1;exitY=0.25;exitDx=0;exitDy=0;entryX=0;entryY=0.25;entryDx=0;entryDy=0;" edge="1" parent="1" source="116" target="119">
                    <mxGeometry relative="1" as="geometry">
                        <mxPoint x="452.5" y="4162.5" as="targetPoint"/>
                    </mxGeometry>
                </mxCell>
                <mxCell id="116" value="&lt;div style=&quot;background-color: rgb(39, 40, 34); font-family: Menlo, Monaco, &amp;quot;Courier New&amp;quot;, monospace; line-height: 18px;&quot;&gt;&lt;div style=&quot;line-height: 18px;&quot;&gt;&lt;div style=&quot;line-height: 18px;&quot;&gt;&lt;div style=&quot;line-height: 18px;&quot;&gt;&lt;div style=&quot;color: rgb(248, 248, 242); line-height: 18px;&quot;&gt;&lt;span style=&quot;color: #a6e22e;&quot;&gt;resize&lt;/span&gt;&lt;/div&gt;&lt;/div&gt;&lt;/div&gt;&lt;/div&gt;&lt;/div&gt;" style="rounded=0;whiteSpace=wrap;html=1;" vertex="1" parent="1">
                    <mxGeometry x="225.5" y="4154.5" width="117" height="30" as="geometry"/>
                </mxCell>
                <mxCell id="121" style="edgeStyle=orthogonalEdgeStyle;html=1;exitX=1;exitY=0.5;exitDx=0;exitDy=0;entryX=0;entryY=0.5;entryDx=0;entryDy=0;" edge="1" parent="1" source="118" target="119">
                    <mxGeometry relative="1" as="geometry">
                        <mxPoint x="490" y="4205" as="targetPoint"/>
                    </mxGeometry>
                </mxCell>
                <mxCell id="118" value="&lt;div style=&quot;color: rgb(248, 248, 242); background-color: rgb(39, 40, 34); font-family: Menlo, Monaco, &amp;quot;Courier New&amp;quot;, monospace; line-height: 18px;&quot;&gt;&lt;div style=&quot;line-height: 18px;&quot;&gt;&lt;div style=&quot;line-height: 18px;&quot;&gt;&lt;div style=&quot;line-height: 18px;&quot;&gt;&lt;div style=&quot;line-height: 18px;&quot;&gt;&lt;span style=&quot;color: #a6e22e;&quot;&gt;write&lt;/span&gt;&lt;/div&gt;&lt;/div&gt;&lt;/div&gt;&lt;/div&gt;&lt;/div&gt;" style="rounded=0;whiteSpace=wrap;html=1;" vertex="1" parent="1">
                    <mxGeometry x="225.5" y="4190" width="117" height="30" as="geometry"/>
                </mxCell>
                <mxCell id="136" style="edgeStyle=orthogonalEdgeStyle;html=1;exitX=0;exitY=0.75;exitDx=0;exitDy=0;entryX=1;entryY=0.5;entryDx=0;entryDy=0;" edge="1" parent="1" source="119" target="135">
                    <mxGeometry relative="1" as="geometry"/>
                </mxCell>
                <mxCell id="137" value="终端有数据输入时" style="edgeLabel;html=1;align=center;verticalAlign=middle;resizable=0;points=[];" vertex="1" connectable="0" parent="136">
                    <mxGeometry x="0.0404" y="-4" relative="1" as="geometry">
                        <mxPoint as="offset"/>
                    </mxGeometry>
                </mxCell>
                <mxCell id="119" value="" style="shape=image;verticalLabelPosition=bottom;labelBackgroundColor=default;verticalAlign=top;aspect=fixed;imageAspect=0;image=data:image/png,iVBORw0KGgoAAAANSUhEUgAAAggAAAE4CAYAAAA+bgtTAAAAAXNSR0IArs4c6QAAIABJREFUeF7sfQV0VUnXbMUTQoQ4BCe4u7u7D+7u7u7u7u7u7u5uQUMIRIm7vanNd/NnmBgwzMBL91os4N5z+3RXy64tvVsrOjo6GqooBBQCCgGFgEJAIaAQiIWAloYgREVFITQ0FBEREQoghYBCQCGgEFAIKASSAQJaWlowMjKCjo7O33orBIHE4PHjx7h77w78/fyhbArJYFaoLioEFAIKAYVAskdAR1cHObLnQMmSJWFmZvYXPLSioqKiHz56iJkzZuDZ8+eIiAhP9oApABQCCgGFgEJAIZAcEKAFwcbGBu3atUezP5pBT08vpttaYWFh0Rs2bMDiJYtAN4MqCgGFgEJAIaAQUAgkHwRIEooVK46JEyYiderU/0cQQkJCohcsmI/NWzYnHzRUTxUCCgGFgEJAIaAQiEEgb968mDhhErJkyfJXgjB//jxs2bpFQaUQUAgoBBQCCgGFQDJEIE+evJg4cSIcsjgogpAMx191WSGgEFAIKAQUAnEioAiCmhgKAYWAQkAhoBBQCPwNAUUQ1KRQCCgEFAIKAYWAQuD3Jwja2tpgdGVkZKR0hv9mMgf+/79OAMmjIKampvD29v6h0x/sY6pUqeDj4xPTz39i7hIrY2NjwSkwMPCfqBK6urpSp4GBITw9PX6o3/9IgxKpxMDAQBKA+Pr6/ufz5d/o74++g2NrZGgETy/PH61K/f43QCClcUpERUchKCjou1rLtWVhYSHH4jw9PBEQGPBd9Wh+xP2FdXK/+t4TdTzHz/2UuX28vLwQFhaW5Dbx3exLQEBAzPu5h/Aztum/ljlJ7sh3PvjbWRDSpUuP+vXr48iRw3j79i3y5cuHihUrYtWqVTLwWbNmFcLw9OnT755Q34klcuXKhT/+aIbZs2fJhPreYm5ujrlz52HChPFwcnL6rmpIMooWKYrP3p/x+vVrwSJFihSoW7ce/Hx9cez4se+qN/aP9PX1Ub1adVSvXkOwHzN29D9GPDTvqVChIpyd30sffrSQIBUqVBjFixXD2nVrERIS8qNV/rK/5/hnzJgRJiYmePDgQZLaSXJbIH8BXLp8KWbja9e2HfLlz49BgwYmqQ7NQ40aNsahwwcRHq5yqHwTcAk8XLlSZbx6/eq794SktKNnj56IjIrEihUrkvL4357JmTMn6tSuC/69adNGnDt/7rvq0fwoR44caN68BVasWI5Pnz59V13VqlZDjZo1ERgQiI2bNuDly5dJrqd8ufJgG3bv2S3kgrKFn2XPngPrN6xHcPD3EakkN+A/fvC3IwjGxikxcsRIfHL9hC1bNmPokGFwc3PDgoXzYWhoiMaNm4AMb+PGDX/bnCggWOJifdxQ+bnmO82zmvFJClO0srISwnL58uW/sFTWxfo1Vo/Expz9qFevHk6ePClWBE3RWEuSkvqazHvY0OF4/fqVTG7+hsKiXdv28PLyxPYd25OEQ0Jttba2RscOHfHq9WtcuHBBFlB09P/lzWB7+Sc284/rs9j9+xrnxYsW4/Tp09h/YP/fmkJM49Iq4htnYlK6dGlUrlQF02dMS5KWxN98jXdc7+U7NW3XWLRiNzj295rPv55zsZ9nHexbUuYdf/f187o6ukLc0qVPh+XLlyU25eT7DBkyggJi1OiRMX0eOmQoSpQoicZNGsU5h+MbgyOHj6J5i2bw9/dP0rs1fYhrjcT3jvgqTuj5uDD/Fqxj7wtJHRu2M67xTzIw/3tw+fIV2L9/P47HQe7jmnOx11XsfU/zbFzrpETxEoiMisKtWzf/1rz45nDsNUjNmlr3xImTcPbMGRw8dPAv9eho6yAa0UlW3rinkrTeuHnjb3MpPky/HmPup4ULF0b9eg2wefMmMAlgUgrrqV27NgoVLCSEydXNVcYxY8ZMsLW1xZ07t/8mY+KaewmNTVLa8V8+89sRBNGMixYFNRsySgqpWbNniVl/3NjxyJQpk2xkHz444/iJ4yJkqRm1bNkKuXLmgqvrJ+zctROOjo4ySTt06AhrK2tYWlqKhk1iQZLBOvT09eDn64fw8DBs3LQR79+/j3OsOGkmT5os7/nw4QMWL1ksmjTraNKkCSpWqCT/vnvvLrZu3ZLgplmzRk1UqFgRximMMW36VLi4uMikLFq0GBo1bAQuGJryFy5aiI8fP8bZnvTp06NF8xYoV668CMFPnz7i/oMH2LVrJ9q364DMWTIjJDhYCMPChQvh+NJRzIK0LnCDCAwKxNq1a/H06ZN45yatJX1690XatGnh6+sjbZkwcQKCg4NRsGBBVK9WQ/ClFnvmzGkhKRUrVkLjRo2FKB09dhTnzp2Fgb4BpkyZiidPHiNvvnx4+PAhdu/ehdR2qdGlSxdwgrK/xH7Hzh24c+cO0qVLh+7deyCVeSo8e/5Mnvf09MTo0WPw+tUrFClaFJ+9PmPbtq144fhCzvDy+RRGRvD3DxBTY0IEgQuaRKJhg0biPnn85DHWrl0jwrpli5YoVKgQIiIisW7dWrx+8xr169VHyZKlEBkZAa/Pn2Uu8ZiwRSoLEdImpiaC9bmz57B7zy4R5rSM1KldR1w0xIcEKK19WrRs2RKGRoawtbHD+/dOmDFzhowBNZZmzZrBxtoaz549w7r16wTfHt17wNTUTN7p4+uD+fPnw9v7M+bNnSdrg5v1u3dO2Ld/Hy5fvhQnSeX8mj9vPoyMUiBDhgx4/vw5rly9jCNHjqBXz16oUqUK7t+/L+tj7969OH/hvMyX4cNHIKWxsZDYw0cO4+rVq4JztqxZUbx4CRkr9oFj/+bNmzjnEs9Z09pAnM3MTOU9TNIWEhqC8uXLo3btOvLd3Tt3cPDgQdSqVVvm65Url6U+KgMtWrSEu7ubaIZcbxkzZMRnb2/MnTsHHh4egk3rVm1A/cAha1aEhYZi2vRp0h9a/LI6ZEV4RBiWLFkilse4CrEZOGAgUlmkkrWtr6cv2I4YOVxw69+vPyytLBESHIJNmzfKPCaWxIOEPHOmzDhx4gSOHjuGBg0awCFLFmkD5xQz1dECd+jwoTgtLoULFUbbtm1BrFxd3UQ52r17N27cuA57e3v07tUHtDo+e/YUu3bvkj2DZdHCxbhx8zpKligFV1dXvHjxXDR7O7vUcHNzlRS6tMxRE+b87NihE1KnSY0bN26I9s/StElT2XMyZ86MFMbG2LNnj6zb/Pnyo2HDRrC1s0VoSAg2bNyAe/fuxRDaWTNn49KlizEEgUKae1ulSpVkX3329BmWLF0S7z0/XCPFixdHo0aNZf+bOXOGKIJcU+3bdxBlkMl7Prh8EOsC5yD7U6tmbVm7QDR27dqFCxcvSD/YXs4T7r8agtCxYyd4eXriwMED0i7icvDgAVmfAwcMQqpU5jAwNISHuzsWL14sBGH0qNGwsraWebp9+zaxQtaoXgOlS5cROWFtY4NTp04JiWM9lC98t9dnL3h6eODYsWOyZ/0u5bcjCASWgrhL566y0LgJcHPiQmPWJ5rhOAFPHD+Od07vhEQMHDgIOXPkFLcEN3feKzF33hwhFdOmTUemjJmwd99ehIaGiPlu8qQp2H9gHyqUryD/5yTZt28vrly5Ei9BoFDMnTu3bPwDBw4QHzcF9dw587BnLzfIt7Kh3Lt3V76Lr6RLmw45c+XC+HHj0aFje7x48UL6S0sJhT2FCRfsg4cPhIzEVbihOjg4CEYuH11w8cIFuLm7y6bATSBPntwikCpVrIwUxinQr19fWYiVK1XCqdOnZDOjkG3btk28WjY3JJKJqlWrwdHxBe7cvSOLhkKrSuUqGDhoEA4eOCCLQVdXT75bv249tm3fJouXv5s+fRrc3d1x6OBhHD16BE+fPZNNZM2a1fI7mvb69e0vdV+8eEFcSiQgGzdsEoJ37fpVlC1TTqwkO3fuxKpVq2Wj4AbNNri4fJR/z541B84f3uPSxUto06atzImECEKRIkXkvdywnZzewdraBjdv3ojZCLgJp0+fTkgQ3SpNm/4hQoMuHQoYA0MDBAUG4f79e+jduw/2798n/RwyZCi6de8KQwND9OzZE5cuXYKPry969+qNXr17QltLG5MmTRYi+fDBA/To0RP9B/SDn58fxo4ZJ4L/7t27QmBPnjopc5IWFvaZhKtF85bS37Nnz6JkiZKyHmxsrHHg4EG8e/dW2hCf1svN2M7WDvXrN8Dq1atk3lDQUChSSBOv7NmyI5WFBZYsWSyEt1KlyvDwcEfuXLmRxcEBC+bPh66eLsxMzTBjxgw5P813ch3G53KrUKECBg8aggMH9uPlq5cyP4k7ycXwYcNx9txZWYODBg7CsWNHkTJlSmkbLVYUal6eXpg1a5YI33z58ku7rl+/hpo1ayE0LBRDhw6BrY0tRowYAbrEKDS0dbRlPpJ016pZS3BkoQDg/TNxFb5r8aIlQoQpFDkfaImaOnUK3r57i3p168v6KlS4sODRtx/Jsz2mTZ0ua01bW0uEyJgxo0Etevr0GRgydLAQgv79B+DY0aMizOKyiJGM0XU6aNBgsU5ev3ZN3sm1sGL5SnE7cF6QUJEgkzxyr7h44ZLsHzt2bhchmyF9BlSqXFmEPC1FFHDZsmWX7zlvmXu/a9ducHN3w7hxYwWGAX+2jWRvzdo1sh4LFiiIfv37SnsyZcoMPz9f2VupjHBu04rI8jVBIMnp1asXLl66KG1Knz4D9u7dE68Liu3luFWuUkVcyhzHd+/eieY+e9Zs+ff169eFOC1dtkwIIxUcGc/9+6TeiPDwGBdHXARh6pSpcPn4UeYzFaosWRywZOli9O83ABYWqXDk6FHUqF4dYWHhImc4P4oUKYqKFSoIKZ8xc7rM6w7tOwgRoNJmkSoVsmbNhmXLl4o7s0njJli1epXIhuLFimPR4kUyP3+X8lsSBAonDgj938tXLMPRo0eFgVMAN/ujuWgVa9etkUnCz3Zs3ylM+fmLZzLpOMkmTpoojJQbsvfnz5i/YL4sTuafXrliFUaOGoHmzZrj5ctXsLdPg2vXr+PChfMJjisFCzd1DUHge8aNHYf3753x+PEjWcivXr5CRGTCt2NaWVnjwP4D6NipgywmCvzOnbsgtZ3dF63M+b1scNSE4yvUTEeNGo1Xr16K8CQW3ORoQfDz9xNTW4P6DdCiZUt07twJAwYMFI3zwQNqisYiYIjBq1ev4n0H+0eXxa3bN3Hu3BdfIzdokrSatWph1qyZMX7D/PnzCyvv2q2LaFzcsPft3SuY7NyxC506dYSvny/69O6DM2fPyEbIwg3w5MkT2LN3j/w/e/bsslFTWHAT5EYTHBKMLZs3Y9as2Vi2bKlouLVr1YZDVgcxyRKHsWPHSFtIQCg44yMI3JgosNOkSYNJkyfFECTOKX7u7uEueLLs3bMPCxctQMGChfDk8WNUrVpVhDP7UbNGLekHrQt0f1G7pdmd5OK9kxOqVKmKefPniXVky+atonFwwyOZJYmi9kVCtX3HDiFD1PBJUD29PJA7dx5ER0Vh9JjRmDN7Lm7euikWjgnjJ4qmyE2O48/NkiSVFq2kFBLlPn36YOiwoX9xMZQvXwG169QS0tWkaVOxUlAwkEBTq6QVia41Wk0uXrworzp96gwaNW4o5CahQoIwoP9AdOrcUZ7t1KmzWPRoUaL1Zdz4sTJunJ/2adLg9p07SGVuLhokBTw1+DGjx4p1qX279kIWSSBMTUyRLVs29O7TG5YWljLfaDnkvNKQJArUJk2aiub77u1bwTE+IsO1Q2F/6vRJFCxQCBcvXRDfOK0dz58/AzGysrSUecP51aVrZ7FcUNiQCNja2omwnT1nlownx40knxbNihUqYvmK5SL0Eipr16wTZYOWHZY8efKIlYAaMC2CHAe2nwSBexsJwoSJ43HmzBl5nvOTFhiOE3/H+V29WjUZMwpuFlpC6WKITRC4zlgnLXejR43B8BHDhOSSVJqZm4tljorRgIH9Y/rwNUEg+ejUqRM8vbzw/NkzUQC4JhJz01Ch69u3H8aPHxdDEEaNHIXDhw+LMjN79hzcvHkThw4dFIsWyeT69evEUhbb3J8oQWjRAlkyO4gwX7Z0mewjXL8k4/ny5hXrEgkC1xUJS4H8Bf9CEGrUqImWrVrImLRu1Rpbt22VWAxaNkkWSKJIkDZv2aIIQlI2o+99RoJEylcQH727m7tEp3JD5OL6QhCayeZBxkuhSI1j29bt4semkGYJCw/D7du3hYGPGzdeNmwuABYShBUrVmLw4EFikiKxSJ8unfjAzp8/L4uEmhRN3jR1xi5fEwS2lf4rbp5k2zRxrly1MtEgo68JAoUWXSd0rdD/xcW2YuVyESjxFQ1BYPt37NgeQxA0MQgUQvXq1gPNbLRUDBo4WC7lolbLwoVLEsIgx/hKfASBroQyZcpIsKbmtASFKIU/tQwxzY4YicOHDgmG27ZuQ8tWLaWNdFvQhMlAORYShFOnToqZmoVm1lkzZ4lrREOQaFp/7/Qey5Ytx8xZM0SbonDMlj0bDh06hOHDRmDosCGi3VSqWEm0nfgIAjeVvn36wsTUVNrPOcJCgsD2c9ypoRCfgwcOifDNlzefzC2a4k+dPi2Es1HjxmJqJFFZtGihECGxlBw7ipcvHVG2bDnZqMXisXGz9JnCi5shzaDXrl8DBcLBQwfw5MkTTBg/Adu3b48RuCRFjx49EiyuXr2GzVs2iZWB5GTevLn/Iwi1/0cQFiVpuX0hCH0FK03cBWMQ6D5p2KiBCLLmLVoI9iQ+9mntsX/fPmTOkkXwnjd/rqwRFhIExi0kZC3jcyQIFKIkw4xX4JrLlDGjWJMYDDZ58iTZmDt17IycuXKKpaBSxYryTm0tLUkHT2vB5s2bJR6GmiQtFogGgoKDRHhoLAjrN2wQv7Gm0BJHYU5rGzVcBlXSdB9XIUGYPHmKCOdiRYsKWSNB4PtpiqYwoL+dQrpO7dro1r2bEATO54GDBiB16jQYPGiwWC7pwiFBpMvQ2dlZXAYac3VCA8X5sG//XpnTLIULF8Gc2XOEiGsCbmnKJgHRWBBIyPk+FhKEalWrC2FdsnipKEnVq1cXzGiRYYmLINBNQwLGvpGM0WrGwL9MmTPLHqSvpyeX+rCftPKxzJw5C1cuXxbyolk/dEsynoDuMrpquMcmFqMSF0EYNmy4WJzYZr7nwf37siZHjRwtxIPr52tLDPfgli1aYeu2LeL+0fSVRIpaPYV65sxZsGr1SixftkLc1sSlQYOGKFigAJYuXZogQSBBate+rewFrdu0kT23Tp26+OD8AWvWrhbFplfP3kIclAUhSdvR9z3ERUcW++jxI9G66COlGXPBwgVCDJo2bYpsWbOLFkYTfECAP6ZNnSbMetOmTXI8xTyVuZgSNQSBk5qxByx/JwivkD5d+hiCULduXXRo31EW6br1a//Sia8JAskLA78+f/YSExN9rSQzFLxxlS/HGy1EC1mxfAWGDR+K58+ey0ZHXz6tJDxOOGbMGOzds0cWbXyFBIFmWRKkTZs3SxsoUOMiCC1aNhffOtu6afMm8aU5OGTF6dOnEhyk+AlCRZQuVVoWmUbA0nWyZMlSzJw1U5h92zZtMX/BPNEOd2zfES9BmDd3/pdndm4XNk4zMQUq20kyQ4xDQoJFc96wfuPfCML69etl/KklkXR06dIVkRGRCboY6P5o1bKlmC55goKWFW7kdCXQX716zSrYp7EX9wHjLmiViIsgnD51St5H7Z5WH1o+NAGAJGa0RJC0TJs6FePHjxeyQAGt2UQ0BOHG9RsYO3asWGmo6dHXyqOHJFdfCMJVEVSxCQLJKQUn5yT9ydwIEzuWRYIwavRozJ07V0zptBJQqDFIkdaA2ARh9OjRYt1iACSFTvPmzQV7DUE4d/Y8xo4bI1ri58+f4z1aRoJA0/nChQvw9s1bDB4yRAje7Vu3BF+6TGjFmjplmpAmugkpdGkZ4UkcCipq/jRX03r37OlT0SwZw0NSzX8znoUWBM4FuqtYxIRtayvWiuCQEAweNEjmGYVmXFptbIJAon41FkHIlTMncuTIKSZmEiVqmCTdGoIwYOAAWdOxCQL/P3PGLNF06VKLfXIkvkVHAuz07p0EGGvWwrq167Fhw3qJG6ArgnsE42JI8GhB6Nipo1gREyMIxJx9ZBtpQaBJnRadrl26wt3DAztjEQSOK03nfO7AgQNihqcwpOtBQxAYD0SX2Zat3Hs+y7plvISX12fky5dXhDmtUhqXxNd95vylpZjzl1ZPWni5BhnnExdBoGWOQp7WNZ5QCgsLhb6+gViiWCig6XK9fuO6BGBSNvTt0w92dnay9zf94w8wsHfO3DkYO2asxAzs2bMbjRs1gYlJSsybNw/ePt4yZ7g/MJZj5YoVEgNBpfRrgsD4J7aF1lTKJva5apVqEnehCML3yf4k/YpBboWLFJENhZse/Trt2rWTYC6al6hhMoiF53kZm0DfNoVrt27dZcHyHANNitwsaGqn2e+9s7NMBhY+Q/8gNZd69epLnRQG9+7fFbZMPxd9TnERBG4cDErSuBh4JJP1U8OIokZ+755YKuIzYzLWgIuBTDuNfRq4ubqJ9kizYkMy2UKFRDOilkjfJ4lRfIUbILX2Nm3aIIVRCol9oFClSdXH21uYfdUqVdGsWXMxh1I4MJAzi0MWeQfPvQ8ZMjjBMaEGxiAmHqO7eu2qPEvhX6pkKRkjBg9pNBsSli6du6BUqdLC7hlgRUHIdlJwcnOhBYFjR4GniaLm8506dhKNiEKQn5ctU1Y0FlpkWBe1BwrPOXPmimmQ5I9WDAZWcfGXLVsWbVq3EV8iN05q8EuXLY0hL193ki4daod0s3CjYhwCLQUkW+wDNSntP61DDJqj5v/HH3+IsCxTuiwuXb4oWjOF861bt+R5jreOrjZev3otgWkksgw4LFOmrGD99NlT2ZBJoug6o8+a40Vf68lTp4Sosc8kKIaGBvyJuE4Yj0JzK91OjKHp378//Pz8ReAQV5JSEhEG43F+E6OETsBYWVph8ODBsLC0lLgVzpFWLVuJL5WaKC0JtBxwA+ZGSUsLSURkZJSMHeeXZvOjuZdkir5yalPxHS0jQWC8BwNdAS0xuXNDpQAkaS1Xvhx0tHXFtTNnzhxxydCSQwJDbJYvWyaCmQKSViu6zczNU0FLWwtPnzzB7DmzheD17NkLu3ftEsVCQxBoxaFbgoWKw6TJE0X7jqtwTgwZPFTMzgUK5Mft23cEC7q+eNSNcRSci2w3hQ6tMOIKbd8REydNECtG127d5Dg23SCcS9wrLC0sxNWU0FrWtIdYcR6T0NCadO3aVelz2zbtJMaBe8zhw4fEykGisHvXHgweMijG7M85VK5cObGuMs6KONPNcvv2LdjY2Ip1TXNrH+c8LSK0VlKI06Rvl9oO/fr2E5JPkz2VMS1tbQkQpRtnytQpIsRZKBx79ugBbW0dnDx1Qsafa5b7K/cCjhf3h/jmI/cWCvy8efMJjmwDA1cnTZoouDH4nHvIyBGjJJiac5XrkjFGnHfc6Ol2YFAtixzxrlNX4ma4PidPmYx0adNi5MhREpQdHRUthHvVqpVCKElCNPOEa5tWABIckgwSKVoUSXy4vzAYlZYoWlAYp8F4LhInBodzrqZLnx7hYWHQ0dGV+B4S2t+l/JYxCN8DLgUXBTALmfH3Jt1I6N00MdNnRcGqIQFcDLRKUMD9SHIetp8aAjd+bkKJ+e6+ByPWzcXIvxnA+U+/g/Vyo2VfEvNNJ9Z+1kHtj7j6ByR+lI4aDMef2CW1UGhQuJCIxk7Mxc+o7SeUcIV9rVatOipXriwCm3XEPrLKNpiZmUu9gYEBScKafaD1gGbZXyGHA4kO28O+fW+h0OvZoxd69OgOPX19CfSLPe8oSOmSopk7qYUbPBP0JGa+Zn3c7Ck8uNn/SM4GtpHjw3mdlHXDtTxi+Ag5IkyhkdQj0HFhwLVAgUprXVL6nFQcE3uOY0MCnZgbSVMPhSpPHtEi+qPrP762cd1xTnIMiEVi+7xm3L7uA9c+5wbXbGJ1xNcW1sH2cGzpemjRooW4mBOK60oM83/7+2RDEH4msPRpN2rUSI6gkTkyGCopm8TPbJOq+79FgBsDtTNqeAxk02hW/22rfr23lyxZUrR4BkYmVdD8er34thbRvcAj2YydWbp0SaIxSd9Wu3r6V0GAlmvm7Pn82VuUO1p8eEPyt2Ry/K/7ogjCPzACZO/29mnh7+8nQWxJSWT0D7xWVfGLI8D4CB6Hotk8oRMnv3g3fmrzqKUxgO/N//zmP/Vlv0jltLzwmCDdJLRcKGXiFxmYf7gZtB4zVoYWLbqQKBt49PZ3Koog/E6jpdr6XQh8nTHu6//TRKs5EpVUcyJNqxrz4bds8HSxkCz8kyQydka5b806+F2A/qQfsR8UnnKGPSL+o8B8LnZGQzaHY6D5Pd0vSR1H/paY0c2Q1PTocWUg/EmQqGoVAv8pAoog/Kfwq5f/bAS4+deoUUPYO4MXubnzhAaz/fHoKs+n08zNs/Wubm64evVKgvc+0M9cokQJCQDV+TMV663btyVnQVIKNQomHuLpk++9YyP2e9gXZolkEO3lK5dFKDK6nEGPDG793Qr9wZ07dZb8AJp8Cl/3gcGRDJbUBBxrvmdUOoPMmNWOAZs81ZLUwuCzNq3bYs7c2YnGIdCvzPwLzI7IwLtvISJJbY96TiHwqyCgCMKvMhKqHT8FAQpRZlJkNP3ixYskSJJn7fk3k0LxFAfPUfNkSLq06XH7zi1JdhRXodWAJwl4zv3atWsI5a1w0dFYvWZ1zOOxtfmv66DLYfWqNWjfoV1MMNmPaPwkKzylwqOxc+bMloCx9es2SOQ+szh+T9Fo5z8q+BLCIb7v6G5YtnS5JCNi3EZchcK8TOkyctKCeTyY0fCTq6sc/6PVoX2HDhgxYrgcY/u6D/G9l3Xy1AmPo359bwjbENuxaJcPAAAgAElEQVRCxHnTvVt3ISNMm/tPWoK+Z7zUbxQCPxMBRRB+Jrqq7l8CASZT4Z0PPErJJC0jR46UPBJMzRsRyTSqc0Uw8Bw0s1zGF83OI7Q8s88jZjzeSMFBAU+TNpNnMUcG0zLz7gYma2H0MrP51a5VR/I1XL12Re4QYVIoasDMapcndx64uHxIMC99fCBSWDH3wcePLnJkjbEwq1auRtduXVGrZk05vst2so0dOnTA5UuXJcsg72/w9fOT1LvMSMmz4RR0TBhETZpaMtMPM2cAceHpD2bBY2IyHp1kLgYemYwrroJt4h0azGvPoEMmi+IxOh7/4rFaFvu0aUWw86gwsWYefN5XQjyz58guR5PjIwjsi1wBbGiEXbt2S4IlnnBgO3ksslTp0kIOTE1McOToEUmmw9/wqCuPvjLN8YaN60X754kdWhxy5cotxJDHVlmIIwkD+8rjbzx2yiN1LIzcZ64KJh/iMTpFEH6JJa4a8ZMQUAThJwGrqv11EOjXrz+KFS0mmc4olEuWKCFaNnMU8Pwyc7HTJM/cD/Ft+NTOme6aGdnGjRsn5/E1hYm0mAqYGf8oeJjnftq0qWLq5zloEghmtORZfOaMYApr5ifgqRdm+mvVurWc6+a58G8pJB3MEnrv/j1cOH9B0rzy6vM6dWvL5UEU7Ez8Q027cePG6D+gv5xrZ0ZAvo93EnwhPQPF9bJ0yVIcP3FCjusVKFBAcm2wPzxbTtM/E1MxIRQvQqJbRZMEK3abeQSUOSSYnZTnw3kenqZ7BmvxPhEKbV43XrlyFUmkxcQ3TJpDUmBqZibZBXklb3wEQfOubFmzgbcb1q1XJyZbJxMl8QIsniJialvm9GjVqiWYBpd5REiWaHngef9mzf8QosENkBYBZuqkwGdhEhzOE7qB2G4mPyKmHEcSIBIEXnxEgqMIwrfMWPXs74aAIgi/24ip9n4zAhQQTLbUq1dPuYb2xMkToiHzuBnv7uBVsIwuZprdEyeOx+lX1miOHu4ekrCJ2RtZSBzo98+fvwAWLV4o2fgOHzoiSbrevnkj8Q/MnkZhc/LEKcmCR+2TybboK+eZaN5AyDgCpqH+lkJ/PAnCk6dP5G4GxlaQpHTs2EEuWGJSnIULFoAEiQKdaZ75Xl44Q2sK78fgTYCjRo/ClMmTRdjNnjNHEv0wkRNTRDNug2l5mYVxzNgxcqFZQoUClNYCkgOa7pk9jnkgmIxmyOAhqFW7liRZYq5+JriytrKSS3J45wIFNu+l2LV7Z6IEgWSAaazrN6gnlhpaPSi4efMeCUKBAgUl3oP3BjDb6jsnJ0n+xMQ+zKzZpm1rSb7Ds/m8Y2H7jm1C1kiUaN2h5YdWEGPjFHKBFNvNhEh8D9/90tFRLsz6kfwF3zLW6lmFwH+BgCII/wXq6p3/KgI0FTNVL69nrl6jBkaN4tnkL3dMUCAwixyTmDCTIdPIau6PiN1I3o/Rr18/ycFP7TsqKlK+ZmAdLxiiYGJWPdbHOxeY3Y+Bj9SK6dvm5TaHDx8R/zgzq1HTpYWBaRGZ9Y+XBZF4MPOcubmZCEsKsIQEEC0GvOiIN0HyOebR//iRmQjni4Bjdj9aRkiE+BmP1W3atFmEGy0LTBHNrG/jJ4zDvr37cfrMaQQGBEoWOqajZppj3ujIOyeYeZKpzRMrjNGgxYIXZtHCQW2diYCYtZSpbSnQmVVw2vTpcj8KMwnS0kGLDi0XjKE4cHB/ogSBQj4qKhqjx4wS1wTPnDPhEq0ADNicOnWapPrlmAwYMAAfnJ3h4/PlFlWm4WV/OM68eZEEijfz0crzxZ3SWUgScSpeooQk92E6co3riTEQTLjFq8S/5QRLYtip7xUCvxoCiiD8aiOi2vOPI0Df+tIlyyQl7P4DByTtMK+0NkphJFkAGXvQslUr8S/TNRBXIhMG0PFuAGrqW7ZuRWREhGjCDFaj6yEwIECuKS5VqhRat26Dfn37ylW1vP51x44d4mdnitgGDetLdsW8efLJXR4U7Jq7PujTp4BiumBm32Tw49fZF2ODw4udmFa2b78+8rspk6diw8YNko6aab6XLF4i+eO3btkiKYLpp2d+fqZoZkY3pr5l2u2Nmzbi7Jlzkl6ccQcU7H6+fhKvQEyYspcmeQ2pSmiAFsxfgKDgYMGxWLFikp54xcoVkpI5LoIQGhIiue2nTpsKIyNDzJ+3ANu2b02QIFCLX7hgIc6cPYvdu3dJc+gqIslbt3YtHj56iP37Dsh9LExrzDTrtBjxcitmryRBePPmjfSNufJ5cRJjOJheWJNqnWmZefEP00CTDNDCQTJACwmz4jHJEd0vysXwjy9XVeEvhIAiCL/QYKim/BwEqA0yeI8bff8B/STNK83TvE6YWmE0ohEVGSVXYPOIXVyFgW7MmNmyZUsEBwWLsOCzzMXOa5AZoBgaGgZLSwvJlsYrdpnrv0Xz5ggMDJILX6xtbNC4cSPJY0/hTHLAPyQk1IRZSDpoGrfgFcUjhyeYGpoR//SF8yIbXnvNmxepCTNro52tHebPX4Bnz57JldRMnU3BSoJAlwQxCA8LF5LCXPO0NuTJk1usDHp6+iJ4eQyUl9zMmD5TNP+kFAb3MYc+T40wCJAWgq3btkkSse7deogmzjiF8eMnyMVO58+fk/gNmvoZQEi3BC9e4j0d8RVaRHi7Je8E0NzxwNgLava8J4JWj2NHj2HgwIFy6Q6xzpI5M3x8fSVYlVfBs/+894NWIxIiWg9oGeLpj+EjRkiaXd6FQusTrwDWWE/S2qdFh44d8eb1a7FO/Aopr5MyLuoZhcD3IKAIwvegpn7zWyHAOAEKzPCI8JhLcag9kjgwYp03zPGKZmrbCZn0KcSoYVJI8P4HClNG6jO5Dy+KoUDk+Xv+oWbJz3k9ON0FXywBWnKBCwU1LQRsE69t/uz1WWIHWEoUL4Ghw4Zhy5YtOHjwQILn8kkmKKDYBtZJQUctn++mi4FXavPyGV5+xULCMmzoMPTs1VMsG27ubnICgM8TD17Uw4uOePMnYyl4z4Wmz+xrUgrdBMTC0tIKH11cEBkVCX//ALG8mJmbSb0cD+KouTuAaWh5WRivFmd/mLAooTsF2FdeDhQ7qJSJjog3seAYcoyIqeYUBtvEvrC/tBqR4HHsSfxYNLn7+W7mxtDct8Er0ImphgjIbbDmtEKEJfnehaTgpp5RCPyKCCiC8CuOimpTskWARwHr128gMQyOji++GQcKvKlTpyJP7rwSjMncDxo/+cQJE4UIDBw08JvrVT9QCCgEkh8CiiAkvzFXPf7/GAEGSTLegZo6T0vETvxTqGAh0c4ZN6GKQkAhoBBIDAFFEBJDSH2vEFAIKAQUAgqBZIiAIgjJcNBVlxUCCgGFgEJAIZAYAoogJIaQ+l4hoBBQCCgEFALJEAFFEJLhoKsuKwQUAgoBhYBCIDEEFEFIDCH1vUJAIaAQUAgoBJIhAoogJMNBV11WCCgEFAIKAYVAYggogpAYQup7hYBCQCGgEFAIJEMEFEFIhoOuuqwQUAgoBBQCCoHEEFAEITGE1PcKAYWAQkAhoBBIhggogpAMB111WSGgEFAIKAQUAokhoAhCYgip7xUCCgGFgEJAIZAMEVAEIRkOuuqyQkAhoBBQCCgEEkNAEYTEEFLfKwQUAgoBhYBCIBki8MsSBN67nilTJujp6ccMS3BwEN68efPNw8Qb7kxMTKQuPz9fhIeHf3Md6gcKAYWAQkAhoBBITgj8sgTB2toG48eNh5WVVcx4vHr9CqNGjfzm8SHZqFO7LuzT2mP//n348OHDN9ehfqAQUAgoBBQCCoHkhMAvSxDSpEmDlStWwdn5PU6fOSNav4+PDy5evAAzMzPkz5df/ua994+fPEZISAgyZMiAXLlyiaXA29sbDx8+QEREBMqXL486deoiTeo0OHz4EB4+eogHDx6gUKFC0NHRxd27d8RakdI4JR49foTQ0FBUrlQZQUFBiIqKQiqLVLh9+zY8PDyQM2dOZMqUGWGhoXj+/Dk+uHwhG3ny5EHGDBkRHQ1p87Pnz6QeVRQCCgGFgEJAIfA7IvDLE4SXL1/i0OFDCAsLg5PTO7i7u6Nr126oVLEiAC0hAFu2bhHLQJ8+fVC+fAVERkRCX18fBw8ewLnz5zBzxizY2NiAlgSSjHv372HOnNmYPGkKDAwMMG78ODRu3BiZMmbE7Dmz4enpib179gkpiYyMgIGBIaZMnYKoyEgMHjwEevp6iIqMEhKwevVqmJmZYuiQYTAw0EdwcAhev36FFStX4OPHj7/jnFBtVggoBBQCCgGFAP51gmBra4fChQvD2NhYBPD58+dEaH9daEFYtXI1LCws5Lno6GghAnx++bIVuHXrFvYf2IeuXbohZcqUaPpHExQsWFCIgLm5ORrUb4CgoGD0H9AfRkaG6NGjJ7I6ZMWixQvx+PETMJ5h86YtMDA0wMCBA9C6VWs4ODgIWSAJuXjhEpydnbFgwXyxUtCaMHz4CHkHn0mbNi1at26N+fPnwdraGl06d8XuPbtx9MgRBAUHw8vLU37zdTE1NUWhQoXlN6ooBBQCCgGFgELgRxHwcHfH+Qvnf7Sav/3+XycIJUuWRL58+fHixQuEhobg4cOHCAwMjJMg0MVAq8GJkyeEJDg6OsLe3l4sAnQpBIcEw9DAUARx4yaNMHfOPOTNmxfBwcFIkSKFCPp27dvKbwcMGIgc2XNg5qwZePLkibxv65Zt/0cQWreBQ5YsMQTh/LkLuHz5MoYMHSzkxNLSEiuWr0C6dOnFfaGtrS1Winnz54JWjokTJonQDwgIwPETx7F58yZ57uvCdpGI0D2iikJAIaAQUAgoBH4EAQbglyxZCmPGjP6RauL87X9CEMxMzXDm7Je4gviKJgaBMQcLFy0UQsBSqGAhzJkzFw8ePsDVq1ego6MDbS1t3L17F6tXr8GdO7exd99esQhQqLdt11bcE3379EPhIoWxfPky3L9/H35+fli/bgPMzc0wbfo0NGrYWAIix40fK8SCBOHipYsYOnSIvJea//z585EhfUZs2LheSIiRkZFYMmhhYPwD4xOqVqkKS0srzJ07R36vikJAIaAQUAgoBH4WApRzPbr3xOQpk/7xV/x2BIHuA55usLdPC0fHFzA0NJQ4hAULFmDp0mUSGPj06VMUK1YMYWGhQhAozOly6Ny5C1xcPuDmzZvYum0runfvgXp164kFwM7ODm5urn+xIMQmCCQizZo1Q/t2HcT64ePjDXPzVNi5aweMjFJITASJRbZs2cV9QssCSYsqCgGFgEJAIaAQ+FkIJEuCkDKlCWrVqon3751x+/YtIQEsNO3TRF+ieAlY29gIIaDAPnPmNCpXriJafPCf8QLigggOxsFDB8VSYWdrh1KlS8PUxARubm7ir6FLoE7tOgiPiIC/nx/8A/xx8eIlBAUFigXivfN7nD17NmZcacqpUL4CMmbKJMGNrp8+4cLFizDQ10fZcuWkPrpNHj16jJs3b4i7QRWFgEJAIaAQUAj8LASSJUHQkAH6//nn68ITCRrrAUkCjyOSPPCzyMjIGPcFP9cUJkziHxbN53yehW6I2J+zrrjezd/zN7q6ukJCNMSF/6fLge8mMYn93p81MVS9CgGFgEJAIZC8EUi2BCF5D7vqvUJAIaAQUAgoBBJGQBEENUMUAgoBhYBCQCGgEPgbAoogqEmhEFAIKAQUAgoBhYAiCGoOKAQUAgoBhYBCQCGQOALKgpA4RuoJhYBCQCGgEFAIJDsEFEFIdkOuOqwQUAgoBBQCCoHEEVAEIXGM1BMKAYWAQkAhoBBIdggogpDshlx1WCGgEFAIKAQUAokjoAhC4hipJxQCCgGFgEJAIZDsEFAEIdkNueqwQkAhoBBQCCgEEkdAEYTEMVJPKAQUAgoBhYBCINkhoAhCshty1WGFgEJAIaAQUAgkjoAiCIljpJ5QCCgEFAIKAYVAskNAEYRkN+SqwwoBhYBCQCGgEEgcAUUQEsfoX32ioLk5cpua4qy7Oz6GhPyr7/7Rl+loaUEbQASv0f7RytTvFQL/MQLaBtrgRI4K+79r3f/jJqnXKwT+VQQUQfgKbmMdXVS2sUE+MzPs/+iCJ35+/6qwa5Y2HeqkTo3Zjo544OvzXZMhpa4uiltYwCU4GM/9/b+rjm/9kamuHtqmz4A0RoZY+uY1PgQHf2sV6nmFwHchYFvdFhZFLaClq4Wwz+Hwf+GPz9e9EO4b/l31WVe0QebumaGtow2/5354OuYJoqMV5f0uMNWPfmsEFEH4avgypEiB8blyo4CZOdY7vcPqt28QGBkJO0NDREZHQxta0NYCvMLCEBYVBVsDQ1Bf5vahp60Nr9BQhEZFQQuApYEBTHR1ER4VBe+wcARFRsRLNqh98x3ZU5ogrZERTosFIRimurqgwPcIC4OelhZMdPXgGxGOkMhIqdtS30B64B8RDp/wcHk2j4kpZufLj1Publj+5jX8IyLkz9eF76RgD4+OQmDEl7Zpa2nBWt9A2hocGQlLfX0Y6ejCLyIcn8PCpAojHR2Y6ekhKCISpnq6ALQQGhWJbpkyI61RCsx48VzaY6CjI79hPaooBH4WAtmHZkfapunw+eZn6JroImWWlHiz8jWcNjpBx1AH+lYG0NbRQphP2BfSEA3oW+hDJ4UOwn3C5fvIoAj5Ts9cH7kn5IZFcQs473BG0NtAOO90hrauNvQt9aFtqINI/wiEfg6VenRT6kLPXA8R/hHQNdWFFteCZyj0zPSgpaOFqNAoiCUCQPDHYGjra8OA7dHXRnRkNEJcQxAVHiX16KbQlZ2EbQ71CEVk0Jd1w2f5bn4eERCBUK9QIArSftbFEuYVhoigCGmTKgqBfwoBRRBiIUmhXszCAmNy5IS+tg5eBwRg7LMn8AgNxaRcueVJClV9bW0c/PQRV7y8MCp7ThjoaAt5oHA+6eaGcx7uINFokz6DCHQShuNurrjs5SlkIa5irqeHcTlzibB1DQnBLhdnvAkMRC07O5S3ssaCVy9F+NawtcW+jx/FOtAyfXohFCFRkXAKDMQulw8olsoCNe3sUMLSCp+Cg/HIz1fcFSfd3f72WhKM2napheyc9/SQtvGzIVmzS1tZb3VbO1jo60ubtn9wxgt/fxQ2T4V6adLANzxc+kmXwiYnJ7F8pDNKgR0fnFHS0lJIDEkW61dFIfCzENAQhEs1LsLI3ghF1hWF8zZnIQlp6qaBRXFL0PdFYe+y3wWBrwORoV0GmBdMhSCnQJhkN4XvI1+4n3ZD6vppkLpmaiEQHhc9EPg6AK+XvIZlKUvY1rSDvrk+Qt1D4bTFCQEv/GFVxgppGtqLoE+RzghR4dF4v8kJ6ZqlEzIR4R8OXWNdMm88nfAEKTIZI33L9NAx0OFSh+dlT3zc5wLritawrmADREVDP5U+vK55yTt09HVgU80W1uWshUSEuIXg5TxHIResxzSPmZAC3wc++LD7w3dbTX7W2Kh6f28EFEGINX66Wlqgib9e6jR4FxiI7CYmGPbkkQjFC+UrICAiAhc8PMR87xkaioEPH2JvyVLg76it5zE15frG4EcP0DpdejROmw47nJ3hHhqC14EBeODrK1aHuEoKHR3US2OPYqlSIWMKY0x5/gx3fLzRN4sDWqVLjza3byKniSl6ZM6CmY4vRJhPzJ0bd318cMXTExFR0bjh/RmpDQ1R2tIS7TNmwkMfHxxzc8UzPz888ff722tJaHpmziKE54qXp1gj7vn4YHmhQtjn4oI8pmbQ0dbCPR9vtE6XARc8PTDh2VNUtbHFkGzZhTSQeERFR+Ohr6+QGRIU7/BwGGlrY/Gb11IvyZMqCoGfhYCGIDyf+RzGaVMgfesMcNr0DoFvA+HQJytcT7oi3CcMGdpmxIcdziLwc0/NA7vqdiKI+Yffe9/2hnl+c2TqlhkpM6XEi5nPhQwEOQch25DsIpS973gjU6dM8LzkiUfDH8K+cVpkG5gNQe8C4XrCTYR1wCt/sUKEeoXB0NYQLvtckLFdRlxtdEUsHDaVbBAZEgXbqrZCRK41uoq0TdMifZsM8LzgCWMHY/n8at0rMLQ3RIF5BRHiHgLPCx4wtDfC21VvYFXOCll6OkjbtbS0kKpwKmmvx3mPnwWzqjcZIqAIQqxBp+l8fM5cyJbSRKwHRSwsMOflCxz69Anny1XAoz9jAsY/e4r+DtlECDe8fhU7i5cUAjDo4QO0Tp8BDVKnQatbN1HeygoDsmbDiwB/PPDxxWHXjxIPkJCwpHWCgrh+mjSJEgSvsFDMyVdA6nvg441Lnp447eGO0MgoZEtpjLVFiuHARxfMfukIyueoOGyPdFl0yJgJJSwsEB4VjYzGKbDyzRu0yZABx1xd0SCNvcQTnHV3E5cFXSA97t0VC8KgrNmw4u0bsaSwfhM9XXExNLJPK4ju+uCMGY4vhDyoohD4mQhoCAJdBFGhkfB77g+nDe9gVys10v2RDt73vBEdFiWWBNejn/Bk/BPknpwHdtXscO2PawhyCoKW9pdgRC1tLRRcXBCWJa1wpvhpREdEw7qCNXKOzYVXC1/C9Zgrim8rIc9db3YNqeumEYLwYuYLuB75JN00yWGCPFPySDtMc5ni0dCHKLqxGG53ugWj1EZI2zwddI10YGhnJIThSr3LsKthB5uqtnCc44jUtVPDtpotLla6IBaKrAOz4c3y1/h06BN0jGmViEDBZYWEzPg7+ktb6FYhcXi75u3PhFrVncwQUAQh1oCn0tfHnuIlYayrK35zmttPu7th2ONHOF++Au55+2DE44cYkT0nyllbocG1LwTBNSQYPe/dRaeMmdE0bVq0vHlD3BIVrK1QxcYWBc1T4fpnL8x/9VI+T6jQLdEwjf1fCUL6DGh76yZymZqiGy0IL56LNp/bxBTV7OxQ1tJKxP/cl4646OmBrClTYn2RYjj06SOmv3ge7+voUqmbOo0EF9oYGEifnYKCJJaChKZLxsyY89IRZz3cMSdvPmQ0Toke9+6gkHkqDHDIiskvnuGip6eQALpIemdxQBkrK4RGRoIWkVY3b8BduReS2Zby73dXQxCuNriCyOBIRIZEIiokCtmHfYlN+LDLWT6nIPV76ge3U27IPSUPbKvY4lzpsxInELsUXFoIVqWscLrIKSEINlVskWtcLryY/lwIQok9JSUmITZBeDjwATyveooFwSyvGfJOzwvfp34wy2OGh4MeoNiW4ng88hEydswklghaMqwr28h7rjW9Km2xKm8t76BVwq6WHS5WvCCWgmz9s+PVklf4eNAlJsag6PqiSJHBWPrC+An2TWMN+fdHQL3x/1cEFEGINbLUpKflzotN750klmB4jhzIZGyMulev4Fy58hKUd97DHUVTWYgw7XH/LvaUKCUm+lNuruICMNTRQZ8H91DIzBzhiIZfeDjapMsggY1Tnj+HS0jC0f1fE4Q26dKjb9asYvK3NzJClpQmQhA+hYQIEaCFooyFJZqlSy9xCkdcP8lzW4oWF8vGBicnsVzQxRFXoUtgWPbsMNDWkTiJjhkyiiVi3bu3GJw1u1goGI9AV8Qtb28MevRAXAz9HbIKibno9VeCwDiJvS4fxHriFBSIPvfvSxCkKgqBn4WAhiCcK3sOUSH/FxCboV1GcQfQxO991xsm2VIiOgJ4t+Et8kzNm2SCQIGfY3gOhAdGwOuyF7L0ziJE407n2zEuhiQRhNGPkLlrFglAdN7xXtwOZnnMcbXxlXgJgqGdIQqvKoKA1wFwO+km1onXS1/BrmZqZOqQCZ+OfYLvQx+xJrifcRcXiCoKgX8KAUUQYiFJ90AlG1usfPtajjc2tk8rQXrjnjzGluIlJOiOfnfGHJBEnPmTLBwpVUb+7xQcBENtHexx+SBCmnEMtCZQG2fsAj8//ifpYB1xFWrz/NMxY2bUtLPFpGfPcN/XBxn/DAIcnSOXnBrwCA2RGIcN798hJDIKvbJkge3/Tlc88PHBWqd3ErxIwtI1E10HVoiMjhI3wB4Xlzjfmz5FCnTKmAnBEZE46e6KQVmz46SbK7Z8cEYVaxs0sU8rQYq0fMx75Shko4ylFVqmS481797iro+3WC9obfkjbTppz0andxL8WN7aGrMcX0hcgyoKgZ+FQIa2GcSff7vT7b/kLNA21BaCYFnGCrpGumJFcD3uCqeN7+DQ20FOKtzu+NffsI0kA2b5zXGz9Q3R9hngyHiFtH+kk9MJYd5hcJz1Av7P/cUVkL5VBryc6wifhz6i4ad0SAmHPg4IeBMo/2ZQYZ7JefBi1gsR8PYN04J+uYjASOgY6eDhkAfi/khVyBzv1r+TGAW2+W63O1IfgyDpdqBbgicYHo14JH1hfEWqQqmgracldTnOfQGfu2qt/ax5lhzrVQQh1qgzB4KetpYcCaTmTGsA4xICwsNxomw53P78GXNfvRSTOiPz+czx0mXFLD/h2ROePJLPGUBooK0tRwRT6OgiIDIi5vP4JhnzLtgbGgkpIeEY+/QJ3gcHCWmwMjCAkbYOvMPD5Dseu+S7adanWyQiKgqeoWHyHk3RHGHU0oJYO+I7asjn6FJhn0heSET4bFBkpBx5TKWnJ0chPcNCY45Ksm/sV2BkREzQJduZQldXTnnwyKSutjZS6ujE1JUcF5fq87+DAP3yPAIY9jnsb8f8tPS0YGBpAD0LfYR/DpNjjXRB8EQAjw9S2H8dnqNrogdtfeZU+L/veGSRgYO6ZroI8/jfcUmeajLUkeOGjAvgcUUW5mNgbAHdE/x3hF+EHIVkjARdAbQKREdFy5FF1ss2sS38ExEYIXXy3+He4ZJ/QY5YWulLm9leaXMUoK2nDQNbg5jjmmwv36mKQuCfQkARhCQiuSh/QTzx88XKd2//Eng3N19+MfczviC+I4xJeQXjAOi6oCvigqenBBjyeKQqCgGFgEJAIaAQ+C8QUPr34KEAACAASURBVAQhiahnNjYWrdotJOQvCgdjFHh08WNw8A/lKOEJAZrpWRetAdTOVVEIKAQUAgoBhcB/hYAiCP8V8v/ge/X09BDBTIj/8ZFCnT+PibJE/uTMiTz3zZKU/urr6yNMnaT4y2wjfknBLr4pqqurC+IaFRUl2PJvVb4NAWLIMfjRtfItayGxFrIuruF/ol2Jveuf+D6pa/ufwIh7LP9wvDjnv2X9/Fv74j+B6dd1KIKQBFRtbW1RpUpVnD59Cm5ubrBjdsPy5XH+/Hm4u7sjVapUMDIywsePzAnw7/oA06ZNi4EDBmHS5Inw9v7vIpi54VWtUhX29mmxa/dO+Pr6JgHZb3+Ei71YsWIoWqQo9u7bK5izcLOwt7eX8QgMDJTPzM3NMWvmLAwbPgyfP3/+9pf94C+sra1hYmKKN29eJ6kmMzMz8DevXr1K0vPf81CmTJnQvFkLrF27Bm5xZNdMSp2NGjZG69at8enTJ6xYsRwPHz1Mys/+9WfKlSsnAu/SpUuysbPvOXPmxMWLF+Hv74/s2bLj9ZvXQq7/7dKhQwe4u7njxMkTP/R+roWCBQth3769Mve/t3AP69e3H7JkccCOndtx4sQJhId/+10W6dOlR3hEuMyNn1kMDAwwf/4CTJ40CS4f4w7A1ry/QIECaNr0D0ybNhUBAXGf5kqorXxXxw6dULVqVTx+8hirVq2Es7NzkrtXt05dWFpaYdfuXQiM5zRZkiv7lx9UBCEJgHOTmT5tumyoq1atQscOHWFja4PJkyeDgrF2rTrInDkzli1fKhNQwzAptAwMDBEZGYGQkJAYTYsTTktLG9raXxg7vyM7pfDjH25Y/Dw4ODhB7SxFihSwsbFBo4aNsGr1Ktn0WPhbfqetrS1tYf1xERe+i23k5hl7k9SX+x2i5TNDQ0Ppo6Ye1s/fsQ/UHNm/6Ogo2UwaNmyELJmzYPmKZUIQ+NugoCB5N99jaGCIqOgo6Vd8mzLbrPmdZmi+fGaE4OAgeW++fPmQ1SErTp0+JZsisePmP2zoMGzeshm3bt2Sd5Ag7Ni+E+3at4Ofn6/0ISH2/0VL0Ieuro70hzhqfsM+E1PNZ8RUgwXJoUa70Iwz+9CpU2dp64ABA2LmQHzjwH5Vq1odjRs3Ru8+vRAVGYWg4C/Yse4vc0ZLyI9GY+dnX8ZbF3p6X8ZIM2b8nP/mbzkn+Rv+O0OGDKhSuYpsVl5eXjJHpG5oyThzc9fMFz7PfvC9/IyYsD3EoVSpUrLprlmzBjdv3kjCKvr3Hylbtiz69e2PESOHw8PDE9OnT8eD+/exdt1awWLN6rWYMHEC3r93QmhoqPSPfeV4Chbh4TKPWDTzUoNvZGQUQkNDZF7zOz7Lf/N7zW/i6jHnD+uvUaOGCNHr16/HWBFkjRgays+4bhIjLhy3/PnzI3OmzDh56mQMCdasf/aF/UpozvMZY2NjVKpUWebexg0b8PTZU7i6usbMO7aHdbAuTeFviBHbqJkvbPvkSVPg7fMZCxYs+MueER8W/A3byz0o9l7BdrF+fhcbC/aZOPHz7dt2oGevHnjz5k28k4vP5syZCxUrVsTKlSukLo4X9zgaIjV7W+y+acaBc53Pc+2kTJkSFStWQskSJWWv1ZB+tp9t14y/3MURFhozj/gurhMba2ssX74cvn6+0n72g7/7Wi7wc75Xs97i61jsecp62H6ORWzrHt/Dz2P37VtXoSIISUSsUKFC6NSxE144OiJ9+vTYvn0bnjx5gqZNmqJAgYKwsLDAtevX8PDhQ9y5c1sWOjVqu9SpZcO4desmnj17JoNYvVp1pE6TBjo8DfDn4rx44QIKFS4kpMHM1BSenp7Q09fD2bNn8e7du3hb2LhRE1hZW8lEY3soCDhBSpUshTx580JHWwefPn0ULUVDHmJXxkVeongJfPz0Ec+fP48RRtwsKFC9vX1QqmRJGBunRECgPw4dOiRtMzU1lcWir6cHG1tbWRynTp5E8RIlhCCs37AO2bPnQOrUqXHgwH7ZECuUr4A0adIgPDwCV69dwf379+PsFydk3Tr1sG371piJnS5dOmHvmzZtQuHChVGwYEFpB/GhkMuRIwdq1ayFChUq4u69u3j96jWOHz8mZGTP7r2yoFOZp8In1084e/ZMvJYW1luyRCno6GojOCgYBoaGeP78GS5fviwEhOPJXcXLyxPnz50X3Chwq1evAQN9fQQGBck4c8zKl6+AunXqIHXqNDhw8ADeOznh/IXzcWpl3BSKFy+BmjVrIl/efNi3fx98vL1x+Mhh2aT5HQmonq4uHjx8ECNUqCHb2aaGiYkJTM1M8dHFBa9fv0ap0qVF4HMzsrKykrHh77Jnzy6WL26uW7duhY+PD2i1oIZDYsRNMCAwADt2bBfsqZ0WKljoy/0gbq44deok/Py+pOwmVl26dMX69et/WYLAzXlA/4FIY58GN67fQJmyZTBlymTYWNuA67lly1YxJPP27dt49uypWBVKliolQpNk7OjRI2I1JI41a9REWHg47Gxt4ePri9u3b6FEiRJImdIEnh4eMDE1QVhoGDZu2hivcKeVq1LFSrCwtMS1q1dx5+4dWb9cU/w8Xfr0IpCuXbuKu3fvxrv2uc65dvPmyytEg9ZMjidLmTJlpH+s5+XLV7hy5XK8mrOBvgGaNW+GvHnyIVOmjGI5IGkhSWB/ufYojNw93MUSQywcsjigRs2a8jkVgWvXrkn/K1WujObNmiEoKBiXL18SS9ily5fixSJv3rxiCeT+EP7nvsg+c0/lvMuYMZPsoVZWlrhz5y4uXrwghJ/7CPfUAH9/tGrVCt17dI+XIHCek6AXLVpU1tHatWtlL7a2tkG1atWEKLBO7iW0wHDOc/8pU7qM9DsyKgrnzp2VffsLrmWF2LEeDUGoX78+XD644Pad2/I91yj7bJ/GHtWrV5d3ZMueXfBZsmSJnGWvUrkqbO1spS03b97EixfPhTDUq1tPLA2RUZEiQzj+8ZFEWhpr164j85Tt5tzlHCZuZcuUhX+AP2xtbOHE4/hnTn+X5YR9VgQhiQTBOIUx2rRti8aNGssGum37NmHIlStXQfFixUE3xMmTJ/Dq9Su8ePECLVu0RLny5WVwMmTICD1dPaxctUKY+ehRo4VUnDhxHAGBgXj9+pVsZFyYnMx0FZC5XrhwHseOH4vXbVG+XHlkyZIFtWvXloXi4eEBKytrTJs6Tcy+r169lPdeuXpFBOnXhQKhQ/sO+OTqigsXLsDU1ATu7h6YMWNGjFCMiozE8xcv0KhRIyEyFLZ0sVBbp/Xg7LkzQmwePXyIAgULioB7+dJRNBsKRppzuaibN2+B8+fPISQ0FK6un3DlypU4kSfRWrpkKcZPGC/CiDjUqF5DhN6AAf2RO1du1KpdG7a2Nli0aJFsDhTSZcuWQ4MGDXDp4kUhOzdu3ICOrg4OHjiEY8eOwsXFBcWKFceatWtkY4+rNGvWHE2bNsXRo0dRv159EXzcWLZs2YJevXohICAQd+/eQZGiRfHS0RGbNm/CwAEDkTdfPmzdskUIBYU0zZAF8hdAo8aNkTFDBqxbt06sTyRFcS14fT195MyVSzYfaiirV6+SBX39xnWULFlSLET3HzxAeFgYGjduglGjRuLJ0yfo3au3bBIkEs7v38PM3FyETZHCRf6nZWnj/Xtn2WQHDR4kOBFLEqkhQwbD+YMz0qROg1mzZsPF5YNsSNR2Jk+ZhMePHwuZsLSwFKg4x7Zs2YoTJ4//NgSBDSVJXbVytbR52vRpIixJtrJlzYY+ffpi166dMv+5ZsPCQtGrV2/4+/nB8eVLlCtbDm/fvsGixYtESx89erRo6RcvXUJ01BdLGOc11x2F3abNG9G2TTs0b9EcvvFc1U6iUahQYTSo30AE4vYd24U05sqVC0OHDMO5c+fkt27u7vJ9fIXCj+8kOaWQW7JkMT58+CCPb960BQ8e3Mez58+EkF+/fi1elx/nXsVKFVG0aDHkyJ5D3AsU0iS5rVu1RlBwMAwM9EVoX7p0Gfv378OokaOQxt5e/k0hTiLA50lKOnfqLHva0SNH8MHlgyhM8cVZlCpVGhnSZxDLIBUKCs1x48bKHKcA5zo0NTFB6dJl0Kt3T1kLnL/Xb9xAtmzZUL5cOXTu0jlBgkCXSZ3atVGhYkW0bdtGSFTWrFkxftwEEcwvX71Cs2bNMHLkCKmnSeMmKFKkqCgx2lraskY0e1VcBGHWzNm4/+Ce7BE9e/SEUYoUMhYD+g8Qd+GdO3dQsVIlvHd6jwUL5qNBw4Yyr6ioUOkgyeKemj59BowfN17IJeUK1+O9e/fijZ/iWqYS4u/vJ25dzk/KF7p4+vbtJ4oZ5xUJ7IqVK3HvXvxkMyERqAhCEgkCWW6b1m3QqlVr2cBpoqUZiEy+Xr36yOrggPkL5gubIxvctHGzCHYKCytLK6RObYcxY8fIRjRyxEjROiZOmiCDyAW+YP5C2Zj/+KOZmM0Zhufq5iYDnVAQGAnCzBkzYwgCB3TihEmyydy6dVs04OcvvlgHvi5se4sWLWFlaSkEIl/+/Fi+fBnGjR2Pbdu2ipWA8QQ02dN9UK1qNTF/c5MbNHCwTHKaNjUuhIYNG6Jli1bQ0dHGmrVrsXfvHlkAXFh0y1C7f/L4MW7cvBEvo+XGt2zpcly+cgmmJqZ49fo1ypYpAycnJ6xctVIYOUlZlSqVsWLFipjNgZrZuLHjxHxMoqVhv7t27hYzJLWE3r374PSpU7h85XK8BIHa17x5czFm9BisW79O3nXmzBkRxsOGD8X79+9Rq1Yt0aw53m3btJWFSjL07t1bPHjwIEbL7tatmzzXrXu3JM2yatWqo0WLFujQob08/8X32RFVqlbFs6dPRXslKdyxYwdWrV4pbSpcuIiY0KlFkvBRC6E/We9/rqPTp09jwvjx+KPZH1Jnrly50a9fP/HdagjCxImTcPzEcZlr8+bOx9VrV4UE03dLbYraLS03165fx4wZ038rgkDCybVIojd48KC/xEvQRD18xLAYKx0tZ31698a7d07w+uwlmy3N0L1695J/kyAsXboUN2/dlHlIoVqrZk3RAkmsSLpWr16DLl07JxoPMHToMCGTO3bukD2AwnnkyFFi6SHZvnHzZrwkI/ZkoruI82/FyuUxBGHN6jVCWjheJKXOzu8TDSTlHsa5NXTYEBHoXLckiIULFYapqZkI5EuXLsr66tO7r5CBI0cOC5F68uRxTNwPY36I3cyZMxN9JwU13UCp7VLDwsJSSP+QoUOE9JDYLV26RPbXFctXSBxR1arVxPW2ecsm2YPWrlmHrt26JOhiIFZUHnr37o1u3brGEIS+ffrJHKfVl66mrVu3iDWH+xrHYM+e3dJ+jQuC9SSVIDC+h3vY0mVLhZzR8sw1SSKwaOFiGb6nT58IgbCxscXkKZNlfk6eNFmUxidPn+LhwwcJziHOa5IlKp+s2z6tPVauXCmWzM6du6B9h3YiY4YOHQruAbSofk9RBCGJqOXJkwe9evaGh6cHjAyNZIN++fKlmGuFIGR1wPz5XwgCfbT0fXPTvXP7tpiVuOhoqqJmOHzYcISGhmHe/Lnydg4wJ86o0SPRvFlzeHp5Sb0UamTpNCGTaX/2/hyzCWia/TVB4O9oSqa2nC1rVmkLJ6qjo+PfespNoFy58mLapiapb6CP48ePo0D+/OLL56ZH1wWZLM3ZFIY9evYQsxOF0569e2QD0vjJmzRpglo1a4t5iybA0WPGiFZGAUNWTgypWVODZ5viK1xQpWkm19KGk9M7EWrjx48Ts2eCBGHcODH/xSYIO7bvQKvWrYSJc2OjyZAmwLgKLQjFixfHwoULMGbMWCGCNBNeunhJzOkkGtRA6GqgVsPx09XVE+2Kbg4GwNGKtHPnTqn+C0EojG7duyZpln1NEEhKqZHRMnH1ypUvG64W4ObmLmSEY2BmZo6FixYIKSGhaNSoMVKZm0NXT0985NTC5s2bjyZNGsdLEMaOHYfDR2hpOYY5s+eKEOUGOWP6TNy5e1usCW1atxV31aTJk/5CEDZsWC/Wml+xcH6TFBYsUBD3798Tdw+DeWmVYvmaIHAd0Fpz6PBhuLu5CdZ0M1CjpoZGAc7NXGNe5hrjXCDhpLl7xIjhoHDu2q2rrF0KOa4V7hNfxyV8TRC4TosUKYK8f7qY8ufLL0RzydIvwiShEhdB4DorWqQYcubKKfvO4sWLxIKWUPmaIFAAU2k5dPggPn1yRZUqVYSEUvhxv6L275Ali2j++w/sx8GDByVuiQSBVpYZM2ckSBA4Nj179hIl4NLli2L5JPYkuyQCxINzi/vZ6lWrMW7cOCHKtK7u3LlDBPfBAwcF64RiEOIjCN26dsfWbVvEarZ61Rrs279XiN7gQUPitdzGRRBmzpglwpz7Ja1PlA10sZIgcK7RgtK+XXuZCyRXK5avFGL16NGjGLng+MJR4hYk4LRAIWTPnk3cBTt37YxXkaKFukSJkrJOOR61atWWvZq4tG3bDq3btBICMnjwECF2hw8fTmwqxfm9IghJhG3q1GkIDAgUYtCndx94ff6MZcuWygKsV6+eCL45c+eIKY+Tf8GChfBw98C06VPl/xwsTm5uFCQIwcEhWLBw/t8IAoUUtfnYBIGLc9jQ4RJLMHPmjL+0+GuCQJMf//A99LVy8yc7Pnf+XJw9pWbQv98AmKcyF1M8I9z5LLV/LmD6JOnqGDVqFFIam2DQ4IHiYujVsxd279kji0NDEGgapFbA344YPgK3bt8WYUvNlgyZbWrfvgPy58snFo/4Cl0S48ePx8mTJ0UA0l3RrPkfgm18BIHxDZMmTsbOXTukzSyc3CQILVu1FC3tmwjC6LFYveYLQWB91Cy4OZ49d1Ywsra2EtOznV1qOUmhr68nVhZuBHPmzJZ5Qe2fv6ePNymFGmyXzl3QomVzeZxzgBaePLlzS9AX4wC4GRBvEhUSBCOjLwQwIMA/ToJw5MhRIa4JE4SxsoHQnaUhCAcPHhDSSg2b4zZ+/AS4fvqEiZMmStty5sgp84MbFGMrfsVCITls2DAh3lxTK1eswvYd22II3NYt27B4ySJcvfrFlM+4CpqJqYlRm+RmSzMwyTVja74QhEkxAukvBKFlKxFuGoJAEtKtW3fUqV0HXbp2EXdf7PI1QWBAGdcJCUmbNm2lLX369E5UC4+LIPBkE62Q9O+3adNG5ilJzrcQBBLepUuWoWGjBtIu7ll0Na5Zs1qEuZubq8SvdO3aTdpMEsI5Ty2Ya7b/gH4JHuEk+aWrgvE9p8+cFsssLZS0YAhBMEqBDRu/EIRVq1Zj6NAhKF2qtPjYGQQtlrPhI9C5S6fvJwhbt4hVU0MQLl+6jL59+4pbhZZUumcsLFKJW5iF400XJIkLSTPL2DHj4PXZU+Kj6G4MDgmRPW/JkqUSN3HgwAH06N5TrKoLFy3EpEmThXzOnDVT1jH3KK5lYsx1xs8Y+8G4BWId18kUypPhw0aIIsZ20i3ZvXsPeT5ugnAJhw8f+q4lqghCEmBjBGz7dh1kc2S8QLGixWTxT58xTfxveXLnwdBhwyRKnwNB9wMZ+JTJU8UPzrSqn1w/Yt68ecLk6Z/iZFi+Yrm8nS6GGTNmYtKkSRJJTAbOCcVN7ciRI2LmpqmIQWI03cUuDg5ZJTq7x/9iENKlTYcRI0aKsKBQpqmRpCK+I21mpmYSZa9516JFi2Wxnzl7RgRewwYNxW9OK8C48WPFmsB4C2q2Bw4eFPOihiDQvM0FvG7dWmTKnEkimsmiaQHp0rmrECROOC4wmuTjKyQtdHOQlefLmxeZMmUWYsI+cYHRZcPgHB8fbzGfrd+wXjSO1q3aiB/f04sR69Nk4dEMSZMvCQI3M8Yo0KwYV6EGw42H5tohQ4Zi06aNqFSpkixympPJ2hk/QZKyes1qCdrihsj2MnaDm8n6DRvETMiS8U/zH4liSGiIBHJxMWtOP8T1fpLISRMnidmR84rCiNhx8TMwLCQkWI5N0jVFDYRkgqc7SFwYXEgh8//Yuwo4K4uv/Wx377JswCa7S3cpKg0qYNAhjTTSHYJS0t0poXSrgHR3LyywXWx3x/d/znLXlW9LQUR4xx8/4d73zjtzZuac5+RwDRiLoKmhIVrJsWPHMXPGDAwbPkx8yrX+ZyExNzNDRESkpFwx1mP0qNECgpgVwj3L+AYGbdFP6+DogNSUVAmCPHf2LObMnSNDJ0MjU2dwKK1qQ4d+87cDoYpxBP/yI9wPBL4xsTHCOCU4uFlzcZksXLRAGC/PIa02dLUQ6BCQEpBxH/A8cD24vydPmQxHR0cBiXPnzcl1SdDtUv+jBhIrQsExbdpULFm8BEOHDZXzzf326SefiovpRYDAGB7yApWLoUKFiqIlx8XGCghkvMfuPbsKnDf3/8wZs+Qscq7c63yegcTbt22XgFmef7r06JrLLwYpb+cff/yJWO0YA0BBz/7pbuL+41y43lRQtm7dgilTvhXgFBMdIwGGBNI8C2y0XvDc05LKuCZ+V1AdEmrW1Hxp/WI/cfFxQkO6Nvnv7du35wjWRUswefIk4ZMDBgwQ0zmVIO73b4YOKTCQm8Hk3bp2R/n/AWzSlGeXwp4AkIrKrl07xZ3A/mlBO3bsGCpWqCixKXw/+Q21eMapsJGn07pJzZ3xFdzzVN5oWWYQONfh9JnTojgyXoIZNIlJiSCPZdDmihUrRBGb/v10yTwi36TLkhZAKkED+g+UIFDSmvxRFTiZ3yaQ9w4cJEqomZmp0HDTpk0CqDp06CB7jryWcyHvUfGkv3qQFIBQDIqRSDxsKiTJReDB5KbgH1U0LM1lRHUUhDQHc1MymIRmaKZS8ZDy8LE/fq+qW8D+KBQiIsLlQKp8gPw/++dhtbK0EiFA0yUbNy+fZZQuN+2gwYOkP/ZFbZrvTUlJFUBTWH0Ejp3+LApQagLUgDlOakBEo4zm5Vx9fHxFa2Dj5zysHJsqhYaoluMhncisuPnt7ewlVY8MhgzF1MRUMgkY0FRYgRgefNJIlSrJ93HeHCujg1nPXtU4BhXzy4l6tpL0UR40CgXSgqZRjofrwXmpTMwvLj1BEPsgvcgMOA/Snu8gk6O/z87OVjIF2H+OBmApNKI25evjA/8A/z/FezANlcyGNOAciioqRLryD9eD+410Il0poMhofP38hNFxbpwP6c5xsl/VGqgKs3B8XFOOgeMlTTkWVSNwZQ4550rXl+pZAgIKVvqeaREikIiL41qn/EnQkDbmZuZiKqWwK2puxThqr+wR7kOVdqYCZTwzXK/o6ChZD+4n7lEGGhBsksmqznaZMm5yHpnvzs/ZH+nENVTVByAtKRTYF/cOwTita6S16vwbGRpJtgv3jypVlutJC9yt27cEfHItOTaeEY6Z+5l7rLA6BKqxq2uo59KM+4B/ePYZk8NxsR9V5klhxKVQ0tc3QFie2hjM/PEoWxbh4WHSL8fJM8kx5mQZ6MDHx0fOV961534jXbifSK+CasPQHO/q6ipKFHkC/02wyX3F+alqqZAnEdDx/QRtnF9AQKBkDNCqVhCdyEeoTNB1qmrsg33xjJEu3BtcM+5//uEa8VwxkJX90j2Ul18YGhiKkGfjnidv4hw43uioaFEGyD/YD9eTgD4yIkL4oEou8MxwDpy3n58/oqIiBexQobC0yrHOMOaqsPREvo9jJK1JO85LNX6eW7oDuZcZZMx3/536D5yjAhBeGUt6vR0xzoCWDUcHJzGxrVu/9qWrsr3eGShvUyjwblGAIIMZDB98UE/ABiPfaap+3cXV3i2qK7N9GQooAOFlqPcv/pZaPbW7jPQMSeujxqc0hQIKBd5cClCjo9mbFidqsdS+X6aIzZs7U2VkbwsFFIDwhq+kqqIYh0kzXn6meT6TVwuh+elVmHvZD/t9WQ1HVSHyVYzpTV6ud2Web/Ia/NNje/Gsvar35T3nPOP/1FlRVS18VeN+Xf28Kp72usb7trxHAQhv+ErShz5o4GDxUTE/nRkCeRtNlQyeY6AefWr0nzETgsGNzH/+u439sFgJgxLzS5Esbr80q7JYB/21DAL7pxoZLH1yjDRmWo+qaMw/9b4X++X7GdlfoWIF7Nu3r9ALouiD5h/VPRKva4zKe4pHgZw4nChJ0c3buMaMSGemjCoWqHg9Fv0UfdIMUqMAZ3AuCx0VBsyd/1fSvGRJawlAUz3HYktk6MwMyO+35BXt2uWUx37RckGffE5lzpJikWRlQFWRMqb/McX632qcE2usHD50WGKYlPb6KKAAhNdH67/1JglecXSUqNvYmFjM/iGnUI2q0dXAaGzmHTMIRtL9vvteUm2YS/13G4OcyAwPHzkkTOjvNgZfEbAYGhgUWvvg7/av+p0I6LJlJeODecZF5Ua/7Pte/D01HBZ9adSwsWS3FBQIyd8xHbRZ06aSw620N48CS5cslaI2L54f7jFmmSxdtjQ3YPlVjZ4AulKlylIoi1UImfpXmBWBefwVK1aQ4GQ2jo2XFzFw7sVUaNUYmR/P1MeRo0b8CSAwwHb9uvUS6BbMgMPMLCxZulj6ZN5+j549pLLfv9UY4d+je0/J3vk3Ll37t+b9JrxXAQjFXAUnRycpscv0MaZFkXkwup2pQYxgpkaYEJ8guf+MfqYmy+wAAwN90SavX7su6JcaAguiuDi7Ij0jTQoNMVK2KJPiyJEjoaGu+SeAwKI+LLPJ9DeWaGXUcl6AwAhmHi5GsD548EACo5iux0I6FKDUEgq6WIYAgek7LMjD38fFx0upZAo+auos5kLwwqhjAghGLJMOrLDGok6MDmZ+PKOfWfyJqYosXUw6sVDR39GeWdI6Kztb7jtQ3VHACGtWp2TQJlOsaEVheVMyEt5y5+BQWtJP5d4BU1NcvnxJIoQL0s5YrITz4zr5ePtIpDm1LaaBMaKd7+FcbDACNwAAIABJREFUWSGN0eY8QKxAxxKrfA81wYIAAjMkWFmxRYsWUvyJaZQsikVtkelV9qVKidbKfcWMD1ap5Jqxytzdu3ckqrply1ZiIWF0MrU+pjtyLiw/zepsqrrxxdzWb/VjKqsSAwO5ng/u35diW8zTr1a1KnR0c7IaWIyLe5hgm0Ka6XfUwvk5q5CSplxXpstx/x458ouUuGWjpY3pjtbWJaXePvc214nWJEbH864VRuXzTgcCeEadM01OX09PUuBYxlcl9JiBM2TwEOmDJdoL4wmsS2BhaYm5c+dIWhyF+9w58zB8xDDZPzyfLIfMOZBXcc/OnDlL7k+hRYB3SfA88mwTEPF7FsFSZe7w/PKeGYL7Ll06SwZVcRrPgpq6uigE3J+sM8CUXfITghO223dyysDze/JJZiuwEm1gUJDsbbpYmCVRo3p1uU+FlRatS5bEjBnTpe5HjRrVZd1YBpsFhchfyfd4KRPLkVOh4vyYFk4exRo1ds9rQ7DUtuoiN2aA8c4Srjsvb9p/YF++d9YUZ95v6zMKQCjmyrK8Lu8BoLBgCdoDBw9KzQNW0qJAofmfaSqs2EYT4dix4wQInDl9RhgFDypL97Ka26KFi8QFkJWVKcLtzNkzhebHc4j5AQTmEHPzk0H1H9BPAp9UAGHz5k2Sn890LdYdiIqKlsI62chGcFCwAAcyrYOHDubLiHigWfiDAurGzZtyMQyZFufG2gAVyleU9DdWVPv9xHHJwWVO/GeffS7CjKmdvLeAdKFW1OLTliLYWbeB5soxY0YXk/J/PMb+We1u9JjRIphJY1ZO5Hso2Hl/glWJElLHgRXMWFyqTp3awqDs7UsJ8+MlKNu2b8tXw6dA+f776TlV9KAm91ywRCmBzo+bfxQmeu36dXi4u0u56J9++gkseMP1pRBhjXWaZwsCCBQUUrmy+cdwcXHGwYOHJE2LDLx///7CGAkg7t27K+lR1CJZ85/Ah8WQCH727zsg9yqwBDBrc5D2TH8k6ODn//Q1u3950f7FHzAgkPU06CJLT0+Tc7Jg4QLZ76NGjpbaIFyvBvUbYOPGDfD28Ubduu/hyy++kD3PUsg3b92UUuMEB3SVsRQ6K2QSOKvKr1PQeHk9Rv36H+HAwQPYvXu3gAyeDe636jVq4NbNW/hhzmx4eJQVcznTKrnW3JusLcG1/ysAgfetsMXGxUkKNIUlgdCAgQPwdZ8+Asj9/H1RuXIVyZYguGd11+SUZFFKWHxr3/794oZcumSZlOZluhxBPgUo9zpLtvN+luEjhhc7Q4p1R4yMDOX8paWn4caNm1LEi5U4eU8NL4cij5o3f66kAbJ4GZ/lO0lj1kHQ1NJEv779pZ4JBT4LiB08eEBqPHTr1g3q6hpyeVSjhg0xf8F8AVmsN9GjR0+xdLA8O++YoMBn0SWCu8CAALmDhHdfsP4BeTgtrwQXPLtMDWTNhtftmvwXj0exXq0AhGKRCaDPj0V7DI2MUL9+fdEmWZeeRUFY+4CFeRo3biI3stENwBKv1DZYfpWFlSg4WTqVmiFr37O4DbV43ralqhtQ2FDyAwh8nmh5/rwFUpmQOcw8fGQeROWlSpXGt1OnyAGk6b1nz55SFpf+U4IXag9E5flZEQgQWK+cmjLBTJOmTaWADCukUVsig6F2xHsSiL5ZTphFeho1aiSxBpwbGQKZMS+04biWLFksRVBYsIeVEf9qY4W4qVOnST18CuUmjRtjxswZOXdXqKkJSOC7WKhJBRAMjQylEiQL5Ny5exdlPTykYEl+PlX2QasMx0qhS4ZLAbFzxw5s3LhJCqawvDTXkpHoLK7DYkIsuUxBwwIlZVzdinQxsIT1x82bo2evnkIC0ppVCVmohcWPWNjH1tYO9vZ2ksfOmzlZl/4PgDBcmBqtGiyYknPh0g9yR4DS/qAAY3N4C+jQYcMEILDSZs6NnicwauQoWSeCM1ZGpYbJC3u4X1kml1cDc+3zNu4PFjDiZVnMQKCWy0u8KHxZppoXmvGypm7du6JLly6inbKgFisj8gbXdu3bilWR/IC8gYCFBZI++7yVKB5/BSAs/l9BJvINVjykYLcwN8eJkycFDPFOEu5VXz9fuRSKtf0pYDdu2CSCmReosdAbL6Wi9swLvz7+pLkIaBaOunDhvJQrX716DY4fPyY3dhanSXGjbT8JqN60eVNugTUqGrzYjQoV3RktWrSUMsdUqAhgps/4Xs4veSmrkLKYl4uzs1SApADftHGzXEREyw+rLbLiK8EdK5XevHVLFAKWgafFkBcleT32EqsN75Ho2bOXXNBFRYxF6AguhnwzWHg4rSNbtvwoc6VFku8qrD5LcWjwtj2jAIRirCg3L8us0kz55PFjufyDAub7778TgUW/H2/qoobRvl0H8QH2HzAAvAmRleqoAXbr2k38mix+w0MrRTSMjaXGPkvcFnaHfK4FQUMz97Ic1bDzAwisoU/0zZsEly1fLpcq8aZDavE8/NQOqIJS2+SNcfmlWlFo0eLAEry8DZLMgzTgnQgEQjQPsgpY9WrVhLGRKfJCm0aNG8Pezk4YD+uzU/vOG4NAgECmqir9S5rycLKsaWZmRqGrweIrvKksKTFRfkOAw9vPSLuCAAL75xxZR53mTtblZ6UzXijzYqPWPmP6dGH+LHrD2ykpiHf8/DPWr98gQpgleGnJcHN3k3sOqImych5NzjSvcn5FxSDkBxD69+svLgVWqFy1ehXMzMxRpUplPHz4SG7tI0Cg6ZgWBJqR6VpgOV4KOha46dCxfZFWqGJs9bfqEQrBMq5lpAIozf6s5kmGx7ia4cNHYNLEiWI1IKj99JMWGDV6pAiI4gIEXg3Nd7AsNSvo0eK0csUqAb+0mvH2T7qRGHNCYda2XRvRdGlx8Hz4UO5KoZXhk08/fg4QLAWUF8fFsGHDxpwSvQaG8lteBsdKjKwEScshK+fR9USBTKtXYkICZs2ajTZtW/PKBLm8iHubvIzVMtu3byd8itUfWfWPYJXv4AVUdE8WpzEGiLcb8gIllQuRLpvhw4bJPqY7kOeR8Tos505+RHDP8te8zXDC+PGYOm2qgHwqGLyHhlUTV69aLTyVlTB5MynHk3NFtomUemdl1JwqhKFS+ZD0oDuvY4eOMj/e/cLPaB0JDX0mF9CxPD7TxNesWaPENRSyuApAKMbOZ6AdUeyKlSuk9OqI4SPEBM2gGaJeIs+p076VuusssTlr9iwpcckqXmQ679V9T24AZC1uCh4eEPoN+ZmdrT1WrFxe5O1vNJ8RDNAElxfl5gcQaCanFs2yy7zpbf6CeaL1MxaAwYtkiqra76rqkC+SgQCBpUKpRTFzgtYDou4FCxeia9euOHnihNwWN2nSJPEREiBQgKtKlNJEqKeniwkTJ7wAEBpIiVAVQOD11p07dcHefXsF6Rd0/znHR+ZCc2Pv3r3FQkKzsCqKuyCAQFqTgdDSQbNxYQCBriJeUNOnT2+p1sggTVZGVAEEmoh5uYsKINB0S1qTyfA6VQZS0fpQFEDghUq8VrZT5465FgSWUz529Ch69eot2pIAhMqVBQjwquvFixfLtbu8uphWnAD/APTq1UtKtjIu4uEjT8yZk1MGWWk5FGjTpi3atG4tZneeUbr27t67Jxo0y0ur1pOClRruxIkTxILA68b37NmL478fK9SCQBcGTeQE0NTQ+/Xt93x/9pILwnIBwpetRZPt2u0rAceBAYHi5uLzdBOqAAK1XvINxpIQfBZ2FnhLKav2HTl8RPgI456mT5+OiRMnwcjYKNeFxxiJsGdh6PLVV1I2ndYKujlYfZVaPu9yoBWqZasWEtcyaPBgnDp1Sirx8V6OL1t/UWgl1rwEYnwMrYO8KEhV3ZCWSoKeVatWyvXT5Du0nhAY8CKh06dOyf0mtCqQf9Li2a9fP9y8eUtoSsHPWyXHjh0jVhkqY3Tv0iLEs0YLGwX/0KHDcOL333ODO8X989VXEqNFay3BNZ+n5Zd07datu9SQ4cVKBZWCVs6RUkmxWHuAwodmfAYYsSARTWM0TfKeAdaup4bHUsoU+nv37hVhN2HCRDFr0/xHNEszJJkCg/gYgcwDyMAbXuhBQVNY1DsHSa1jxvSZcrB4ZzvfT7TPUrE0M/IyFh40+vl5E6EAAW9vOThkeoxJoBmOt8XRX0nAQPcB67Tn11QxCLytjYCC19HSD37+3DnxwTKWgJo7U8Jo+ualKS1btJRguajISAkY4sE8fOSwWFUMDXOyGOjvFYBATQYQM/n48eMxf948iYcojCnyebcybuDFWdRQaC5lwCGtCVO/nQZbO1sxt+fc4X5OmENGeroAmeIABDKazZt+FBBHBkfAsGv3rj8Awg+zxQrBMfPGtWXLlslasqLlU++nKFe2nASAFQUQWJqVde6pUd27f18YISPMVQCBFgSaornmNMvSakJrFN1bvICLV+I6lC6Nj+rXl/sdyOB4SRD96/TTKi2HAhREPJ/0o7PseM5dHtOkVC4tPzyX3NvOTk6YMWMGrl67Kr8bMWKkWIN4dnk7J/cwzfC0NDBugOZqAseFCxeIgOctptwz3JsE47z0h75yWrh+3PIjWj8HCHQxELTQ3UA3H7UzWtqaf9xMNFzyGbpFPv/iC7kYjvyFAjC/tm/vfvj4+mDD+vVyl8qhw4fFkkGXBe/ekCye/91myffQYjZt6jTR0uljJ9A8deq0aO4cAy0m5Gsssc0y5bwYjIoO79oIDAxAVla28BDG3PDOgoKCJ3kxloG+gdxdoWoU1IwVIojlmGxKlsSFixfFkkkgwNglBhVznWiFmztvrghv3pJJvkKrDK+sZxwEAQStC4yboLWPSgLdQuXKlxMAxr5oLWDLcRfWkTgDWlPV1dRl3oOHDBarCoNBr1y9KlaKogLE3+XzpFgQirn6ZNj0GSYlJkmADA80D9usmbMRGxcjN8IRpVJQU3AyzoAaL69PzshIF02QDIMgggGCvAWQaJbaQnHqZFMTpvCzsLQQ1wDfRQFGRK5qZAZkVNRsiLQJOngYKMQ5VgoSag9ly3rIu2liLChtiP0ScTMynwKN7gReA8yDR5cCg3wYfMTPaeak348BjYzGJwMmY2McQM7zlkILjpsxGOyX0eSsY05ze+dOnTF5yiTRzotq/A3Bi+quAh5u0obvfbEuPS0tNLPyHgETE+Mc+hsYyjjSM9LzfRWDSGnVCAkOzl1nYf5ubkJD9kHtXl9fT0AK381YBdaI9/TMMX3yuaJ8mYxhYCQ2Az25VhT80THRElvB8XGe1CjZF02h/EPTqoGBoYBRCj/SQHXbG0EiafEyNSuKov1/8Xvuf55b1vknuCNtCdIJurZt3QpTUzMJciXAU2W2qFJmGehG+vIuBe5ZCnNV4/knUOD6c20oyAgoeM5z7lYpIevB35PJcl3JG7huvAKcQaai/ZoYy7qqhBTXnYKcYPXxY68cd2A+jTUPmEVDIcrYHO5RuhwERLu5ScovLRi0eHIM/IzP8pwQDKgCA/k8x0qa0PXA8XO+DOq1sDCX88tG2jC4mbyvoMa7SrifX6wRwTVgrAHBAWlGWrPxzHA9yC8Z4xUXFyu/5dwZP5CRmSlxVeRjPAfkSQQaVE4YSMwME9XzpDGtoXldtaQlLazMGOK59fJ69Bwg6UiwOLNKYpUKtIUeawUgvCTXo+ZKbYKBZXkb/fVMFZo/f95LvuHt/Tm1i5YtW4ovcceOHcIglKZQ4J+mAP3i1F4ZWEyAqzSFAgoF8qeAAhBecmcwCIamMaYO5W0MPmLQHbMGlJY/Bah9qW6vpKb0siWdFTorFCgOBai50qpAq19xbjosTp/KMwoF3kYKKADhbVxVZU4KBRQKKBRQKKBQ4CUpoACElySg8nOFAgoFFAooFFAo8DZSQAEIb+OqKnNSKKBQQKGAQgGFAi9JAQUgvCQBlZ8rFFAooFBAoYBCgbeRAgpAeBtXVZmTQgGFAgoFFAooFHhJCigA4SUJqPxcoYBCAYUCCgUUCryNFFAAwtu4qsqcFAooFFAooFBAocBLUkABCC9JQOXnCgUUCigUUCigUOBtpIACEN7GVVXmpFBAoYBCAYUCCgVekgIKQHhJAio/VyigUEChgEIBhQJvIwUUgPA2rqoyJ4UCCgUUCigUUCjwkhRQAMJLElD5uUIBhQIKBRQKKBR4GymgAIT/yKpaWenIFbEREWlyP7vSFAooFHi3KaCmpg4NTUOoqWkiIz0O2dkZ7zZBlNm/cgooAOEFkmpoqMHCQhtmptoICk5GQsKbceiGfuMKLW0NrFz5FPHxGShTxhCuroa4eCESMbHpMguOvXJlE9jb6wuY8PKKh6dn/CvfNEqHCgXeNApoaZlAz6A01KCGlOQQpKVFIjs7K99hGhq7w9DQBVBTR0L8EyTEPfzTc5pahjA1qwpNTSOkp8cgMvwigH8elFPQq6trISsrDdnZmUWSWEPTANY2zaGtY4mQgD1ITQ0v8jeFPUAamphWQnJKMJISfAqk30u9RPnxf4oCCkB4YbkIDrp3d0T1ambYssUPx46HIT09f0bzOld68eIq0NXRwJixdxEdnYbOnUqjfftSGDXqNh55JchQtLXV0bu3Exo2LCEA5+ef/bF6jc/rHKbyLoUCr50Curol4ew2EIbGHlBDFuJiH8Lv6TokJfnnOxYb+89ha/859PRtEOi/G75PVv/pOQeXXrAr9TlSU6OQEOcJrwez//GryNXU1GBqXhMlSjZGkP8uJMR7FUlHTS1jlHb6Crp6NvB5vALJSUFF/qawBwic3MqORFjo7wgO2CNARWnvNgUUgPDC+ru7G2L2rEpwcjLE/v1BmDvPC3Fx6aKRm5pqw8lRH5lZgI9PAuLicqwLxsaacHYypEICX99ExMSkIzsbsLHRRcmSukiIz0BAYDJSUnK0Ajs7Pfk8IyMLQUEpiIykxpAtn9nZ6iEzKxshISkID0+Fjo46HB0NYG2tg9SUTFy/EYO0tCwBAj26O2LY8FtIS8uWZ4ODk2WMdeuaY/Lk8vj5J38sWPg4d4a6uupwcjKAoaEmgoKSERyc8m7vfmX2bwUFXN2HopRTJzz2nI/0tBjo6tkiMvwsEuIfQ11dBwaGzlBX1xbAkJ4WLZYBY9NyKFd5OkKDjuDJw/lCB3UNHejoWqNshSkwt6iJOzeGIzU1ErHRtwq1IGhpm0FP3x5qahryzsyMRLFO6OiWgK6uNdJTo5CUFAC6BLS0zaGhoZvzdy0TxMc9EteArn4p2Nh+ArvSbeH9eIW8MzHhKUcFPT1baOtYICs7A0kJ3sjISJR3GRi5QFvLFJmZKTnvzUyGhoYOdPXtkZWRAgIIWlJSU2hZyH7+mzLQUNdGclIg0tKi5XO6KQwNnWW8zm79ERp0GP4+WxSA8FacjpebhAIQ8tBPXV0NDepbYdKkckhLz0J0VBqGDrslwtrFxRCzZlYU0z7b4cMh+H66J4yNtTB3biVUrGAin58+HY6p0x6IIF4wv7J8n5yciW3b/LBpsx883I2xcGEV6OpqIDMzG7v3BGLFiqcoVUoPq1ZWh76+pnx+7Hgo5s9/LKBhxfJqItQfPIjDoME3ERWVJgChZw8nJCVlwNJSB0+eJOCHOY9w5UoUatUyx6KFVbBjR0AuQDAx0cKoke5o1qwkNDUhc5o56yHOno14uR2k/FqhwL9MgXKVpsLGvhUe3J4s2m9mZhIANRHE5SpNg1XJhjLC+DgvPLo3HXGx92Bg6IIqtZbjWfBvuQDB2KQC3MqNgYlZJRHg1KBjo2/jxuXeBZrbaZIvU3Y4jE0riwCOibqOG5f7wMKqHjwqjBfAQcH94M4URIWfg6Nrb5S0awV1NQ1o65ghwG8nnj5ciMo1lsDUvAodheJeyMpKx7nfGwjwqFZ7LTQ09EAtJTriCu7eGg01qKNu/UPQ1NRHZMRFPH4wB0mJfjAyKYfqtdchIzMJ2tqmAjLu3xqPhARvlK80HSVsmogbJj7uIR49mCmuhGq118PY1APp6YkCGGh9UQDCv7yp35DXKwAhz0LQRN/3a2d88IElfHwSUbWqGcZPuItr16IxflxZNG5cAj//HIAnTxNgoK+BX397hq/7OKFDh9LYvTsQN2/FwNREC5cuR2HN6hrQ01PHhg2+qF7dDFWqmGLgoJto28YeLVvaYt16b3lHbGw6bt+ORZ/eTujd2xnrN/jg3r1YpKZm4datGAlIdHMzwqSJZcVSMHDgDUQ+Bwi9eznj3LkI3L2X83uObeWqpzLuvACBwOfzz20xcKArLlyIxNUrkfjmGzfcuh2DKVPuvzFxFm/ImVCG8R+jgIlpZbiVHwtDI2ckJ4Ug0HcbQoN/gb1DexHIPo9XIzXlGcpWmobQ4MN4ePdb6Bs4/T+AoKGpD339UvCoMBEmZpVx/VJvpKfHIjkpANra5gIaVC0rK0O+c3DuhtKOXfD00VIkJDwWoBAW8ivcy48TgBLovweOzt2hb1AaF09/hlJOnVHS9hME+P6EEjaNxNpx/mQz6Os7wNr2Y3F9+D5dj7iYu4iNuS1afQmbpkhJChbhbmXdAFfPd0Jigg/MLevArnQbec+j+7OQlOgLgpwadTcgIvw8UlNCYWP3Ge7eHClWggpVpiMk6AgS4x/D3qGD0IjWhbIVJyLQbwdSUp7BybWPuCsUgPAfOwT/0HAVgJCHsAYGmliyuArs7PQREpIMd3cjrFnjjfUbfLFzRx3Ex2di7Lg7CAtLBX2GdAts2lgTBoaaGDbsNgICkuRzWgP27H5PLAfU7I1NNCUmYMiQm7C108Ogga7iOvD2TsSBg8FidWDMw4gR7jAw0ICfXyKO/BKKY8eeSUAi26ZNNaGjrfEngNCrp5OAjmfPUrBmdXUBC3QpVKxgjEWLqmLnzgDMX/AYmprqGDjABV26lIa3TyISEzJhZ6cLz4fx+O67B+LiUJpCgf8yBahpl7T9GBZW70Pf0Bnej5bAwMhVQEJUxGXRyg2N3RAeegJeD34QgV2l5go8CzmKJw/n/WnqVWoshWWJD/H7r9WQnZUByxIfgG4MTU2D3OdSU8Pw2HMh7Bza5gpoghBaLgyNyqBS9QUIDT4C3ydr4F5+POxKt8alM1+KpcPI2AOPHsyCi9sQWFi9hzPHPhBrhY39F2Lif3B7EqIiLok2b1WyEZxcekNNXQsaGvoSN3HjUh9ER12DlrapxF5w7l73Z+cChKq1VsLnyUqkp8ejjMcIPLgzCVbWDWFbqhViom4hKysVunp2iI68LMDBxu5TXDzdClpaZihfZQaC/HcoAOG/fBhe4dgVgJCHmPT1b95cCxERqQgOSkb58sYixHv1viYC2MREG7NmeyLAPxl6+hoIDEzGvLmV4OZuhBkzPPHoUby4CAgcfv6pjsQo7D8QLLEG5mba2LY9QIKhK1UygYuLAT78yApxsemYPuOhuAr4OWMfPvzAEuoaapg5wxNejxMk+HD5sqrQ1tbA6NF3EPosBV26OKBnD0eJkXj6NAFz51TC0aPPsHjxYwE2K1ZUx6nTYZg9+5G4LBjU2K2bo3z2+HEC9PQ0kJSYiZ27ApGY+GZkarzCfa109Q5RwNS8BjIzEpCcHAwz8xoinP19NtHJAHvHjiLsqE0z9iA1JQwhQfuho1sS1eusQ1ysp1gUaNKnK4DtRYCgp18K5ha1JMNA1TIykhATfRMOzt1hZOKBR/dnIinRHwyYJBipUHW2uCd8n66DW7lRIqAvnv4cdqW/BIMBve7Pgos7AUI9nDlW7zlA+Byu7oPFGhAZcQEZ6fGgsNfTLw0/740wNimLknYtcOvqQMRG3xT3haNLH+jq2+LJwwXiTjA0LCO/8X6yQn7v6jECnncmw8SsChycuyIk8JDEK2hpGSGRLgnjsnB06Y7b14aIG6VcxW/h7/ujAhDeofNT2FQVgJCHOq1a2WL4MDds2OiDUyfDMXRoGXENfNn6Iho0sMKQwWXg55ckWQTU8les9Mb771lg8uRykhL5LDRFhDfdCv36uqBJE2tcvRqF9PRsMEBw4aLH8jyBQEJiJqpUNkVEZCpmzXqIypVM8P77loiOSUfFiibIysyWGAGmMtauZY66dS1AV8GNG9E4czYc9nb66NixlMQS0ALAGIlVq59i545AWFppY926mtDTVceVq9G4eCECz8JSMWK4m4zl6dNEGBppIMA/CStXeYulQ2kKBf6rFHAvPwFGxm4CEHR0rGBg5IynDxchJTUcHuUnSIBgSmIAtHWtkBDnBe/HK0XYV6+7XiwJEWHnEB/7QIQiEfyLACGHLmr/jzx0OTAjwsV9kPSblhYlNQke3Z8uwMHappnEPZiaVUZs9B08uDsFji498wUImZmpksFAawODKZMT/fHw/vfg3Cyt6iEq4oJYRoxNyuHG5a9FmJdyaC+ZG4xDoEsiPOwsEuIe5QsQmPpZpeYypKSEIjH+KbS1zRD27ASSEwNQtdYKAQsZ6bEwNasiQZKKi+G/ehpe7bgVgJCHnvXqWcLF2QAnToQhMChZgv0qVzLFwUPBSEzMxAf1LFGjhpn84tTpcJw/HwEtLXUR7HXqmENLUw0XL0bJdwwqbNSoBMqWNYa6GsS6QLeBk5M+GjEN0Uxb6hfQvXDzZowEPzZrWhIWltryrvPnInDlak7AYflyxlLjgI3ZEffvxyI9IxvlyhkjMjIVFSqY4rFXPH47GipgQVUPoXZtC7FY3L0bi+s3ouHhYSRzKF3aAOHhKbh4MRLnL0SKhUFpCgX+qxSgSd/Suj709e2h0uyjIi4iKzMVxqaVYGn1PphpkJYaKQF9MVHXZKqGRu6wsv5QzPdJCb7ik+eBsbFrCX1DRzz1WgYUUEtBRSstLVNxExibVZbgv+jIKyJ4CVQYL8B6C6xPEBJ0CGmpETCzqAltHStEhJ2BhVUdiT3webJGMhnYl5llbRgYOgkc8Xm6XjLpuTx1AAAgAElEQVQYbOxaSIYFrR90CYQGHYSmpjGsSjaQdxK8ZCML8bEPERd7F7b2nyEq8orMnxaKsGfHBQgwgLGEdSNoauXUdwgLOS5WB1o3TC1qSJwGsjMQE31HsiiKU4vhv7pnlHEXjwIKQMhDJ01NNYkhoEuAgpiCln8yMrIlWJB/JyBgY20ElWClZk83ABt/y+fZ2B/9/zzCGZnZ8h3719JSE2sA+6RGz//z36rP+W5V/+yD3+VtfF41Pv6d7+BY8tZrYFqmaqz8jn9Un7FP/pvjVMBB8Q6K8tSbTAGeEU3JIsjmf1kZfwg3NTWoq2lLgCEFHgVx3gJKOW6DHAHL34mtgH0hJ4uhOI3vJcgQAJ/FFOcci1xO4SO6HLNy++KzTIHku9TUNf7fe6QvPgM8/w3npiUZDDlghbFPz8eppvmn4fE92ciEuprW8zHwzPP9f8yZaZ858VPkcTmf545f+idv4XeKVbE4a/+2P6MAhLd9hZX5KRRQKKBQQKGAQoG/QQEFIPwNoik/USigUEChgEIBhQJvOwUUgPAXVlhHRweGhoaIj49HWlrxzI9/ofu36lFLS0vwz8OHf65z/29NUktLCzY2toiJiUZcXNzfHoajoyOSk5Px7BlT2v79ZmxsDOsS1nj8JKdipp6eHhwcHGFsZISwsDD4B/gjK6vgUuHa2tooXbo0IiMjER3Nyno5TV1dHXZ29rApWRIJiYnw9fVBUhILEP13mq6uLgwNjaCh8Uf9guTkFMTH82KjNy/uRoMuB3W6/+gKeX3jq1ChIvT19RAbG4unT58iI6N4WU3cIzzj2to6CA4OKnSfvepdw3eXL1ceXo+9kJqa+kq75xkqWbKknJ/ERBaPenebAhCKufYaGhqoVasWmjZpij179+Lu3TvF/OW7+VjTps3QpEljjBo16o0ggKmpKTp26IhLly/h5s2bf2tM9N0OGfINAgL8sWfPnr/Vx6v+UeXKlfHF51/g26nfStdmZmb48MOPUP+j+nj46CE2btxQKAO1siqBfv364eTJkzh37mzu8HL2e23Z79o6zIpZC29v71c9/H+0vypVqqBJk6YC6tk0NTVx5/Yd7Nq9U4Twm9bKlCkDm5I2uHrtqoDQ19XatWsPtzJuEpuwYOF8JCTk3O1SVCO45Dm3srLCtm1bX7mgLuz9BH+LFi7GtO+mIijo5e6gePE9pUqVRrt27XDw4AF4eRV9J0ZRdPovf68AhGKuHpnM11/3RauWrbBu/Trs3MnKY4XfZWBiYgJzc3NB5BEREbmHnui3RAnWadcVrY0WCWp51Aap6fKg6usbICIiXLQ2fmZtbQ11NXWER4Tn9kOGV9K6JDQ0NaR/ol0eWiMjI2GAFIrUCvJqhvlNl/3z3WRKfA/7oUZJLYYCh/NgP/yMjQibn2tqaiEhIR5RUVHyOefFz/k9BVTLli3RvkN7+Y5j4mYj2qf2zflyngYGhhKEqa+vDx1tHTwLe1YgXUlLzo/vIU21tbQR+iw05+/a2kJTRnWTRqq14dyoDXD9OrTviKPHjuL8+XPybtUaREVxDQq3KrAfCtOyZcvi2bNQ3Lt3T+bFfqhFkUZcq8jIKKSmFrwvOE4zM3MYGRkKIw4NDQWFsYmxCZKSk3LHbWlhibT0dCQmJuSuQUpyCoJDgmVd+F4jI2OULl0KdnZ2+O2333KFIMfS9+u+yMzKwqJFC6VPed7QCOYWFsjKypQ14FrY2tpiypRvceLE77h48SJiYmJkP7KRZo0aNkLjJk2wdOlSPHzomTtnrifHHJ8QLxaZwqwUxTxir/wxWlYcHB2hra0l+2v4sBE4fOQwli1bKkG+JUpYwUDfAJFRkbK/2bg+PDc8A/w9/x8WHiZ7jvuPz8fExgidCms562MEC3MLpKSmICQkRNaZ54PrwbXP4QPWiIyMkGcbN24Md3cP7N69W85+eHi4rDUtlzyX/DvXTWW95Oc8P4xfNDAwkHPIM8z9yHfwTMdExyAhMUF+y33Bz/h38gSVdsxzWaN6DTRv/jG+nTollxaFzY/7Rk9XDx9+9CEsLa2wZMlieae5uQVMTXL2BfkF9wXnzDNK+nHs1MxVAE3FF/g558bPafUhTyAfIY/kGVFZCTh+rg//vWnjZgwY2F+AK5/jPEhTPp+eni5047rTMkP6cJ1V4Cd3fSwsZExcH46V/djb28PR0Qm3bt0UvprD2zRgamoiY4uNjZE9Tzqq9gXPYkpKsjzPd78tTQEIxVxJHggyGGpT4WHhWL1mVaFmZuv/Ce7vvvsO+np6SE/PwK5dO0U48QB06fIVmjdrLhvMx8cba9augZ+fH7p27YZ6778vTIoAYfOPm3H27BkMGjgIFStWlI187dp1bNnyozCCr7/+Gu+99z5S01Lh6ekpWh6FYc8evaCjqyMHNSAwEIsWLUJQUGCBM3VxccHXffrKISIjCggIwOIli+Do4IgOHTrkMqF58+bhwYMH+Pzzz9GyZSs5UJzP3Hlz5f21a9VCt+7dYWxkLKCFXLhDxw5wdnJGj5494eToJGPYvWc39uzZLYexRYuWaNCggRxkQwND0UT27tub71inTJ4Cd3d3ZGZmITMrE7o6uqJBPHr0CAMHDsJ7dd+T8Vy6dBFbtm4RRjdixEjUrFFTDq+JiSl+mPMDLlw4L0CPmhOj3gMDA7F+/bpCtQXSiIKUzObIL0ewdStz5iFWpYEDBuXQIisT+/btw6FDBwuk9RdffInPWn32XJhrYNfu3SKcu3Xthtt3buPcuXPy3fJlK7Bv/14BHN27dRMwwH1x5uxpLF++XLThDh064pOPP0FSUiJ69+md+04yrcGDh0BXRweLFi8Sxk1w06dPH5QrW06YL/fF2LFjYGNjg7lz5gkzTc9IF8E3atTIXJBAoPfll62xfMXyXIDAPgYPGSIAgUJm3vy5sgav0yxezGOb+1inTp3FGjJx0kQ5C23atBUAy/ygyKgozJ8/D/7+/vDw8MCAAQOFvhS0fr6+mD5jOmrXroMO7dtDR1dXhNOUKZPl+YJauXLl0LtXHwGhmpoaWLFiBa5cvYK2bdtCX09f9ie1bwKwCRPHo1u3bmhQn+eAKcjh4hqaNGmiAJK+ffuhcpXKoiAcP35MfkteULFiJQwfNlwEEoXmwUMHcfTob7KedKVRcN+7dxerVq+SPpcsXgpzC3NkZmTK55s2bxawy1azZk107NgJU6d+WyRA4H7o0L6D0EFPXw9XrlzB4sWLxOTfr19/Odcc385dO3Hs2FEMGTwE7h4eMDQwEGC2Z+8e7Nu3FzxTvXv1FlcW9yzHvnXbVnz22Wf48IMPYWycA2h4JpYsXQwHBxaH6ykuNILw0qUd0Lff14iJiUX7du1Qp04d2cePHnlh1uyZz/vvAwMDfTn7dIOMHz8eySnJwk+7d+sh60Pgtmz5Upw/fx41atTEgP79xW0yfcb3wu84ttq1a6NH9x4CEAjEyB9pXahUqTKGDWWVTS05P0uXLhEL5Zt8Fv7K2VEAQjGpVbNmLfTp3UfMThRoFOoUigW1jz/+BG1at8HAQQOEsXMTUmB5uHtg6dJlGDd+HG7cuC7+X244InoepEaNG2PK5Mnw9vGWjflx84+FkQ0aNAhGxkbo17c/zpw9Ixphp46dMGz4UNmM/C3Hw9+NGD4CS5Yukc09a+ZsHDp8CPv37ytwrGU9ymLatO9w7NgxrF23RhA/gQKF1oULF/DLr7+gffv2eK/u+xg+YphoAgQoFCajR41GqVKlhPESsERERIoGNP376bC0tED3Ht3RqVMnlLS2wdJlS1GhQgWMHTNGgAOFKsFSvffrYcbM6QKSCMQKMmUvXrQEwSFBiI9PEE2ghFUJoekvvx7BiuUrMHrMaLG2DB40BAsXLZDv1q/bgG+GDhEGOvSbYSIwqQkfPnQEY8eNwfXr12VdwyMi8PPPPxUaW0KaL168BF5ej7BkyRKh56KFi5CckiLClho3hWZQcMEmTzJFrjX/VK9WHYMGDcaYsaMFNJDmi5cshq6uHpYvW47Bgwchi2loUBPLCi0F69auR/8B/cRXzFa/fn0RIB07digUIBCAUeBRU6Jmtmb1WqxctUIE+/x5C3DmzBls2fojZs6YJX5dWh6k/xcAAmmwYf1G3Ll7R7RGMs1y5cqLkHtT/bUEzVu3bMO3307B2XNnUaNGDdkjBDZ37tzBpImTRdBNnDhBBMfkSVPw29FfsXbtWgG7ViWsBDQcP34cv/76C9av34CoyCiMGDk8X8sJNXXuqdS0NAGeFL7ffzcdTZo2gaOjA775Zii8nz4VFw6FkMrl1axpMwEC69aty7XW8bPPP/8C33//HQwMDTBl8reY8u1kWX/2O27seCxYuEBAsZWlFdQ11LFy5SpRCmiF6N9vAFasXIGbN2+gatVqohUzjoaussOHDuH3E7/LHIoLECgg169bL4LwgecDTJ8+Az7e3gIgZ8yYiUuXLuGnn7YLj2zcqLGcN47BuqQ1Bg4cIJ99+mkLTJ32rShEPK8EF9Tax4wei9k/zBKlp2GDhpgwYTzMzM0w9dtp6Nv3a+mzcuUqWLR4IRo0aIi+X3+NXr17wcnJWUDF8mXLxN2wdes2sRLRgjFixAhs3LRRaLzlx60YOWqEnIEhQ4bIGq5dt1ZABS0ZPj4+sucJErlGq1evFnpRcZo7Zy7Onj2H3Xt2iUKgq6uDGTNnCK/VNzDA7NmzhMeQL9ICpwCEogUrY1+mTZsGVxfX3IfVUlJSshcuXCBI8VW3unXrCoPmpn/VZh4iYyLkn37+CV2/+gpHjhwRwVuQL7NSpUqYOGES7t2/J5vz8uVLguKpebf4tIWYxl4MBqKQ5+EdPmL4cw1TUxBvzRq1RHgSMHCzHjp8EPZ29nJIqMWIqd7QAKdPn8Ljx4/RrVt3jBgxXPqfNJFjuJ+r8eZHcwKEUaNGi4AlU2GrXr26CFQyD254Wk441+nTv4e9fSk0a9pUNBQKdJowyVypxZ86dRK//vqrgItPPvkE/fr3w+jRY8THKWbW/2lTNN1OnjJJmFzHDp3ksG3YuKFIv+vCBYtw995dsUwkJScL8yb4On3mlIyV2gSF6/hx43Hg4H4R2D2690TnLp3ET0pLzG9Hj4rms2RxDtLn/MjQH3jex5o1a3JNivnRKT+A0L17d1nPc+fP48mTJ2KdULlcXuyDvyetaTUhQ9Q30BcL05ixY4QmvXv3EabTpk0b2NnaiQDiOrdo0UIsJ5wb/08md+PGjb8EEEiLJo2bgGeEDI17ed36tThx4gS+m/a97OW9e/cIw3Nzc0Pffn3/BBBWrFgOz4eeAnTPnD4rQZEJ8Qmy77gvBw0cKGblN63xvBBs+fr6ifmcjJuxKLQohIQEIy0tXQL0fP38MGPGdJQvX172z6DBg+S8qs4Cz9SmTRsFUFKAkU7tO7TLN6CPoH/ixEmyr2htpJnCobQDevfpJX3SijSg/wDR+ElXlfk8P4BAoUkQ6O39VLRvCtqFCxbgwsULItS//KK1gAyVW4j7at7c+QIi6VIaNmw4fvp5u+yX1q3bCCilVm5fyl6EKM8qz3VxAQLp88MPc9C2bRs5O506doaVlaVYBaZN/U7cbBSSPJf8//oN69CmdVtcv3FdrAbkHWPGjMH27dvwWavPcwJkoyLFOqKrp4utW7eKwmFkaCg8gftt7Zp1mDhpguxfgv6fd/wsQn3vnn2igFWrVl0sGuQv5HklS1rjzNmzuHD+vMQSrN+wXoKl9+zei/kL5osFaUD/gThw8IDE3bwozF8ECATmBF0R4RGimBgbGyE1NQ39+veVs9y2TVvcuXNb9gbjR14mCPpNOz+KBaEYK8LNTo2Lvj76mGzt7PDk8WMxPRYUTEQTJbUR+vZoniTC37Z9m5g5P/vscwEI/C0PAA+aygpAHx4ZGRv7GDtmHIxNjLFhw/pc3zMFUNu27VDG1RUrV63M/ZxaqZjhevbCqJEjkZGZgQnjJwpjp1uioEahNXDQIBHytApQY61WrRp69eolVgX+no3jJPCimS8wKEiEIbWbMq5lMH7COAwaOFhcIjTBU9g1btRIAuCGDRuG2Lg4HDlyWMaqoaEprhX+nWZ+cj7SpihQt2DBQty+fVsAUUpyMoyMjcWcef7ceQwePBj9+/cT1wq1qv0H9kNPTxdf9/kaXb7qIib2wYMGiyBMS0vFD7PniKCl1ksBRwYbEsJ4hoL9h/kBBGrmVSpXEVMjNdPLVy5j7VpWxvv/Uegc6+hRY5CYlICjR4+ilH0psaAQIIT/z89NBkszJzWtmbNm4uzZs+jcubOAq/0HDsg4aZkZPXqUMNzCLAgEa9SKaDqnAGIwIwHSrl27xDU2cdIk7N+3D8d/Py7aLX3zdPvQIlTawUHGwPbBBx+iXdu2WLFyJR48uC/79dDBw1ixcrmYWEkTVuuk1eFNC/zjWAkEPvzwQ4wcOSLXdN6ubTs0btwEGzdtEDCXs59S4OvnCwJ7CuVBgwfmAj2eBe75TZs34dq1a2jUqJG45Dp17pgvQKCAGzlilFiqTp0+JXuBPIRCinuApny6FkhPWoxUgLJp06bCL2idVIGTUSNHoVTp0li1ahUyMzOEJ1Ap4H6lUG/V6jMB7So+pAII/fr1lfUfNnw4duz4WcDcwoWL8N3330kxJAJzWkNpHeS6cY5fdflKNLromD+yWV7kGWXLlsOcH+YI6Ca46t6tuwhMugW/nTIVm3/cBF9fX6EpzzP3Gvc8aUGl0MnJSWjDv7dq1UoUmosXL+TyQD5PnkI3zKbNG2W/rVmzFpMnT0KjRo1lncgr+M5tW7fLOlWrWk0skxwD6cJzQj5ma2MrYJsAgXt19649Yn0I8A8Qyx351MmTJ3JjCVT790WAQJrOmD5TgMmTJ49lbnyWY6c1jpYZ0q9unboSFEwF9U07C8UQc/k+ogCEYlCOWhs3CCN8/f38Ub1GDfFhjxo9KlfjfrEbdzd3lHYoLQKImgFN2NRAqMlSONEP7+fnK1ohMyLIEGhBYAAbzW+qxliFzp27YPPmTYiLj5e4AmqqNra26NWzp1g0CAxMTc0QGBAAQyND9OrV+68DhIEDxU2gCr6ib5pCPjo6CteuXoMuA4Z0dAQsUOh6+/jg6ZMn6NqtGzQ1NOWgdv2qq2gnFy9dQseOHWFibIyu3briiy++EAHKQLpMInwbG4nJ4OGSOID/XWnNQ1+YcCY9CgIIZIBLlyzDtu1bJZiIZkxaqcjoqH1QU6Yvl7ETCxctwv3797Bh/QYcOHAADzw9YWZqiidPn4hFoyDTIIMTaUKk5hEQGIDdu3aJO4fxDWnpaUhKTEKzZs0RGxcr5tf8gvYIJsaMHiMuCAIdmlHpRyZACAwMQPfuPURL4h5p/nEzYXRffdVVNKJTJ0+hQsWKoikxRoACmTEdtAh88smnAigSExLEwkIGRj9xwwYNREsKDg6RQL1ePXsL3elCYjzCtm3bBCDQxUC3yclTp0RI0BfMfcVWvnwFMZczPoICjf5mngXOmdonBZ+OtjZOnjpZJMArxlF7pY+orHhXr14VEzsbhTGFTo8ePcVV99jLCxaWFsLQaU3JDyDwLBBchj57huvXr8n+p2tm1uxZ+a4zBTOBH10bx48dI36Cs7OzCOqPPqovSgIFU4OGDUVw0Q1BYUq/OwXa6dOn5XzRvM3PCBKZNUOQTWH122+//gkg0P2gCsotCCBkpGdg1qzZku1SqpS9WBM2rF+fCxBcnF3E0seYAVo96ebLL5WbFhnGMnC9g4OD0blTZ9k7dDHQChkTHS3WNAIhavOcA5Uc0pDB3RUqlIebmztmzpyB1l+2FmvBsePHhf48H1euXJa9+yJAICgmEH/v/fclDoP8tXXr1uJiYKA258PgY54txn9xvWmVyw8g3L17V5QoWil+P8Gy2DrimnjMM+XkjCpVKouV5/Dhw8ITyJ+pdJCfXLxwQcZJa9nly5cl7olngLFMtJQcPfabWJcVgFD0UX5rXAwUAjVq1hQBTxMaN/uXX3yJg4cOwd/fL19KVKpYCc0//liYUXJSMk6cPCGCia1JkybiS1NXU0NQcLAceCLnZs2aSUAgNTlVo2mYPjtqm2TyDKg6eeIEAoMChdG4urrKBiXzoB+ZAWv16zeQYL+szCyxVtBvrwp+y2+wdBOwrx07d+TmulNTqVC+At577z0RjBnPETPHSiZXrWpVYVL0s9I8yKBNWiIYia2lneOOINOjsGT/RP92trbIys5GXGys+EU5blpXaEGgybSoQ0Wmm+NSAdLT0gVgaGppCcOgD79suXLIzsqS9L5jx44jOTlJmJBrmTJITkqChqYm9u/fL4ygXr16qFvnPfHZMmjr199+lcCtggAC14DrzjgBMs7goByaMkjR2cVFhDnBIMfC2I/8Gp95//338UG9DyRuISkxUcZPny39pQy6YlAoA8c2bdokgp4Bgc2bNxfgQ9Mlhdn2bdsk0Or9996Hnb29rA+ZNUGmKtaE46Q7i8zP388PFy9dlHRIRs3HxcWKdkkLBYVB505dhKFraWvJHGhtUmm1FAgNGzaUQFMCUQbOcs8xwI5BpdRGqRlTEy3KAlQ0y3i1T3CNGUPBOg4qwBbg7y/npHyF8gJa6ZJklsH9e/dkD9AC17JFSzFvq2IquG7UEOvV+0DcETxXNIUTKObXuG7shwCQ9KaLIT4uHj9u2QzGJjGA8OTJU3B1dUHzZh+LGZ7AnMCQlg1LCwuJ9GeQH+lPBcPZ2SWHl6QkYcOGDWINYTwLXQbUnFW0Z3xQl85dJI6BJnsGsTK1NzQkFL169xbhxr1GwEyQQuBH2vBzvodZH8zQoXUwv7oXnJuKrtzDPC9ejx7ht6O/CQhiH1Qm2Dw9H+D3338XgKCto4Xw8Ahoamjg/IXzEttEvsA0VMbGcG5BgYHYt38fqlThzbXaYo0k7QlQCWZpHWzWtLmcQfIeWhEYQ5CWmoYPP/oITBMlWKXFbMfOnRIcyjgPAq7Q0BBxQ/762y8CyjhW8kkrS0vJ9skBA09kjQk+CKKZrULgRestgfJHH30kdGMWEC2F7JcKHHk5x08AcejQIQH7SgxC0Wf5rQEIPKQUmKpUKG5aVVpgQUU6VOlsDMKhoOJvVTEH7IsbkM+QCXGzUzjyPSpzd17ykslTCLAvHloKClVqHz/n96rP+TsedpUfjACDzxaWV83xcOMTFefVfFXzZGAS+4iPi0NiUqIIZr6XY+Z7+XsyOEnXMzGRCGC6AFj0hUIlJ22TkcQmMi3OmfTg5xRMbMXJ+ybNmREiVu3nqX7sQ5XeSebIxrGoNCrShrRWARaOlwKev2MKGpkoTaVMXSqs4AqjoLW0/qh9TzrRH6lKK+Xa0IxLplJYyh+f4zgp8Jlayehn/p/jI735HrpAVMKJNM1ZY13ZJ/y9KiWTa8vvVY1rlDf9jiBAshPS02U/8HnVvqVaS5BBWvA59sM0U66vKoVL1S/Xm+tHmhM4cJzsiz5uzpVWkzexiBLHzLGLG+R5Iy24bvyMtOA8uFc4Z/6f9CXw4ZzyriP3OPcvLX4EdoWZ4fmqnBReAwEg1C75Tq6piv6q1FPuTdV5Vp1djpnvVqUnq/YwXXPkJVxjfs+x8vywb5VA4jryHarzxTHwXVxnjp/z5VnjfuPnefd8TiE4o9z9V9A+5jso1LkPuO7sS7VfOV8DQ8PnsUtx8i66HugSo3WA9Oe8VLxQtSdJL86DtCCN+W/OlY37X5VKK/vOiFdVJ+YGfvP9PB8mJjkxSZwX38HxkT4cA99HWvN3pIUqnou0ooLAOIicFEtD6SNvo1uZc+Z7SU8+rwIP/Df74Pc8n6qU9aLF43/jCcXF8N9YJ2WUCgUUCigU+M9RgIJ46DdDJUiS8RhK+29R4K0FCES/Hh5lBfEpTaGAQgGFAgoF/h0K0OxPF2VRLsR/Z3TKW1+kAK1KrBZLa+FbCxBocqNvSFVmVdkGCgUUCigUUCigUEChQOEUoIuGabWMaVIAgrJbFAooFFAooFBAoYBCAaGAAhCUjaBQQKGAQgGFAgoFFAr8PwooAEHZFAoFFAooFFAooFBAoYACEJQ9oFBAoYBCAYUCCgUUChRNAcWCUDSNlCcUCigUUCigUEChwDtHAQUgvHNLrkxYoYBCAYUCCgUUChRNAQUgFE0j5QmFAgoFFAooFFAo8M5RQAEI79ySKxNWKKBQQKGAQgGFAkVTQAEIRdNIeUKhgEIBhQIKBRQKvHMUUADCO7fkyoQVCigUUCigUEChQNEUeCcAAm/v4u1bvIVNaQoFFAooFFAooFBAoUDRFOA9Rqpbb9/aUst/9256dTV1uTqV/6mpqfMqd2RlZxVKVV0NPZQ2cEZUajgiUsOKXoEintBQ04CGmiYystOLfPdLv0zpQKHAW0IBNXVefZ2N7KzCz+uL09XQ0ZXfZKWn/eOUUNPUkmvQs9LTeWf5P/4+5QUKBV6GAgpAyEM9Ey0zlDWtDL+EpwhNDkQ50yrQ0zDAtchzhdLYydANEyrOxeGgHdjnv1XAxd9t6moaKGtSCTUtPsCpZ7/AN+Hx3+3qjfmdGtRgrmMJYy1TBCcHIDUz5Y0ZmzKQt4MC6to6sPqgITJTkhF94zIyk5OLPbGyo6YgwfsxAvZs/0eFtroOx9gIOhZWeHb8CFIjw4s9RuVBhQL/BgUUgJCH6pXMamJchR+wzWcVjgTtwuTKC1Fa3wk9LnwKTXWt3Ccp8DKy0gUIUKCX1LNDC7v2uBl1EVfzgAk+p6WuDVol0rPSkJmdKX3wN1rqWmIdUPXDz/mZtroOPrRujraOPbH80UxcizgrlgwtNS2wv/TstCKtCnwf3yvjzM5AZlYGADVoqmvIGGgh4XyysjORhWxoqmlIn5pqmvJvjpW/1VDXlGdp0SDkSc9KzaUBf8/n07PSkZnN/iHjlGezs+T/alCX8RtUxR8AACAASURBVOqo66JFqQ6oV6IxFntOg3+it7xDaQoFXhUFzKrVQvUFa5EWE4X7syYj8uIZqKmrQ01TE9kZGSCAyM7MyNHcuVc1NOSzrNRUNDh+FZGXz+HO+G9kv7/YaJlQ01CX3/D3tAIgKxNZ7Jf9Z2VL3+pa2mLByH2HugbUtbR4MJCVlgoNPX249B4MAwcneC2fh+RAP2SmphYKSnL6lOOb85yaeo6l4/nf1bVzvs9OT8u1nHDOampqMhc1DU0ZG2nATtR1tOWcso/szBx+pDSFAgVRQAEIxQQIn5XqDCMtYxGwdCmcCDkM/8SnKG9aFXWtGkFTXROXwk/iZtSl5yBAHXUs66OCWXVoqmnhUdxdXAw/KQykqc3nsNV3QHx6LK5EnMaTeE+Y61jhU7t20NXQh6GmEcqbVcOyRzNwN+oKPrT+GK5GHvLuB7E3cT3yApIzk/JdUwKM96waiiWEborgpACcDD0EIy1T1Lb8CLejryA4yR9tHLrhXsxNBCf7o65lA3FnWOvaITUrFSdCDkr/da0ayrwsdKxE2P8echA+iV4ope+EulYNYKljjcjUcBwPOYCI1Gew13fEeyUaITE9ASX0bIRO/E1F0+qoZ90EjoauOB/2O54lB+NH72XKqVQo8Moo4DFyMmyat0JWcjJCjh2G15LZMClXEZZ1PkRSUACMPcojNSwUwb/sR2ZyEqwbNoORR3kkB/ijzIDhiLh0tkCAwN9a1WsIDX19pIQ9g561DVKehSL09yNitUgNf4bIKxfg0KE7sjPT4bttA7QMDGFRux6My1WEuqYWEnyfIvTYEbj0HADTStUQc/emCP2Ic6cQee1igSDBqXt/EAQIPsjKgoauHvx3b0Na+DOUqN8EJuUriaCPvHoR0TeuiOC3/eQL6FqXREZSEvRK2iL61jWEnz8J8xp1YVGjroCmhKdeCD93EmnRka9sDZSO3j4KKAChmABhUc3tYiYPSPSFg6Ezfgvai+2+q1HepKpox1XNa2Obz2rs8dsklgU3o/IYXWEWUrKSBUjEpkVjr/+PYh34svRX8I5/BBNtc3FlbPZehiY2rUAQcjf6Gqx0S0JX0wBLH34HI00TdHMZhMfxD4BsNZTQLYkfvZeL2yM/V4abcQUM8piIpIx43I+5BW0NHRwN3gdbvVLoXWYEdvptwK2oS1hRZw8OBGzDrajL6Os2WiwOPgleqG7xPo6H7MfJ0F/Qp8wImfOTOE/UtPwAF8J+x8anS/BF6S6oZl5XwAfdIRciTmDZw+moYlYbAz0mCJh4Ev9AtJiToUfgYOAqoMXewBHXIs8jLCUYq73mvH2nSZnRv0IBavS1Vm6Buo4e0mOjkZ4Qj3vTxqBk40/g0msgkkODkZEQDyMXdzzdsFyEYpm+w8TakJWaBvPqtRB+4VSBAMGmaUu49B2C7MwsaOrpI+r6ZRi6lMGDWZPg2ncY4h97wmfjStRauwNZGem41O1LWNR+H+6DxyAl/BlSQoOhZ1cKt8cNgXP3fgJk4rw8YeDgjNTQYFwd3A3Zzy0bLxKw3q5j8hGtEnRJ6NuVgteyuUiLioDHiEnIiI8TKwGtJfenjxdXSaXpi2Bevbb8PTUiDHGe9xB1/RLKT5ghLhgCGgMHF/huXYtnv/+Sa/H4VxZPeekbTQEFIBQTICyttQOJGfHY6rMSXZwHIDYtCvMeTBQzvbtJJYyt8AP2+f+IXX4bRXD3dh2ORrYtseDBFDyMvSNuBZrep1ddJZrDd7eH4v0SjfGlQ1esevQDWjt0h7GWCSbc7Iemtp+hoU1LrPGai4+sm4vQ/iVoF/Q09FGvRBMR8nv8N+ea9vPusEqmNTCs3DT57ljIQbEYUFjXtKiHPmVGYofvenGFrKq7H/sDtojFo7/bOAENu/w3yjwo2H/2WYcOTr3F2rDVeyUGeIwXC8NW7+Vo79gb58KO4WjIPgxwGwtn47IYea07HAxcMNhjEi6Gn5DxpWalIDUzFTrqOuIyaVDyE8y6NwY+8Y+QkBH/Rh8MZXD/HQroWtug+uINiLlzAxkJCWI5eDB7MkwrVYVLr8F4uOB70Zhrb9iNoIO7kRYVCaeveuPWmIFIeRaCulsOIuLi6YIBQrOWKN32K6RGRsCsag1cHfAVKn+3AA9+mALnXoMQ7+UJnw0rUHv9TnE7XO3XSawJtC7QkkEBrWlkjPTYGLj0GgSzqjXxeNUClG7bFaYVq+JMy3rITMk/LueD3ceRHBoiVo/oW1dhVa8BQo8fgZFbOZmn5+wp0C/lCOeeA+C9fjmCj+xF5ZlLoG/vgMcr5iH2wR1xLzh2/RqlW3cWVwoBknnN9xB17RKerJiH9Pi4/85iKyN9rRRQAEIectMaMLHyfGz3WZ0Tg1BpIWz0SqHPxVYgQIhMC8PqR3MwwGMc0jLT8MP9sWKKdzEqi6lVlmK//5ZcgDCx4gK4GpfFiGtdEfk8s8FM2wILam1FcKI/Jtzsi4+sP8YA93FY+2S+mPxTMpIx4npXNLP9Em0cuou2/oldG5Q1qYxnKcG5Iz3gvx1HgnZIfMGLjbEBLe06SB/2ho54lhyEJZ7fQU9Tv0CA0M9tDI6FHMD+gK0Sg8GYiu0+a/Glw1e4F30d233WoJ/baFQxryNWEI51k/cSHAs+gK/LjEYjmxYYe6OPuCIGuo/HDr91OBa8P3d8tE50cOqDZrZfYMqtQXga//C1bnLlZW83BZy694Njp54SU0DfPLV4n02rkJEQJwDh2qBuYi34cO9JBB3Zi/SYaDh07IHLvdsi0ecpGp68ichCXAw2zVqiVOtO4l6wqFkXF7t9geqL1uHhwhlw7Nz7/wGEG9/0gEvvIdAyNhWAkBTkLwugaWCYG4PwaNEsuPYbJm6I05/ULRQgJAb6Iys5SQQ63QoRV87Dss4HEt9wc2Q/GJUpC/eh4xB8eC/8tm8QgKBlZIx708chJSSHb/Azy7ofCiBSxR7QreK9YblYIZSmUCA/CigAIQ9VbPRLYV6NzbgVeQnnw46js3N/Ee6Tbg0oECCYaJvBydAdQ8pOxvHgA/g1eDfCU0LxqV1bdHLuhx1+G3A5/JS4CkKS/TGy/AzY6Ttg/oNJYravY9kAK71mobVDVzgbemDG3ZFoaNMCVc3rYMWjWahlUQ/vlWiM2ffGiL/fXNsSsenR4g7Iz8Vgqm0OIy0TiWGqaVkPHZ2+xjbvVeLm6O8+DpfCT4mAHlZ+Kvb551gQCFLoLvjZdy1Gl58lbo+d/hvwlfNApGWmiNWEloG0rFSsf7xQhP2zlCD8GrQHBBcMVhx9oyfo3iBA+NlvHY7nAQj8vp1jL3xeugsWe06V94ckByonUqHAy1NATQ0VJs1CiQ8b49GyH6BtbAbHLr0QtH8nkkMC4dy9//8DCEmB/vL5w7lTReOvOHUuIgpzMRQAEB7MmQrH9t0lADHk2CEwDiIjPh5XereFXat2AlqerFmMmFvXJO4g7MxxOPcYIEGKLwsQ1DW1YfvJZwKEdCxLwP7zdvCcOw3hZ0/8ARC+HyfuDTb7LzuizNdD4fPjakRcPgcdc0txu9D6QUDlNmgUdKys4ffTJsR53s1dFwZVGrq6I2DnFnFTqJpj514wq1EHgXu2yzuV9nZSQAEIedZVR0MX3V2GSDAftV4GEf7ksxpnwo5iSuXFiEmLxE8+awQ4MAp/9eM5GFN+tsQM6GsaIC0zFcmZiVjycDqi0sIwouz3sDUojYysDHEzbPFeLuCgl+tw0eiZAXA+/DgOBfyEGpb10MmpLzKzMpGalYzkzGQJ5GNKYE/XoTDTtkRSZqK4NKjFE8DkBxDKGJUTFwgzGQw0jZCWlSIAISw1FD1cv4G7cUUJKGQg5LGQ/SKs+7uNhYa6lmRU8HcHA37Cw7g7Ahxo9UjJTIaOhh5+C94rVpIGJVuIZUNLQ0sipQ8E0KKxU4IROzsPEOsGgxFzsxugJjRt49hDxhSdGo7xN/u+nSdKmdVrpYCmgQHcBo+FtrmFuAy0Tc3hPmyCCMbk0CDYNm+Fu9+ORkZ8LGos34Jnp44i/NwJEdRGLm5IjYoUbZupkZ7zvss3WJCuAptmrXJcDJWq4ubo/qgwcRY8500TYGL/WTukx8VAXUcXqeFhuDmyL4zdy4OWDZr/mfGQGhONO+MGw/6LjtCzsxfBTiuGaeXquNq7XU42Qz6txtJNSH4WIsGXMfduwbL2+4i6fR0RF8+g3Kgp0LMtBWRlIfbRfXEXpEaEw2PkFJAuj5fPk3gDlfWi7JipMHR2E0DDjAwKdwZt8t/lxn0PXStr+Gxaiejb13NHQloalfGA75a1iLhwOvdz1/7DYFG9Lvx+3ozQY4de65orL3t9FFAAQh5aM7WPFoEyxuWhr2GI8JQQPI33lMh+ZisQFDBFj772rOxseCc8RAXTGtDR0MnthUL7YcxtxGfECXAoY1Re0hcDEn0QkOQtmQi0OBAoJKTH4WnCQwlg5DOVzWpJ5D+tFgQofolPEZcWDVo2nA3dJF0wMi0cPvFeYkXIrzFOwdWoHKx0rSU1MSjJV0AAx5Xz3tIITQ4SKwPdD5a61uhbZjTOh/8uc2Nw453oa3AwdEV/97Hwir0Pz9hbEk/AgEaCBYIhZ0N3WOqWRETKMzyMvS3uBNaR4O9CkgPk87wAhtkVnLOFTglJqbwRdeH17XLlTW8tBZg6aOjihqyUZMQ/eSQBe/qlHKCpb4CM5CSpORB7/7YEAVLjZSZDgs8TEXqGTq5I9PMWUJEWHYW4R/fzpRM1a92StiJItU3MRICalKsk/RKY8O/06zMlMSstDdG3r0kqIQMTjVzdoaalhSR/HyQ8eQQ9ewdJd0z0fQqD0k7QMjVD1LWLBaYcMtiQNR3oFkiLixHNn+6S5OBA6NnYCRBhdgO1fgZE0nTIz5ipQHpkpf4R26BlYgrTitWgaWgk1oM4rwc5AIK/KVsRLBiV6PsEaTF/8BbGOhBAJfo9FfChaoaubtAxs0RigG+uleKt3WTv8MQUgPAOLz6nXsmsBnq4DJWAw2PB+3LjBlyMPNCrzHDciroisQmpmcUvPPOOk1SZvkIBhQIKBd4KCigA4a1Yxr8/CUNNE7Eq0GrBPyqtX1/DAHb6jojPiEFYSkiRxZn+/giUXyoUUCigUEChwJtIAQUgvImr8prHRNdKfvEMOZ+z/f3S0fy1lpYWDAwMci8Aec3TU16nUEChgEIBhQJ/gwIKQCgm0XR0dGBnZwd7e3uEhYXB19f3/9q7CrAss627bEFAxAS7UOwcu7u7uxvsTuzu7u7uHBW7u8BGwQ5Awvr/tZ2Pqw4pnyPiPs+dZ+Z+vO95z1kn9tpx9gGvxfyVhfkKzMzM4OnpGWCK2JC2LUqUKDAzM4edXXp55dKlSyLMKditrW1gYmIiuRFu3bqJaFGjwSpuXLx9+xZeXp4gLkmTJsPz58/w+vXrf32S76VJkwY1qtfEkaNH8PHjB1SuVEUIAwsv1Xr16hVWrFiOO3fvhLTJoX6Offjrr79w9+5dPHjw5djZf1GKFysul/Ps37//m8/lyJ4DcePFw969e/6LZvyx37CwsED8+PFx+/btADHImDEj0qZJi81bNge5hlhPsaLFcPTYUTx//vyn4cn1xMBfP78vqcgN6ydBgoQ4efIEeEvt716SJ0+O1KlS4+Spk/Dy8vLvDvuYPXt2nDhxHG/evPnduxkh2q8EIYTD2KhhI5QtWxYvXryAmbk5Fi1aiCNHjvhvKpL3PBITojLm53//bfiNV2gaFrzh3/zbx+/yoUeOHFmeMzz/9Tv8b/7d8Ld48eJh5oxZaNO2NV6+fOn/bcNzfJb1B5Rf3tBtkoO8efOhWdNm8PNjJHUk3HK+hUmTJiJBggRo3rwFMtjZIX16O9SqXRMxY8ZE61atsWnzZly6dBGNGjWWRT1+3Dhcu37tX2hyY61Xr5687/3uHQ4dOoSYJjFRuFBhCeRyOnJYNtyLFy8K6QiuELPvMf0eV7mN86uc+sSBE719u/bYt38/jh4N+vIt1m/A+euxNPwW0JgSx++x5nMdO3TEhw8fMXPWDP+u8fc6deoiZcqUGDlyRHBd1r+HAYFmzZqjUsVKqFmrxr/WFMehevUaSJokCSZNnvTNujWsIcP6zJIlC3p074FBgwfhzp07Mj8M88wwJ/lvrs2g1ltQXSEhb9iwEZ48cce+ffuEJJAw1K5dB/HixsWMmTOEUH+/NxjuXTB817CHGNbF120ytPX7NWKsPhjWDuv/vp1sF/8pU6YMMmXMjGnTpwpBMLQ3X778KF+uHMaMHYvXr1/J799jalh7Bvy//wbXIX/7+vcwTJ8//lUlCCGYApyMy5Yux44d20XTsLS0FA2bQjlb1mzw8fXB9evXkTp1asSOHRtXr14FNZP48eIjRsyYsqgpTN0euyFDxgywsUmMGDGiS66Cq1ev4P79++DEzp37LyRKlBC+Pr5S373792SiUwNPniw5IkeJgtgWFrh+4zqiRImKTBkzwt7eAVOnTYW7uxuuXLmCZ8+ewS69HdKkTSsWgKdPn+DMmTPS3oBKwoSJ0KVLF9y/dw9r1q6Ri2fixosLZ2dnWaC0UNBysmTxUtlkTWKaoHXr1jjsdBgJ4idA9uw5MGPGdFy+8r+z019/h5p7yZIlkSFDRvj6+orGnC9fPpQrWx5Xr12Vvt68dRPbt2+DdzA38JGcFClcRKwPxPTmzZu4fec2okePjuLFi8PjrQesrOLC9dFDwYLfy2CXAba2togWPToKFiiI1WtWB0kQ2KecuXKK1eT5s+e4dPkSYsUyk/E0NzeHh8dbxIwRE48ePxJLCwlQrly55G+0hFy4cOELiTQzE+JFkvX40SMcPHRQYGFb8+bNK5aZt2/eYueuHYHOQG6GnE9x4liJ0GCdsWNb4sGD+9I3LUEjQPzGjB4rR4d79+71zcNJkyRFxkwZZb4cPHgQjx8/kr9nyZxFFABLy9gwNTXFtWvX5B8SiSqVq6BP396y/m1sbHDq1CkR4nZ2dkiaNCmiRo2KV69e4+DBv0NNEuLHT4CiRYuiVMlSuHvvLq5dvSprjGuwf78B8HrnhfPnz8v8O3z4sIw/LSMkLubmFjI/+He2gZYOZmt9//4DokWLiocPH8pc5ZzOkSMn4lpZiYZ+4eIF2cM4J/PkySskhBdLXbp4UdoQWiEbJ04c/JX7L5iZm+HD+w+yrm/duiV9yJo1K1KlTC1jkTVLFjx2e4zFixcjbdq0sE1rK99Kly6d4DZl6hTBN0OGDIgeLbqstbNnz8p+xnq4D3DcROE4fEj2Nu5j3A/ZhvcfPsDJ6bCsQy1hQ0AJQgjw4wSfO3ceHj16hD17dsukp9bLST2g/0C8ePkcM2bMQP169WGbLh0mT54kgjtb1qw4cuQoEiZMiPv372H58uVo0rQpSpcqLZtSbMvYYpZfsmQxaHbr0rmrmN2srKxEWC5evAhubm5o0KCh1E0T41sPD1y5chl+fu9lsTSo3wCrVq2Cm/tjHD9+XLTwXr16wcvTC0+ePIHf+/cifAMzi2bPll0E/syZM0UYBlQSJbLG1i1b/QmCvb29LNaYJiaYOGECzp0/FyiK3HwKFiyIYsWKi7bAtiS2SSz4TJ8xXTYBClxq2MGZbrkxt2vbTgQxBS/bQM2P/16xfIVgyp3RKq6VWEC4+Y0dMw5ubo9l48mZMxdGjxkdKEFgW3t07ymbzN17d2BjbYNjx4/Lu02bNMHxE8dRrGhxXLl6BZ8+fsKixYtQskQJZMmSFZevXELKlKlw8eIFrFmzRkhMuXLlUL1aDSFbffv1EYy4ufH3ChUqyibatl3g+SDY3ypVqopr5OKFi0iWPJmQzl27d2Hjxg0hmLl/9iMUljNmzJR1d+gfgmZAxNY2HQoXLowWzVugcpVKQqxZevbshTSp0+DcuXPInDkT3rx9i/79+6FVy1agxY7EvVjx4iKwOAYUatWrVYebuzt8fXxgYmKKyVMmhUq4ksjQddm0aTNwPXI9PXF3x6ZNmxAtejRMmjgJ9x88kPVMAdyzVw/5b1ry4saNhxcvnougnTd/ntzCOnz4CJw7d1b2lHfvvPHq1UsMHzFcSE7GDBnx0PUhUiRPgQN/H5D9jDjUqllbCIPJ/8/PkydP4tTpU6F2Z9jZZUCJ4iXw/r0frK2tZQ+j1YMEqnmz5oId3WpUYJYtX4Z7d++iWfNmcH3oiugxYiBXzlzYvGUTjh07hsaNGuOdtzc83r5FtmzZMGbsGCEatOJwH37y9AlKlyqDIY5DcPPmDdStWw9JEieRtR7Hygrr1q4V5UFL2BBQghBC/AoVKoQyZcqK1kzf+4qVK2STGDRwEJ49f45p06aKeTB9uvSYMGE8OnfpgtgWscUkmSNHdnl31qyZqFa1urD+bt27isWBAmT5iuXivuCiGjhwANKlS4+6depi7do1slBpxq9WtRo62XcU5v/FR/keiRIlwupVq1GnTm1ZMPRPUnCOGjlaFvu+fXtl46OgpMYdUMmXNx8aNWqEyZMnC+MPCUEgAaHG8+HjB/To3h3OLs6BokjhnT9ffhQsVAjv3nnh+vUboo2ns00nC5iaN+Ma5s2fK4I0qEJzK7XyxIltZIOjxcXeoZMI2nnz5qFX71547/ce7du3x5y5cxE1ahQMHjQEbdu1FdJFF8Oq1asCJQjcpBfMX4hjx47KJpQpc2Z4enjC2fmWWD0GDx6MmTNnYfKUyaKl0SpQt25d2YycjjgJCSpSuDBGjhop40TCMWb0GPj4+KJX757SNQoDYuLg0FnmSouWzQPtMjHq06ev4EVyZYgFOXHihPRbS9AIcMwnT5qM3n364NGjbzN30mJHy9i6tetRsFABsQSQUPTr2x937tzGxk0bUb5ceZQuXUZIXLt27WUecwxoGicZ55jUrFlLLAtcw6dPn0KUyFHw7PmzUFsQKPxKlCghQm/+gnkSK8M2UcgPGjgYs2bPhKurK0aOGIUhjoOROHEStG3bFqtWroT7E3dxEe4/cEDWf+ZMmbBt2zZx/TE+iVYoWj6HOg6Tdt65fVv2Gw9PT8ydOwcdO3YS4kDFxvWRqygZFO6hdZUQz1y5ciOOpSWSJE2KWKamGD9hPFq1ag0PDw8sXLhAFIL27ToIsc+fP79Y4ObNmytWsqGOQzF12hRZ27T6kfBw75o5YybWrVsnVpTateoIPiQb8+bOl7V4+7YLunTpitevXmHb9m14/PixWBXUyhb2HUIJQggx5ObByUwtol7deogSNar4j3v36u1PECjI06dLh/HjvxAECmxHxyHIlCmzLOA5c2ejQvmKYo7s0rUzUqVMhZYtW2Lr1q2oVq0aHrq6YurUKfL3pk2aiYmRmg/rzZsnLzp0bP9Na2lW27hhI6pWqyKBkywUPqVKlZYNgIPr4uwi5IWbVkCFrJ1tIEGg6yKgQuKyZfNW1KhZHaYmpujQoYPEX+TImRMxosdA9x7dAtU2KCSpAefMkVM2vH3794lgjxXL9MunPkPMmRR63MyCKtw0uIFfvnxZjl0WKFAAXTp3FvIzbdp0NG/RTNrXrVt3sb6QgNWqVRsNGzWQcWM8wJ69ewMlCGwnN9E1a1ZLIiyOOQkWhQLxHzhogBAIEoByZcvh8uVLqFS5MhyHDMGDhw+QM2dO0ZRGjR7lHwg5ccJEIXMGgmDoHze0TBkzBUkQLC3joHnz5qKhkhyxcOPjxrl06ZIQztw/97HSpUvLmFNLDcjcTK2TloFSpUuKxs9gRQcHB8xfMF9cRbQ++fh4i6Wrs0NnEWJ097Vs1ULiEFgYoFurZk1ky55d3HOcI3QZhraQIFSsWBHJkiYTy5RhLVAjp7WJ9XL+d3boInOJlg7uH4z7oSDn3rR2zRoRxlu3boGJqalYsaJHiwYvL5rgE6JIkSI4c/aM9JXuE5KcLVs2y9/atm2HJIkTi+Dl90mQQ1O413Tu3AUfP3wUCwX3Qe5/xK53rz6yHk+fOS37AC0l4yeMQ8sWLWWPY7wFidDAAYMwctQIUaKoPGzevEnaSiJACyMJfDrb9Jg7b47gs27denTp0lkCxgsVKozKlSvDOpE1jhx1EotoRAjoDM0Y/IxnlSCEEFUuKIMfnxpDgQIFhclTs+BEnDJlMtq0aYtUEng2UgiCWaxY6NGzh/icuclzsVStUg2ZMmWSwEKa3hj8SBMoTckWFubo1r2bCI6WrVph9epVsohJEHLkyCGL4evChU2CULde3QAj82l2pAbK+vfv3xdgT5MlS4ZuXbtj/4F92L59u3/QJDcXpl328PSQjWn5shUoXKSQxELQJbFx0yY8fPgA8+ZSWC3F4iWLA6yf9TRs2BBpUqcVTWbxkkXo3q2H9IuF5IM+9YWLFgZ4CuLrSkmiSC769euLbNmyo0vnLmL+/ZogUJizfn6HAWbDhg5Hg4b1wQhpukY2bNgQKEGg35OupObNm4kJ11DKli0nhICb9Pz5CzBq1CiUK1tWNjyaZilQjh8/JnOicqXKGDFyuH9fwkIQ+H3GHTRp3ESIDq0P/fr3FXKmJXgEKPQokLp26yIa7Pdl0sTJYp4fNnyYCFmeOCHhI0knAdi4YZNYth4/eozWrduIkOMcpDBr0LDBNwHG3EgXLliEFSuXi8uPhXExJYqXxIIF84M1d5NIMxjR1MRE1oLB4kfynjx5CgwePAgVK1REiZIlZf5PnjwFLs7OGPFdkOv+fQcwYGB/FC5URKwBnNN0l5QtU1asaLRYBWQZ4NziPtWpo70oMl/cdRACFdvSEitXrgiSNNSoUVPa1717N3j7eIsVky7DtevWihI1ZsxoiTnq1as3bKytMW36NLGirVy5Uix2bdu0lTgIugzoOmEg8c5dO8V9N6D/ALRr31b6QJcL9zP2a9bM2aK0GIKbaRUiQaclt2KlCjLmtLLS+urj6ysnpdSqEPy6+foJJQghxGvWrNnieJ3cYQAAIABJREFUM/N6904CE48dPyZaHE3NFOBnz55BxoyZJFhw3Phx6Nq1m/gLqTEnSpgI9x/cl1iDFs1biqawe89uWJibCxOmgKH/bNCgwfj7779F2/X19cHceXPh7u4uEe+MN+jb94sf21AoPKZOmeYfiHji5AnZtGrVrCUmbjm6mMFOyAsD+gIqXFTVqlWXSO8LF87LvfLU6s+dP4sqlavi7t07siGyTdTEqJU3bdJUyAR98jVq1JCNbcCA/gF+gwShTp06EtzI4MztO7bDwd5B3CUsNEnSNEl3SkDHJL9uM0lBt67d4OTkJL5f/kPzL4Oxxo4Zi46dOoi237FDJ6xctUI0OWofjBnhVduMQRg+fBiIU8BYRMWwocOkr9ygGATGgFNaK4oWKSaCf9rU6Zg4cQJKlSolbgVGXnM+MDCN9XMekCwZot/pP/b19fO3IJAUZs6cRVwR9Mdu2bIFN27cEJ9xYIWWDG6aPCbKYDMtIUPAwb6z+K8ZZMjxINnlOHFd0NRdqVIl0T5Pnz4tgX8UkJkzZRZSQIvc+nXrMXDQQLEcUPjxdwqYuXPmiSvw1etXqFqlqlgQqcEzCLZzFwcxcRuEa5MmTWHvYB/k+PJZWv4qV64i84IxLls2bxHXwbhx43HjxnVxoVHjZtvpbmAcC9c5g/SiRokqJ4LWrlsjwcRcBySV1M7pkmPcDwlI7959sG/vXjmezfgWulGs4lgJKaIfP3myFIgcOZLsR4Y+LFiwEOZm5rK+b9wM/BZWWjpatGghayKuVVxZC3QLbNy0AX1695X1xzorVqwkJ5noSqBrg2uM+yqtJLTaDB3miAYNGkiwKE9TkWCt37Aee/fulX2Hv7E/PBmVP18BsV6SWOTKmVPwosuUz0yZMkXGnOutZ49eePnqpfQhsGDtkM2oP+8pJQghHPOCBQuJQGKQGX2U1IAp0OhDJ7OlhYFxAIZI9n79+sMytiVOnzklmwq1PgYcMhCRQvvvvw8gEiLj6LEjIsjI4HPnzo2sWbIK86XJnacYyPbpi44Xn0Lr6L9aSwsA3QRk7TwqSGLAoEAGYTFoiiZFRjcH5U/k5sFIfLpCyA4YnU0TY56/8iBFyhRyOoCbDf2i3Fjor2TOAvaHpm9q2MSEpv/vC3GhS4b1k3wsmD9fAhQNRyLFDeLiIuw+uLPPJBkUzImsreVcO8kNtQ+aIXlskkFXFKYU2CRE3BRoEubGzY2B40UB6+buFuiok9CUKFFSTL3UTI6fOCauEUa9Mx6EcQbUyJInSyYaGgkef6Pl6MbNm9Iejh8xNQTJ3bl9B45Dh8g3edyT5teo0aLK/2fbXVxuyymXoArrUpNpCBfrP4/ResCjpIzoZ+FYcewYfMp5Yfjdx9tHyC417JgxTYSwMdCOpJlEnlooSSznN+tgbAK1Y85BrjUS6C9z5bg/Sea66NChI5jvonefXhI/EFTh+ud3eCrI1NRENHh+g6caOK9oraOS8Ob1G1E2WD/nacoUKeDh4Slzk6SmQP4COHT4oBAg5vtg227cuIk3b16DcVT8nS4vrgO6yGiF5N5GUuz68KEESbOthuO9mzZulv2JlquArDCGPrE9RYoUhW3atLhz9y58vL2FUJAUUEjTBUCMuAbv3bsrGFPZKFy4iByvfvHipQQYsl3EgW1i2/gc3aysn22nwsRTGcSCa4KkghZOEgPuzffu35fYK4OlgLFD3G+2bd0qp7QCi8UK3cz6c55WgvCTxnrw4CHgxjNq9MhvvkAfYsL/P8rYp0/vn/Tl8FUtAxC5EXADpFB0d38iRIhaPUvs2BayYTEJU0Qx/5G4FC1aDKlTpULVqtUwdtwYsQxp+XMQiGMZB/Xq18cjV1fs3LXrnxwjv1f/o0ePAbrINmxc/69EX79DT7jnFCpYSEjI8hXLxFoU2sDL36GfP7ONShB+Ero0V378+Ekim78ujCymlvon+5ENiV1+EvS/vFoShDx58ohLhVHYtCr86qybvxyUP6wBtCAxYO7V69d4+/b3zAoYVch9KrEg/I7zl/sMjyzz6Cnzwaj1IPSLUAlC6DEL0RsUEizfZ0oM7PcQVaoP/TYI0PzJDUo3pd9myLShioAi8B0CShB0SigCioAiYCQEkiVLjsQ2NuLLDyoTIWNzqNkyiRGfI5lkgK2paSyJNaHVwfA+fesMTjQUHr0M7khwcN0hgWWMhsttl3CdcbB48RISQBnaY5fB9V//HjIElCCEDCd9ShFQBH5TBJjWun+//pJc6nuLXmi7FJh7zPB7h/YdkCx5cokxCowg0P3AI7rlypVH3Xp1JPCOx/Z69OgpybMYIMmTOQxsZSAko/cZ/c+TDu+838kJIiZdC0thUKKj41BMnz5NTuoEV36mW7BHjx4SALpr165vmsFvrlq1GkOHDpXssWEpP7P9YWlXeH9XCUJ4HyFtnyKgCPwQAhSo1Oh58qVG9Rro2rWLnGxhXAjzb1ArZWAsI+QNt7TySB8vE+OJmchRIovwZrIs1sXoegpWSQb08KEcc/xy46m1JCVjWuO+ffrIcdS5c+cG2GYKKsanNGzQUI5FN23WRHz8PKnEk088wscTCUwaxDP/jRs3ktMVzDPAZ5YtXyoBvj9iQWA/mVwpRswYUheTqQ0eMlhOLfA0FK0UPLHDrJOG+nkMkQnZmHDpxcsXcnKJJIuneizjWEqAMe+BIKYMAOSpCSZ9ojWE3yPGPAWVOEkSmJnFEtJEPIkrs7EmSBAfjkMcsWr1aklTziBmWk94akTuvLC2wd8H/xZXHbHjb4ztiB4jupyKMJwAYzp4E5OYiGUaS+57YFZWxk0w3ovjY2ERW+rgnTNvPYK/FO6HJlwEfEkJQgQcVO2SIqAIQIRJvXr1UbtWbTky/OD+A0lBfurUSclEyPwg1NB5SVLNGrUwafJEyWtAwc0LghImSCjCeMLE8ZK2mAl3eJkRcwcw4+D0GdOQOXNmuSuFheSBlgAHB3s5nhdQYb4E3pBKYsLMnWPHjJEjvzxiTOsD0ziTfDD/AS8jcujsIMf5mGuF7zJdcUhuPQ3o27xmndkG+T4JETOYMoERU3kze6Gvn69kIuXRTl6qxns/WrVuDXMzMxGuPL7I+yeSJEkqiY0oyHkfCwU7Ex4x9fTUqdNgYW4hlzGRVBz4+28437qFGjVryvFNczMLPHv2FFOmTsVfuXOLFYVHEZnP4eWLl9i9e5dkdOU4MD8L3St16tYWtwvxZcIwZrzk0UgSF+Y1oVWFRxl5jwSPfBJXJpPiWPMoKBNgEW+ShSVLF8vRSC0hQ0AJQshw0qcUAUXgN0OAAcH09a9auVqEPxMiUUOmsOAdGUuXLRVBP3HiJLkIbcWKFZJ5lDkzmASNN5A2atgQjkMd0aJFSxGsTNiTIH58SWnMhET16tZHlKhRJOsp71vhpWrVqlcL8OQCNWAmbmLyJGYmZKrnA/sPYPuObSLIeBEZyQtvbU2ZIqUkE2JeANmk27UXMrNu3dofCnwlWWKCJyZrY5+ZqZVEhBaLcWPHY8/ePXJJU7GiRUX7nzd/Plq1bAmm+54xc7pYFOga4b+Z0O3unTuSV4D5TXiMkDe60lqwetUauaGW2SCJNYkFCQ4JUMyYMcQiQELCDJDMiVChQgU0athYMsvy/gdiTwsF4zP69esn/82kVCzEiNdBk4yQ3EydMlUutHJ2cRHCwkvMeDps9uzZcr8D88bwd1p5mPmVhIa5Vn6UYP1m098ozVWCYBQYtRJFQBEIjwjQPL9yxSrUb1Dvm2C8YcOG4/KlS3JteqlSJSUlOjOTMlPnkqVLcebMabEaMNnRiuXL0a5dO7i6PhJTOk3o3DjnzJktwn7Hzh2S+IzkgFlPeS06heP3hRosb4/Mn78ATpw4Lv8mMeF17fydGQFpTmdCIhcXZ7my3HDde6dO9uKjp4Yd2muY2Q7WPWzoUFStVlW08k6dOuH8+QtyfTzTSDNPh997P7kK+vbtO9iydQumTZ2GQYMGfnNbK10RU6ZMRZs2rSUxE5OQlfz/5GWMiYgRIyamT58urhxD5laSDVpwkqdIgZcvXsg157zFlvXyfoxOHTuJO6Fvv77f9ItkatbMWdiwcQN2794tQp43PJKkLFm6RIjEooWL5fp2/jfv3eDFU0wOtWPHTvTv109up2WGRxI31kfM+XxY41DC4zz/WW1SgvCzkNV6FQFF4JcjwEQ5TDFcpWrlbzJRtm3TTi77on+6Z6+eOH/+nFx73LJlK4wZPRqXr1zGhPETJK7gyBEnlCtfHkuXLJHsmSwUMjTTt2rZWrRynlpgOnb615nSN6CEPClSpJBU3jdv3pJYCGYqpb+fd0HwlkZeMc5Lhlg3TeqGOpgplTeUMq6B2RoNhSb38uUrSGZCav9BJRqjBaRO7TooU7a0pJMm4WA8A+8PoRWgY8eO+PTpo1RNTZ6CfemSZWjSpLG4CwyFmSN5YVr1GtVE6DKAUlK+T5sq2QyZPplkzJA3gZkdGzduIvc70ALCi9R4Rw1vXiWJGjF8hGRSXbBwwTdzhfELy5YulyyUfI8WkDat28D10SNJy073z5w5c8WKw+ujma2R6ahpzdm+bYeMN+McSIaYC4EuC2LVqHHDYFO6//JJG44aoAQhHA2GNkURUASMiwADFHmbIE3OFO40QVPwUjAOHDBQgtl4uoFaefXqNWDfiRd6rRfhJf/fvhPMzM1g38lBrnenZs+4g8NOTnj+7Bm6du0qAo55m6tUqSKnAnileECF97PwCCS1ZQpzau4Uqrz6feaMWZLtj3dzfF0YzMjr3zNksJMU6KybWrKkYE+XDrxwivdLzJo9K8hU5SRDI4aPFE2fbg7WOXjIIJjFMpN4B7b79Zs3sE1rK9YQxgEsXrxE7rE4eeKEBDHycjI3N3dMnzYdW7dtFddB0SJF5aZF4kqMbNPZomPHDv5dYHxHu7btsXPnTokBqFWrFnbs2C731RDzMWPGSkAoL4s7e/acuAEYA8IL7Wh5mD1ntgh6WlrozmEWVroOqlatKq6SyVMmoUH9hhKTwDtQaC2gq6Z27VrSlrx58sl10LRyMCaie4/uAVp3jDvrIk5tShAizlhqTxQBReA7BMTEXbs2mPqYPndeUETNl5pwh/Yd0b5DO7nzgPEKjRo1QuLEScRvzntUeN0wTxTwb3QH8F4Earb0fzOGgP54ZkwtW6ac3JVA8zdN4oGd2W/WrJkcKaSgZ2EwHQUhLzXiZUV0H9CF8XWh5YCme0PZtGmjf8pg+vXHjR3nf4NkQG4Nw3s00TPQkQSARIkkw8npsPjjGbhIF8Snj5/EtXLw0EFpR/r06VGzRk2JQyA52rlrh5CQYsWKoVzZ8hIcyDbTekGrB09FvHz5SuIoDIUaPC+ny53rL7nRkoGX586f8z9ayf4XKVxE7mlhfIenh4fcghkvfnz/OkgQaDWgtYf3Y6RMmQo3b93E8uXLxN3DC6nYXgZLkkAwzmHb9m0S68Dnzc0tBLPVa1aF65wP4XHxKkEIj6OibVIEFIGfggDN8tSgKZDPnT0rgYosvIqcbgdn51vYvGWzaOjf+/opjEguvvdh83c+/1/m+Wc7cuTIKbcaMhbCcLdJcKCR7ATkg2cfWALrM3//un+sJyCMAvo+28p/fiR24vv6WA/bGtI4AsOYfd/+4HDSv39BQAmCzgRFQBH4YxDg7Y6MhmdgGyP4DTeIMv8BNeP7Dx6IJhrei+H2R27gPFKpN32G9xH7PdunBOH3HDdttSKgCPwAAtR86TunG+FrjZYCl2Z4/qbC9geA1VciJAJKECLksGqnFAFFQBH49QjQxM/shpLf4J9TEr++VdqCkCKgBCGkSOlzioAioAgoAiFGgOQgXtx4kp2RmSnff3gf4nf1wfCBgBKE8DEO2gpFQBFQBCIMAiQHTEltk8ga3j4+kupaCcLvN7xKEH6/MdMWKwKKQCgRoMAyROqH8lV9PJQIMJ4jtkVsWCdKhGhRo8HD01MJQigxDC+PK0EILyOh7VAEFAGjIyA+8FixEMskFqJHjyaXLWn5uQgIQTC3kGBQFiUIPxfvn1m7EoSfia7WrQgoAr8MgS8+8LiIHze+JDjS8msQUILwa3A3xleVIBgDRa1DEVAEwh0CBh84Mxxq+XUIKEH4ddiH9ctKEMKKoL6vCCgC4Q4B5jtImjiJpFimyVvLr0NACcKvwz6sX1aCEFYE9X1FQBEIdwjEjBETSZMkhbmZ2U9tW0wTE7kimfc58AImujUCSinMOyESJkyI+/fvf5OymOTlR1I08z1DwqfgOmhuYQGrOHHk2yw/+s3gvhPY35Ug/Chyv/49JQi/fgy0BYqAImBkBHhDIAkCrxY2FLoaeIFP6jRp5BpgZlNkTv8zp0/LZT4/UtKkSYPKVati/bp1yJAhA1KlSoWZM2b8iyRkyJgRNWvWxIjhw/0zNfJ6af4+d86cEN8tYGgjAy8bN2mCLZs3SxIikhJevBQQ2ciXPz+KFC2KCePHo2TJkogaLRq2bdkS6N0IFhYWErPx4sWLEN2fQFKUIGFCvH3zRtryfVGC8CMzK3y8owQhfIyDtkIRUASMiEBABIEad5IkSWBtY4PSZcrg8sWLcHN3x/17974I7UiREOWfi5eePn0qwjaWmZn8ZrizgcKQlgASDP7Gy58qVamC9WvXSuvjJ0gghCNGzJgSIMnnnz1/jlQpU6Jm7doYMWyYvEstPk6cOHJr4flz50ChbDhx4evnhxfPnwtpsLS0hEXs2Pj86ZP8f1oqeGtjtOjRkStXLty8cUOE/4ePH3Hp4kW4PnwIq7hxYWpiAi8vL7x69Qp58uZF0WLFMGbUKCRNlkyEP98zMzODlZWVkAD2lxYQtrt4sWJIZG2Nv//+Gw/u35f2sp/87ouXL2Fhbi7/zfp5yRX7Ub5iRfn+hfPnhah8XZQgGHFi/8dVKUH4jwHXzykCisDPRyAggmD4KoVzR3t77N61C7du3hQhWb9BAxGmjx8/FgvD2tWrRRsuXLSoXFF8/NgxIQw5c+VCvnxfrhd+9vQpHru5oWy5ckIQbBInRtIkSbB161bkyZMHqVKnFqHL652jRY0qBGHm9OkisElKSD5sbGywbetWISwkCYydoNtiw7p1QgYaNmokiYZINjw8PLBr5075Nl0W1WrUwOmTJ+X7tAo8fPAAB/bvR6nSpaUeEg6nw4eRJGlSIRFjR4+W9lPA8/pm/kb3w3s/Pxw7elSsKAkSJJB6E8SPL5dA7dm9GwUKFkRsS0tEjhRJ3iNZYD9379kjF1wRz2zZs8v3Dx08KO8pQfj5c/y/+IIShP8CZf2GIqAI/KcIhIYgJEyUCB07dsT2bdtwy9lZhPK5M2dw/vx5tGrdGlu2bMGd27dFEPbt1w9Hjx2D861biBolCkxMTVGhYkUhCFmyZoVt2rRYt24dKlWuLMSAJOL169ewtrZGo8aNceLECSECO7ZvR+6//oKtrS1mz5qFps2awcfHB0ePHkW1atWwYcMGvHzxAl27dcOsWbNQsEABISx79uyR56j9d+zUCUsWL0ahwoXFXUJLxLNnz5DW1lZiL/IVKCDEhhaCwkWKYNyYMUIeSIgYj5AlSxbs378fPt7e0kYSJFoXqlStCss4cbBv716YmpqievXq0t5UadLAz9dXrslu1aYNnJ2dxbpy6uRJsSCcPnVK/qYWhP90qv/UjylB+KnwauWKgCLwKxAILUGoV6+eCGpvb29kz55dhP7ixYvFsjBh3DgRwNTKh40YgSGDBomQZkmTNq0IVH+CYGuLHTt2oGChQli2ZIm/T56xD/YODpI06OSJE9i0cSNKlCqFdP8QBJISV1dXsWq0adtWLAEU4o7DhokWz1iHCxcuCOmgu8FAEObMni1E4J2XF444OUlSqNp16kj76Eo5e+aMWDFIIr4mCBTiJDy0SBj6Yhgn9p2ug3Vr16JEyZIoU7Ysrly+LGTo6ZMnYvFgn3Plzo2VK1bg7p07qFuvHv4+cADXrl37VxyEuhh+xQowzjeVIBgHR61FEVAEwhECoSUIderUkeBCEgHGKowYNUqsBg8fPhTtme4FmuxJEGbPnIkHDx4IYUiZMuWXIMWvLAibN2+WuIS1a9ZITACfS5cuHZo0aybCPlPmzCKY+a7BgmAgCPydBIHC9tatWxgzbpyY7RkLwP9PYc/yDUHInx88yLl37140atIEJjFiYOnSpShXvrxYFAIiCAxATJw4MVavWiUaPwM4GVfAUr58eSSyscHypUuRMXNmVKxYEVMnT5Z6GAfBZwc7OuL6tWvyPAkRrQyHDh/GlUuXlCCEo3UQ1qYoQQgrgvq+IqAIhDsEvhCEJDCL9e9jjtScW7dpg/379sHFxcXf775g3jwhCCwUeMVKlMDQIUMkgM9QqlWvLjEIN2/dEg2cJnxq2RT8jDngKYalixejYqVK4vunUGW8wY3r11GlWjVMnjgRxYoXl5iET58/i5BetHChaP2Mf6BZv1mLFnA6dEhiAsZPnCiuA7oX7t29i8uXL4uVg5YC9oHvpk2bVmIYGAxJQlOkSBHcdnFB6tSpsXPnTtH6GzRqhBnTpyNjpkwSVEhrA0mR3/v3iB4tGq5dvYpdu3ZJN+kqoZvj0aNHckqiVu3aQpp8fH2lLSQ1JD20JDRo2BDnzp1DsuTJkShRIgnQPHzo0DfzgbET9x7c18uawt0qCb5BEYog5M2bF8mTJceZs2fw/v0HYdVaFAFF4M9DIFq0aIhlYiqCLKBC8/vrV69E2PJEAAPv3N3cRPtl1D6FOIUp3Qtf5zUgKaBAppClC4CBhClTpZLAQZr++a6bm5sIcP7OPYgkhPXGjx9fBDi1f8Yh8OQErRJPnjyRv/H0AtvEEwRvXr8WqwMDEJ2cnCSYkYJ70YIFuH37tvSLcQ3u7u5CVEgGTGPFElcA3yPR4SkLEgtPT09ky5YNd+7cESgo7GlZYCxCytSp4fPunVgnDOSIdbM+uhkuXrwoAZAkBbQekOwwPuGJu7s8H8fKSoIXP376JBYRWiZIZL4u/Ntbz7f49PHTnzcRf9Mef/6n3TxFU7VKVTgOHWL0nmTKlBmOjo5IkzqNf92RfHx8Pk+aNBHLVyw3+gfpp8ubN5/UywWpBMHoEGuFisBvgQCF2SNXV3i89QhVJkUSi9y5c4tff8umTRKI96tKwcKFkTVrVhH6JBT8h5YKCvffpXAf5rHLBIkSIErkgMna79KXP6mdBoLAQFxamVauXGH07v/nBEGOCP1zxtjovdEKFQFF4LdCgL7yhPETwiRmzBC3mwQhffr0oh3fvHnzh7IchvhjwTzI9vP4IK0RBhcDyUFAmRqN9U1j1kNy4PXOS1wf7z98cd1o+f0QINmmpc3Y5T8nCMbugNanCCgCvy8Ccu2whQUSJUgkeQN+1zsZDO3+kZTMv2r02FaeXnjy9Ak8vTx/KdH6VRjod4NGQAmCzhBFQBH4pQgY7iwwNTGVM/70l0Odjz91TD59/igBjdQ6GWfxOxGbnwqMVv4NAkoQdEIoAoqAIqAIKAKKwL8QUIKgk0IRUAQUAUVAEVAElCDoHFAEFAFFQBFQBBSB4BFQC0LwGOkTioAioAgoAorAH4eAEoQ/bsi1w4qAIqAIKAKKQPAIKEEIHiN9QhFQBBQBRUAR+OMQUILwxw25dlgRUAQUAUVAEQgeASUIwWOkTygCioAioAgoAn8cAkoQ/rgh1w4rAoqAIqAIKALBI6AEIXiM9AlFQBFQBBQBReCPQ0AJwh835NphRUARUAQUAUUgeASUIASPkT6hCCgCioAioAj8cQgoQfjjhlw7rAgoAoqAIqAIBI+AEoTgMdInFAFFQBFQBBSBPw4BJQh/3JBrhxUBRUARUAQUgeARMDpB4N3u/Ifl06dPwbYgcuTIiBkzJqJFi4b3fu/h7eP9U+4mZ5uiRIki7eH95+GhsE0xYsSAr6/vD/XZ8D7rINYeHh6/vFscz1ixzBA5ciT4+PhI335m4bxhef/+faCfMTExgZ+fHz5+/BimpkSNGlXmEOv6/PlzmOr6+mVTU1PBKiTrxWgfDYcVcR8gDsYusWPHRrx48fD48WN4e3v7Vx+SufN1Wzj2sWLFAhAJ3t7vgpxzfI9rwdraBp8+fYS7u7tR54yxMdL6FIGAEDAqQaDASpYsGbJmyQpEioR3Xl548OABbjnfChR9Lrj8+fIjvZ0dHty/jz1793yziI01bBSiuXLlgpfXO1y4cN5Y1YapHnNzc9SpXQfr1q/D69evQ10XN7jcuXMja5Zs3LMwc+aMUNdh7Bc4njVq1ERsi9g4eeoETp06FewnuPGmTp0az549w6tXr4J93vAABXa2bNmEkJ49ezZAActnqlevgYsXL+DmzZshrjugBzNnygzbdOmwZ89uo5Ex9r158+bYtWsXHj58GOr2UQglTJhQ+v7kyZNQvx9eXiA5aFC/IRYvWWR0As89qXat2jh58iSOHT8mRDF69OiydqiUnDl7JkTkLEGCBKhYsRLMzcyxZ+9u3LhxI0ihz7EtUqQoMmTIgPXr18HNzS28wK3tUARChIBRCQI3q7Jly6JunXq4fuM6ZRZSpEiBESNH4N69e9Igg3XBoIFRcKezTYeq1aohSuTImDhp4jfC8vvnQ9SrAB7iBlS4UGF4enrKJvF1Ce03+HxoNEiDVeV7DZGaTZvWbTBv/jy8fPnSv0mG+gP6DjE21GMQrEWLFkPJEiVRu06tf/X8R9r6fd8M+LDy4PrN8SxYsBCKFyuO69evYdnyZcG2iaSie7ce2L1nN06cOB7s84YHOKa1a9URa8XSZUsDtBCwPVOnTsOGDeuxe/du4DP/9632TxwDsy58jXe1atVRpnQZDBo8MNTC+Ot6DO0nrhRU69dtwLDhQ3HixIlQT2/2r3z58iLotm3fFuD7/DbHLbixC+7joV0nAfWZ3wjod1p10v/mAAAcmklEQVR5OnXshAkTJ/yLIASGXUj7w/H96688yJ0rNxYuWiDkzszMDE2bNoWnpxeWLVsaICn5HjcLCwsULlwEFStWxPr167F//75viEVA+FhZWaFSxUp48PABnJycjE5+ghsz/bsiEBYEjE4QKleuIsJhztzZ8PXxxcyZszB23Bjs3bsXtra2wqgtzC1Eu+SC4SLnQqxXrx5SpUyFqdOmCkHgYkuePDlKly4j2ujZc2fk+fLlygvZuHjpoj/hqFKlCm673MblK5cDxIILu17deohtaSl1HP+HIHDjoHaZJnVqsVrsP7Af165dC1RY0ExZu3YdWJib4+XLVzh0+GCwWmmB/AVQoEBBRIkaBdeuXsXefXvx7t07lCheApkyZxYXw7x5c6XPefLkQcaMGREnThxcu3oN6dOnx/ETx3Hr1i0UKlRIcLO2thZNc83aNWLiJE58r2OHTmjYqIF//y0t46B48eKC+fPnz7Fy5Qp4eXkFOldMTEyRP39+5MyZU0gUBSq1eVoD4lpZ4Z33O8SIEVME7IyZ04X4UaPevmO7mG+LFS2GzVs2i4mYJvMGDRrC+907f4JArOvVq4/ENjbidjh46CCuXLmCNGnSoErlqihSpIj008XFWQQdx5g4EG8SqcuXL8Pp8GF4enkiaZKkqFmrlhBQK6u48k5wBIHaXtSoUfD82XPs3LkTbu5uyJEjBwoUKIDYsS3x6NEjbN26RbAipiStpUuXBq08tDywn2XLlvMnCL6+fqhbpy6cjhzG9evXRRvNmyevuMpIRK5cvYK0adIia7as4PyLHy8Bzp47i71794ibgtYsElaOe506ddF/QL9QEwS2rW2bdkifPh0+fvwkhGzX7l3SHn6zXLly+PTpM5InS44PH94LEW3cqDFWrlopYxs/fgKULFFC3gnKclO5cmXEjBETFHYWsS2waeMmxLaMjWxZs2PuvDlInDgx8ubNi9OnT8t38+TJSwOijM2pkyfhdMQJKVOkFOLI3xMmTIQLFy9g3769IjBLlyotFkTOm3Hjxspv8ePHR9GiRWV9JE2aDA8fPMDadWtl7mTKmAnFihUHrUNubo/x5OkTHDx4MEgCxGdpaaGVhfUbCELixElk7PmdRYsW4sWLF9IOroUc2XPA188PK1aswLNnT2XtEDMSGfbJQBA4h7nnsXPmZmbYunUrnF2cpT2cS8SEexzHOqSkJiybur6rCBgLgZ9CEBo2aIDTZ87Ixp49W3Z06NheFki7tu3x9OkTPH36FFWrVsMQx8E4d+6c/K1u3XpInep/BIHCoWuXbiJY7929i1KlSmHM2LEoVrQo/PzeY9LkiYIBnxs/bgLmzJ0ToPbJZ7jgSSzI/ilwV61aKQuVm0Bnhy5Yu24NqME4O7vgzJnTgfoW7ezsRBu45eyMdOnSwTK2JWbOmiFulICKjY0NxoweK8KQgidGjOjYt2+fbELZs2dH1qzZxPTZpm1rMT+2aN4C2bJnx+dPn5AkSVIhEzbW1rIxtm7dRrSVw4cPo1rVqti2fTuWLl0inyVB6NTR3p8gUCNvUL8B7Owy4NSpk8iXL79oTRRCAW1Q3Dy5SXNMaF0hUbO2sUa3bl0xefIUeHp4iKC8cfMGsmfLgXHjxyFG9OioVKky+vbrA1vbdOjerTu6dO2Mt2/fCpYNSRC8vf0JAjfgwYOH4MyZMyAuWTJnwZixo4UsUVDWqlVbTL2XLl0St8SbN6+xZMkSPHzgivMXzovw3b59Gw47HcbiRUtw+7aLkAgS0jVrVgdJEKZNnY4kSZJgwYL5yJUrN549f4YpUyYLaaRAf+zmhvz58okwGD16lAi8/v3649q167hz5zZoWt6ydQvy5s0nBIFj3qtXb8F2xowZgn/jRk1k7nz89EnmGrFIkyYtHOztcfTYMfh4e0tbq9eohuTJU8C+kz2uXrsqQpfkqnuPbqEmCLSgcAz++usvfPzwQUzop06fEoFHjGdMnylk78jRIzJXZ82ehZkzZuDM2bMYP34cKlWqhHJly8PRcQjcn7gHuqdMmjgJ6dKlx7Fjx/Di5Qshannz5UPNGjVRpmxpEaTt2rXHgoXzYWNtg44dO2LDhg1SH+fGhInjkSpVKnTr2l3mNOdIwQIFZR5dvXoFOXPmkvXEOVOtelUhASTHvXv1ESJH4tG0SVNMmjwJV65cRreu3YSgcx9p2LChrKlRo0eGSviSIDRv1lzI+959e1CkcBFZ/yNGDpfxqF2nDo4cOQLbtGmFFHAPIyGPFy++jN3XBIHWu27duuPw4UMST0XS0b1Hd7x+HXJ3mbE2dK1HETAmAj+FIDRq2Eg29Xhx48om2bNXT9Ecm7dogX179+HlyxeoWKkSXJxdMHLUiAAJAv2Gw4YNx9QpU3Du/HkMHjQYbz3e4sKFCyhTujS2bdvmr7W0aNESLVq2kMChwApZPDeEZ8+fY8WK5bKZlCxZCi1btsTYMWPgcttFhFVQwW4UJmwXNz1qDdmyZsOsWTNx+szpAD9LLXvUyNFYs3a1aDje77zh4+vjv5ExgGnx4sVo2bKFBFC1atVayIHXOy8RRI5DHeFg3xnLli+VzZNaMoUATd2M2+jTt7e093uCwO9yE6NPn9pkokSJRPslEQnIT03h3759B8SPF082Rcs4luIm6tW7F9q0aYMjTkdgm84W+/ftQ/Xq1YWkPH/xXDT/Xr17ivDo2bMnHBzs8ebNmwAJAjUptoMWEm6gpUqWwugxo8QywO9PGD9RcKKliSVN6jRYsmQpZsyYLuNCDfX58xeymTsOGYoGDevLc82aNceb16+DJQinT5/C3HlzRdPnPBg9erRonhRM1FA5rhns7DBw0EDUrFELmTJllP4brC5sPwkUrQamsUxx4/oN9OjZXQgGhVf2HNnhdNhJLCgcx3Xr1uHhwwfyztRpU4TM7N93APYO9rIuKGAnT54kc3/1qjUYMLB/qAkC+0+BVL9+fdCisfwrd05im8SYPn2GWHUWLlzgPz/LlCkjVqEuXTqLUL9//z42bdoY5LyfOmWqBOZ17uLgb12ja4yWj+IlionViRYs4st13qmTPYoWLSJzpn//AaKZs/Ts0QvlypcVTX7c2PHYsHED1q1bK3+ztLQUHCpXqSQEIYNdBvTp0xeOQ4fA2dkZSxYvxfnz54UgVKlSVRQEFxcXbNywSSwzw4cPCzVB4Nzx8/XFwkUL0ahRY1SuVBktWjaHg70DzMzM4eR0WKwUbdq0ReMmjfHokWuABIHKS9Uq1TBo8CB8/vxJFJYRI4YHGXtlzE1c61IEfhYCP4UgFCxYEJMmTRLz39Qp04TpX7l6GXVq18W58+f8I9tvu7jIBvbFglAXqVOl9ncxpE6dBn379BXNgBtBhw4dxexIrZJkgYIvZ84cOH/+gpi4uXkFVQIiCBRM7dq1g136DHj/4T1Wr14tWkBAJIECgqbW5s1aiBUitoWFaPnc/AMLxOPmUqtmLXGrUGM5d+4sFi1e5B9vEBBBoDCkUKpQvgKGDnNE9+49xEfKzXjOnDmicdHdQAHeu08vsQx8TxAyZsiIbt264eWrV0I8WFgvN2NaMr4vcePGRb++/SVC++atL4F8tFbs3bNH8KHrJWPGTDiwf7+4ZOgecnNzR9WqVdGrV0/QstKje0/YO3TyJwh0MVBrNsQgWCeyxpQpU3Hz5g05BUALysBBg3D58qWvCMIaMcGzFC1SFMOGDcOmzZv9/bx3bt8WbDp27CSaJv33tAKQ7AXlYpg2dZqYfWkF4HepgdKVRS2WLhhqjlZWcRAnjhUGDxmMBg0ayJycNm3qN1H1JGYkF48fP4K5uQU62XeUv7ds2Qp26dPD2cVF2kLsKMgiIZK4yGhxoFa/d88+9O3XF8SbJG7q1ClCMDZt3CzWNMYg8Lu0eNENwbEN7mSDEIR69cX68T1BGDFiJFasXIHdu3f5DzmtepMnTcbxEyeQPl16rFy1IthAUloQ3N2fyFo0FPaZVqpixYuKu4SkYPbs2UIQ+Ley5coIie7fb4AQPwp9e3sHVKlSGQkTJMTIUaNE8ze0OSCC0KNHDyHJd+/eFWvIQ9eHMl/oXpg8aZL49ZctXS6WrR8hCIYYBFrialSvgebNW6BZ86ZiPYoWPboEIRoKnyHh5l7DvpJIG1wMJAi0GvUf0F+sZnSrzp83T6w5gRXuDSTMnM/qevhZ4k3rDSsCP4Ug0L8+b/5c8WsO6D9QtBSahqtWqSoC8t69u+KX46bBRUfhS62AplKaganl8u+OQxyxes0a2RQYxEYf9YqVy4V0cPPk+9RGjh8/Ln7xwAo3YZqJqYU/f/FCBCXfp9nVxNREfPskKK/fvMH8+fPEBPp94cY9fNhweL17h2nTpqFQwYKiifG7gREEmtrpAmGh5koNhe/S/0ohQFM2Nz5qla6uD9GwYSN4eXqJBeF7gsC/7dq1U7TU2rVrI2myZBgyZLCQGQpvbmo9evaAh8dbce3QXXGFMQ979yBy5CiwihNHrCQBFbNYXwK2okaNJtYKBuzFixtPzM4UMiQGGTN9SxDu3buPZs2aYfjw4XKSoGmTJmjZqqUQBLoTSGhk01+9SjZAulM6duiInr16IGXKlGjXth3GjhsnY0vyRI3y0OFD2LlzhwSO0US+eNFiOHR2kPlC8kKSQ1I3e9Yc9OjRXTZXaoH8e9AEYTru3r0j7oB8+fKhbLlymD17lrhttm3bKlaZChUqipmZAYj0JxcqVFhM4M+fP5NjmzQXlytXHhUrVMS48WNFSNAqMHfuHHE7WdvYSJwH+0r83755K/O5VKnSYmV69PgLQSCpoz+fQmXevHliASBx6te/rxAEYlG2TFnEjRdP6gtoLn49hqyrbr164vJZu3YtPDw9ZE7QgjB06DAZzwMHDvi/QlLFuUGiR3cSXQ5BuRf44sQJE/HQ1RUTJoz3r6dChQpCKitULC8ElaRgwoQJQROETg6oUvVbgkBrHtcCXS3z5y9Agwb1xS3CmAUhCI6OuHvvfwThwIH9aNigkbgJ+fu8ufOlH8YiCPUb1EPTps0kVoLKCLFMlMgat27dFLLG+UdrCb/NttBdyFgfEtVx48bJaSK6Rkj4bt++HeiexH2Lis7Ro0f9YyvCupnr+4qAsREwOkFgYBQXMAPHPn3+LFr/gvnz8djtscQZUCjTv8yFxqh1CncW+hzpT/Tx8YWL85dANZr9aFWg0KGAnzlrpviEaT4XE+ARJ9GeFi1eiEOHDgWKDTtZtkwZMXn6ePvg5q1borlQgypZqpQE03ETOHrsiASwBXR2nySG8QIULpcuXpJgQfaBZlVaBgIqNKWTeFDg8mhUpMiRMHfuXHh6eohASpE8uQRi0WTPgD36yUmqSEIYIMeALQZE8RgkNy1uVvfv3Ue6dLZYsXKlbFAsFEjUink0//79e4IdN+18efPh1avXiBIlMrx9fMSkHVChtsoI70qVK0u8AdvLgMSJkyZg4IBBIrjt7NJLOytVrIyzZ8+IC4mkjT7p6NGiI3Wa1GjVqqUINJIpfp8+dxKWPXv2iBVpqOMw8bvHMjWV+Ahq69euXRVLQOPGjSXokVr4tq1bZb4wPiRBwgRwe/wYDKLk8UIGp/bp3VcIJK0hdhnssHPHDqxeszrQUwyMA/kS6HgJ8RMkwOVLl8Ry1bpVa9EInzx5Kj7yDx8/YOTIEdKeVi1biVmd7Sd2a9euETdH8eIlMGrUSKmvT+8+WL9hg5APHldl8BvHjkJ/zZo1Mp70Z9PEz/7QUkACwkBJHm0kTvwGgyXpYmB8BgUHY2/ixrVCnz59JF4iqMKxow+8RMmSeOLujp27dkqgLecnBThxoan865ItW3YR+gyOXbV6VbD5IUYMHwHXR4/E3WMotH7NmztP6mbwL2Nlps+YAetEidC4cRPUrFUDKVOmktiUTZs3ws/XTwgZXUPcEwYNHCyxORs3bkD1atWRLHkylCheUsaYc4SBuB3ad8TYsWNw/8F9IZAkWVQgSPRtbBLDy8tTAh+5D3BMQhMASMLJvYMkkxhxXjds1BANGzYQMkvrGF1XjCnhXBs61FEsX18siVUkZoVxEEuXLRG3WefOXXD2zBkhsrTcMcYlqLwknBvz5y2Q8SKB/Bn5H4wtLLS+Pw8BoxIELh4u/hQpUgoDZwQ1Na87d+7I4uXmR83AghrW2zdiwjMc76OWz1MLNPNSgPJv3LxpAo4Z00RM5c7Ot4TFc3HRREehw3e4mQSlaZFc8LmvEzhRIFNbozneNFYs0QSoJZCMBLbRcKPg5mFiElO+Tb8vzc18J6BCoZYxQwaJ2vb2eYc7d+7iwYP7Ylam+ZWak+EIFzVPEgBupB8/fZS+EzeaoikE6NeWOAZvbwn0pBAwbCrsFyP7E1lbi1mfbgIKOY5D4sQ2cgSOGzzN+4EVCjVGu9MywdMBT589FdKSNm1aGSNixX8TS/aXRIb++wQJEgp2fIenSAxJqNg31mduYS7jQ7wYsEpNkYL90+dP4jqitsj209JCgcJjEvyd36AFgiTOMk4c2cgZpc93aZrlKQMSLuLGuhnkGdC4EV+SzyhRokrbWQ/Hme2nlYL1E28Kbf6bWp9BA0+aLKlE4jOWgPOR7YkbN54ESH6x3GQUqwYtZMQ/eYoUQn7cnzwRrIlpXL7v+lBIZ84cOcUvzTYw7oG5H0hAPn/6LGPGPvOZnj17SUAmBVdIEk2RrHCexIgeA3fu3vknIDaGzDHi8vURWo4/x4EWkIkTJwR68ufrecJx5lxjPw2FuNJyxLH4shZ8ZZxpPaJljMHHnAMMeCUeTBaULFlyyUHCuZk2ra3EItFayPo5vwxrgfPJsLa5Bjjn06e3g6+vj7gbGAhJiw33mL59+gnJoAUpNIVriuNPMkyMODfYbsY5sA/cL+hC5NHrp8+e4dKli/7uHs5VxqzwuevXriNvvryoVbO2kC3DWNK9GhRh4dxgoC4tqCRAwbmSQtM3fVYRMBYCRiUIIWmUIaMhF2ZIGD83Db4T1ix4gbWN9fOfkLaHbTE8H5r+sq8/2geSpLZt24nGRzdLaDJBkkhx8wnpBmTINhmSthqwYN0hGcvQPk98DfPl+z580b5Dlq3TME7smyFGIKjfDH/7kbnKdoV0fNie77ErVqyYBKEy6RXjbIxdOrTvIKcxGNhHiwC14rAUzq+Q9jcs3/n6XcYKkBDx2yRBXbt2gaurq7Gq968npGuB7iK6hRjgSjIT0rVm9AZrhYqAkRH4zwmCkdv/R1RH9wRJAmMIArNW/BFAaCfDjABjMGj9IPkIKi9GmD/0EytIkTyFWC/83vtJ/E9Agbc/8fP/qpqWUVobaB0JCbH+L9um31IEwoKAEoSwoKfvKgKKgCKgCCgCERQBJQgRdGC1W4qAIqAIKAKKQFgQUIIQFvT0XUVAEVAEFAFFIIIioAQhgg6sdksRUAQUAUVAEQgLAkoQwoKevqsIKAKKgCKgCERQBJQgRNCB1W4pAoqAIqAIKAJhQUAJQljQ03cVAUVAEVAEFIEIioAShAg6sNotRUARUAQUAUUgLAgoQQgLevquIqAIKAKKgCIQQRFQghBBB1a7pQgoAoqAIqAIhAUBJQhhQU/fVQQUAUVAEVAEIigCv5Qg8DKUTJkyyU1u35fLly8HeUNjBB0P7ZYioAgoAoqAIhAuEPilBIHEYOjQYbhw4cI3YPz111+YP3+eXBmrRRFQBBQBRUARUAT+ewR+GkHgnem8Nc7T0zPQXpEg2HdywMhRI765LrhFi5Y4f/6cEoT/fj7oFxUBRUARUAQUAUHA6AQhUqRIIDmoWaMm/Pze4/DhQ7h3/16Ad6QrQdBZqAgoAoqAIqAIhE8EjE4QEiZMhIoVKoD3ztN64ObmhslTJsPHx+dfCChBCJ+TQlulCCgCioAioAgYlSDQepA3b17UqF4TPr4+uHTpIlycXXDp8iV8+PBBCYLON0VAEVAEFAFF4DdBwKgE4YvPIhPatG6LePHiwcnpMNauW4tnz54FCIdaEH6TWaLNVAQUAUVAEfjjEDA6QYgaNSrs7DKgXr16yGCXQYIPe/ToDpfbLmpB+OOml3ZYEVAEFAFF4HdFwOgEgbkN+E/FChXxzttbghUvXLyAadOmKkH4XWeJtlsRUAQUAUXgj0PAqASBMQh2dnbIkSMHUqVMJYGJWbJkxdJlS7B7924lCH/c9NIOKwKKgCKgCPyuCBiVIBAEGxsbFC9WHAUKFMT7DzzmeBhbt26Br6+vEoTfdZZouxUBRUARUAT+OASMThAMCJYuXRoeHp44fvxYoKAySNHBvjPGjRuLz/js/1zTps1w5sxpTZT0x01H7bAioAgoAopAeEHgpxGEuHHjytHGN2/eBNpXU1NTdOnSFW/fvP3mmaRJk2LhogW4fv16eMFJ26EIKAKKgCKgCPxRCPw0ghASFBmzYGVlBZ58+L68evUKfn5+IalGn1EEFAFFQBFQBBQBIyPwSwmCkfui1SkCioAioAgoAoqAkRBQgmAkILUaRUARUAQUAUUgIiGgBCEijab2RRFQBBQBRUARMBICShCMBKRWowgoAoqAIqAIRCQElCBEpNHUvigCioAioAgoAkZCQAmCkYDUahQBRUARUAQUgYiEgBKEiDSa2hdFQBFQBBQBRcBICChBMBKQWo0ioAgoAoqAIhCREFCCEJFGU/uiCCgCioAioAgYCQElCEYCUqtRBBQBRUARUAQiEgJKECLSaGpfFAFFQBFQBBQBIyGgBMFIQGo1ioAioAgoAopAREJACUJEGk3tiyKgCCgCioAiYCQElCAYCUitRhFQBBQBRUARiEgIKEGISKOpfVEEFAFFQBFQBIyEgBIEIwGp1SgCioAioAgoAhEJASUIEWk0tS+KgCKgCCgCioCREFCCYCQgtRpFQBFQBBQBRSAiIaAEISKNpvZFEVAEFAFFQBEwEgJKEIwEpFajCCgCioAioAhEJASUIESk0dS+KAKKgCKgCCgCRkJACYKRgNRqFAFFQBFQBBSBiISAEoSINJraF0VAEVAEFAFFwEgIKEEwEpBajSKgCCgCioAiEJEQUIIQkUZT+6IIKAKKgCKgCBgJASUIRgJSq1EEFAFFQBFQBCISAkoQItJoal8UAUVAEVAEFAEjIaAEwUhAajWKgCKgCCgCikBEQkAJQkQaTe2LIqAIKAKKgCJgJASUIBgJSK1GEVAEFAFFQBGISAgoQYhIo6l9UQQUAUVAEVAEjISAEgQjAanVKAKKgCKgCCgCEQkBJQgRaTS1L4qAIqAIKAKKgJEQUIJgJCC1GkVAEVAEFAFFICIhoAQhIo2m9kURUAQUAUVAETASAkoQjASkVqMIKAKKgCKgCEQkBJQgRKTR1L4oAoqAIqAIKAJGQkAJgpGA1GoUAUVAEVAEFIGIhIAShIg0mtoXRUARUAQUAUXASAgEShAmT56EZcuXGekzWo0ioAgoAoqAIqAI/E4IZM6UGY6OQ5E6dWr/Zkd6//795w0bN2DMmNHw8/P7nfqjbVUEFAFFQBFQBBSBMCIQJUoUFC1SFAMGDISVldX/CMLnz58/u7q6YtasmTh77hx8fHwAfA7j5/R1RUARUAQUAUVAEQjvCESOHBnJk6dAkyZNULhQYUSKFOlbgvD582c8efIE165dg4fHW3xWfhDex1TbpwgoAoqAIqAIhBmBKFEiw9Y2HdKmTQuSha9LJFoQwvwFrUARUAQUAUVAEVAEIhQCShAi1HBqZxQBRUARUAQUAeMgoATBODhqLYqAIqAIKAKKQIRC4P8AItdgusX49q4AAAAASUVORK5CYII=;" vertex="1" parent="1">
                    <mxGeometry x="495" y="4110" width="315" height="189" as="geometry"/>
                </mxCell>
                <mxCell id="122" value="WebSocket Client" style="rounded=1;whiteSpace=wrap;html=1;" vertex="1" parent="1">
                    <mxGeometry x="60" y="4390" width="158" height="240" as="geometry"/>
                </mxCell>
                <mxCell id="128" style="edgeStyle=orthogonalEdgeStyle;html=1;exitX=1;exitY=0.25;exitDx=0;exitDy=0;entryX=0;entryY=0.25;entryDx=0;entryDy=0;" edge="1" parent="1" source="123" target="127">
                    <mxGeometry relative="1" as="geometry"/>
                </mxCell>
                <mxCell id="129" value="发送请求" style="edgeLabel;html=1;align=center;verticalAlign=middle;resizable=0;points=[];" vertex="1" connectable="0" parent="128">
                    <mxGeometry x="-0.0154" y="-2" relative="1" as="geometry">
                        <mxPoint y="1" as="offset"/>
                    </mxGeometry>
                </mxCell>
                <mxCell id="123" value="&lt;div style=&quot;background-color: rgb(39, 40, 34); font-family: Menlo, Monaco, &amp;quot;Courier New&amp;quot;, monospace; line-height: 18px;&quot;&gt;&lt;div style=&quot;line-height: 18px;&quot;&gt;&lt;div style=&quot;line-height: 18px;&quot;&gt;&lt;div style=&quot;line-height: 18px;&quot;&gt;&lt;div style=&quot;color: rgb(248, 248, 242); line-height: 18px;&quot;&gt;&lt;div style=&quot;line-height: 18px;&quot;&gt;&lt;span style=&quot;color: #a6e22e;&quot;&gt;onopen: websocket连接建立后调用&lt;/span&gt;&lt;/div&gt;&lt;/div&gt;&lt;/div&gt;&lt;/div&gt;&lt;/div&gt;&lt;/div&gt;" style="rounded=0;whiteSpace=wrap;html=1;" vertex="1" parent="1">
                    <mxGeometry x="190" y="4450" width="290" height="30" as="geometry"/>
                </mxCell>
                <mxCell id="132" style="edgeStyle=orthogonalEdgeStyle;html=1;exitX=0;exitY=0.5;exitDx=0;exitDy=0;entryX=0.114;entryY=0.996;entryDx=0;entryDy=0;entryPerimeter=0;" edge="1" parent="1" source="124" target="114">
                    <mxGeometry relative="1" as="geometry">
                        <mxPoint x="120" y="4280" as="targetPoint"/>
                    </mxGeometry>
                </mxCell>
                <mxCell id="133" value="显示在终端上" style="edgeLabel;html=1;align=center;verticalAlign=middle;resizable=0;points=[];" vertex="1" connectable="0" parent="132">
                    <mxGeometry x="0.4791" y="-3" relative="1" as="geometry">
                        <mxPoint as="offset"/>
                    </mxGeometry>
                </mxCell>
                <mxCell id="124" value="&lt;div style=&quot;background-color: rgb(39, 40, 34); font-family: Menlo, Monaco, &amp;quot;Courier New&amp;quot;, monospace; line-height: 18px;&quot;&gt;&lt;div style=&quot;line-height: 18px;&quot;&gt;&lt;div style=&quot;line-height: 18px;&quot;&gt;&lt;div style=&quot;line-height: 18px;&quot;&gt;&lt;div style=&quot;color: rgb(248, 248, 242); line-height: 18px;&quot;&gt;&lt;div style=&quot;line-height: 18px;&quot;&gt;&lt;span style=&quot;color: #a6e22e;&quot;&gt;onmessage: 当websockeet收到数据时调用&lt;/span&gt;&lt;/div&gt;&lt;/div&gt;&lt;/div&gt;&lt;/div&gt;&lt;/div&gt;&lt;/div&gt;" style="rounded=0;whiteSpace=wrap;html=1;" vertex="1" parent="1">
                    <mxGeometry x="191.5" y="4490" width="288.5" height="30" as="geometry"/>
                </mxCell>
                <mxCell id="125" value="&lt;div style=&quot;background-color: rgb(39, 40, 34); font-family: Menlo, Monaco, &amp;quot;Courier New&amp;quot;, monospace; line-height: 18px;&quot;&gt;&lt;div style=&quot;line-height: 18px;&quot;&gt;&lt;div style=&quot;line-height: 18px;&quot;&gt;&lt;div style=&quot;line-height: 18px;&quot;&gt;&lt;div style=&quot;color: rgb(248, 248, 242); line-height: 18px;&quot;&gt;&lt;div style=&quot;line-height: 18px;&quot;&gt;&lt;div style=&quot;line-height: 18px;&quot;&gt;&lt;span style=&quot;color: #a6e22e;&quot;&gt;onclose: websocket关闭时调用&lt;/span&gt;&lt;/div&gt;&lt;/div&gt;&lt;/div&gt;&lt;/div&gt;&lt;/div&gt;&lt;/div&gt;&lt;/div&gt;" style="rounded=0;whiteSpace=wrap;html=1;" vertex="1" parent="1">
                    <mxGeometry x="190" y="4540" width="290" height="30" as="geometry"/>
                </mxCell>
                <mxCell id="126" value="&lt;div style=&quot;background-color: rgb(39, 40, 34); font-family: Menlo, Monaco, &amp;quot;Courier New&amp;quot;, monospace; line-height: 18px;&quot;&gt;&lt;div style=&quot;line-height: 18px;&quot;&gt;&lt;div style=&quot;line-height: 18px;&quot;&gt;&lt;div style=&quot;line-height: 18px;&quot;&gt;&lt;div style=&quot;color: rgb(248, 248, 242); line-height: 18px;&quot;&gt;&lt;div style=&quot;line-height: 18px;&quot;&gt;&lt;div style=&quot;line-height: 18px;&quot;&gt;&lt;span style=&quot;color: #a6e22e;&quot;&gt;onerror: websocket 报错时调用&lt;/span&gt;&lt;/div&gt;&lt;/div&gt;&lt;/div&gt;&lt;/div&gt;&lt;/div&gt;&lt;/div&gt;&lt;/div&gt;" style="rounded=0;whiteSpace=wrap;html=1;" vertex="1" parent="1">
                    <mxGeometry x="191.5" y="4580" width="288.5" height="30" as="geometry"/>
                </mxCell>
                <mxCell id="130" style="edgeStyle=orthogonalEdgeStyle;html=1;exitX=0;exitY=0.5;exitDx=0;exitDy=0;entryX=1;entryY=0.5;entryDx=0;entryDy=0;" edge="1" parent="1" source="127" target="124">
                    <mxGeometry relative="1" as="geometry"/>
                </mxCell>
                <mxCell id="131" value="返回数据" style="edgeLabel;html=1;align=center;verticalAlign=middle;resizable=0;points=[];" vertex="1" connectable="0" parent="130">
                    <mxGeometry x="0.2933" y="2" relative="1" as="geometry">
                        <mxPoint as="offset"/>
                    </mxGeometry>
                </mxCell>
                <mxCell id="127" value="WebSocket Server" style="rounded=1;whiteSpace=wrap;html=1;" vertex="1" parent="1">
                    <mxGeometry x="610" y="4390" width="185" height="270" as="geometry"/>
                </mxCell>
                <mxCell id="139" style="edgeStyle=orthogonalEdgeStyle;html=1;exitX=0;exitY=0.5;exitDx=0;exitDy=0;entryX=0;entryY=0.5;entryDx=0;entryDy=0;" edge="1" parent="1" source="135" target="138">
                    <mxGeometry relative="1" as="geometry">
                        <Array as="points">
                            <mxPoint x="160" y="4245"/>
                            <mxPoint x="160" y="4425"/>
                        </Array>
                    </mxGeometry>
                </mxCell>
                <mxCell id="135" value="&lt;div style=&quot;color: rgb(248, 248, 242); background-color: rgb(39, 40, 34); font-family: Menlo, Monaco, &amp;quot;Courier New&amp;quot;, monospace; line-height: 18px;&quot;&gt;&lt;div style=&quot;line-height: 18px;&quot;&gt;&lt;div style=&quot;line-height: 18px;&quot;&gt;&lt;div style=&quot;line-height: 18px;&quot;&gt;&lt;div style=&quot;line-height: 18px;&quot;&gt;&lt;span style=&quot;color: rgb(166, 226, 46); text-align: left;&quot;&gt;onData&lt;/span&gt;&lt;br&gt;&lt;/div&gt;&lt;/div&gt;&lt;/div&gt;&lt;/div&gt;&lt;/div&gt;" style="rounded=0;whiteSpace=wrap;html=1;" vertex="1" parent="1">
                    <mxGeometry x="226" y="4230" width="117" height="30" as="geometry"/>
                </mxCell>
                <mxCell id="141" style="edgeStyle=orthogonalEdgeStyle;html=1;exitX=1;exitY=0.5;exitDx=0;exitDy=0;entryX=-0.005;entryY=0.133;entryDx=0;entryDy=0;entryPerimeter=0;" edge="1" parent="1" source="138" target="127">
                    <mxGeometry relative="1" as="geometry"/>
                </mxCell>
                <mxCell id="142" value="发送数据/指令" style="edgeLabel;html=1;align=center;verticalAlign=middle;resizable=0;points=[];" vertex="1" connectable="0" parent="141">
                    <mxGeometry x="0.1833" y="-1" relative="1" as="geometry">
                        <mxPoint as="offset"/>
                    </mxGeometry>
                </mxCell>
                <mxCell id="138" value="&lt;div style=&quot;color: rgb(248, 248, 242); background-color: rgb(39, 40, 34); font-family: Menlo, Monaco, &amp;quot;Courier New&amp;quot;, monospace; line-height: 18px;&quot;&gt;&lt;span style=&quot;color: #a6e22e;&quot;&gt;send: 发送数据或者指令&lt;/span&gt;&lt;/div&gt;" style="rounded=0;whiteSpace=wrap;html=1;" vertex="1" parent="1">
                    <mxGeometry x="190" y="4410" width="290" height="30" as="geometry"/>
                </mxCell>
            </root>
        </mxGraphModel>
    </diagram>
</mxfile>